<?xml version="1.0" standalone="no"?>
<!DOCTYPE svg PUBLIC "-//W3C//DTD SVG 1.1//EN" "http://www.w3.org/Graphics/SVG/1.1/DTD/svg11.dtd" >
<svg xmlns="http://www.w3.org/2000/svg" xmlns:xlink="http://www.w3.org/1999/xlink" version="1.1">
<metadata>
Created by FontForge 20170924 at Sun Apr 14 19:04:39 2002
 By root
(c) 2002 --- Kurd It Group ---. All Rights Reserved.
</metadata>
<defs>
<font id="Unikunas" horiz-adv-x="1139" >
  <font-face 
    font-family="Unikurd Naske"
    font-weight="400"
    font-stretch="normal"
    units-per-em="2048"
    panose-1="2 11 6 4 3 5 4 4 2 4"
    ascent="1638"
    descent="-410"
    x-height="1062"
    cap-height="1466"
    bbox="-334 -1460 3283.55 2285"
    underline-thickness="128"
    underline-position="-544"
    unicode-range="U+0020-FEFC"
  />
<missing-glyph horiz-adv-x="1536" 
d="M256 0v1280h1024v-1280h-1024zM288 32h960v1216h-960v-1216z" />
    <glyph glyph-name="afii62834" unicode="&#xfedf;&#xfe82;" horiz-adv-x="600" arabic-form="isolated" 
d="M518 444l-31 -125q-28 -114 -98 -196q-82 -98 -188 -98h-29l-18 2q-78 8 -78 43q18 16 43 41q12 28 31 161q2 11 8 82l6 66l-2 110l2 66l6 74l10 86l4 18q6 27 44 123t46 98q15 0 23 -14l-10 -37l-6 -45q-5 -22 -11 -88l-8 -264q-6 -178 -55 -328l-21 -61q0 -13 7 -19
l10 -4q88 0 157 105q64 92 64 186l4 35l8 117l4 192q2 100 27 199q39 157 88 223h8l2 -35v-45l-4 -96v-41l-2 -12q0 -11 -4 -48l-10 -90v-80l-4 -194q-2 -49 -15 -78zM514 1115h-82q-35 0 -47 -6l-129 -62l-25 -8l-28 -6l-29 -2q-70 -4 -143 47q-25 17 -25 27l53 -10
q54 -11 78 -11q47 0 120 36t116 36q78 0 141 -41z" />
    <glyph glyph-name="afii62835" unicode="&#xfee0;&#xfe82;" horiz-adv-x="641" arabic-form="final" 
d="M670 86h-45q-72 0 -121 18l-72 39q-18 0 -51 -100q-25 -80 -39 -96q-12 -31 -59 -74q-60 -53 -109 -53q-6 0 -43 6l-29 10l-32 14q-68 29 -68 52q0 12 39 32.5t49 67.5q4 37 10 92l29 242v49l-2 84q0 41 6 61l17 50q47 141 112 215l4 -11l-12 -77l-23 -166
q-2 -105 -16 -287q-8 -117 -63 -242l-23 -51l4 -8l10 -10q136 -2 207 168q41 98 60 368l6 92l14 140q6 63 41 139l76 168h10l-49 -359l-19 -186q0 -82 31 -139q39 -72 115 -72h35v-176zM514 903h-82q-35 0 -47 -6l-129 -62l-25 -8l-28 -6l-29 -2q-70 -4 -143 47
q-25 17 -25 27l53 -10q54 -11 78 -11q47 0 120 36t116 36q78 0 141 -41z" />
    <glyph glyph-name="afii62836" unicode="&#xfedf;&#xfe84;" horiz-adv-x="581" arabic-form="isolated" 
d="M518 444l-31 -125q-28 -114 -98 -196q-82 -98 -188 -98h-29l-18 2q-78 8 -78 43q18 16 43 41q12 28 31 161q2 11 8 82l6 66l-2 110l2 66l6 74l10 86l4 18q6 27 44 123t46 98q15 0 23 -14l-10 -37l-6 -45q-5 -22 -11 -88l-8 -264q-6 -178 -55 -328l-21 -61q0 -13 7 -19
l10 -4q88 0 157 105q64 92 64 186l4 35l8 117l4 192q2 100 27 199q39 157 88 223h8l2 -35v-45l-4 -96v-41l-2 -12q0 -11 -4 -48l-10 -90v-80l-4 -194q-2 -49 -15 -78zM391 1402q0 -23 -43 -68q-23 -22 -23 -45q19 -33 37 -78q-59 -168 -143 -168l-21 4q-8 3 -8 13
q0 2 36 34.5t36 61.5q0 14 -8 29l-23 41q0 34 50 115t81 81q29 0 29 -20z" />
    <glyph glyph-name="afii62837" unicode="&#xfee0;&#xfe84;" horiz-adv-x="641" arabic-form="final" 
d="M670 86h-45q-72 0 -121 18l-72 39q-18 0 -51 -100q-25 -80 -39 -96q-12 -31 -59 -74q-60 -53 -109 -53q-6 0 -43 6l-29 10l-32 14q-68 29 -68 52q0 12 39 32.5t49 67.5q4 37 10 92l29 242v49l-2 84q0 41 6 61l17 50q47 141 112 215l4 -11l-12 -77l-23 -166
q-2 -105 -16 -287q-8 -117 -63 -242l-23 -51l4 -8l10 -10q136 -2 207 168q41 98 60 368l6 92l14 140q6 63 41 139l76 168h10l-49 -359l-19 -186q0 -82 31 -139q39 -72 115 -72h35v-176zM354 1190q0 -23 -43 -68q-23 -22 -23 -45q19 -33 37 -78q-59 -168 -143 -168l-21 4
q-8 3 -8 13q0 2 36 34.5t36 61.5q0 14 -8 29l-23 41q0 34 50 115t81 81q29 0 29 -20z" />
    <glyph glyph-name="afii62838" unicode="&#xfedf;&#xfe88;" horiz-adv-x="581" arabic-form="isolated" 
d="M518 444l-31 -125q-28 -114 -98 -196q-82 -98 -188 -98h-29l-18 2q-78 8 -78 43q18 16 43 41q12 28 31 161q2 11 8 82l6 66l-2 110l2 66l6 74l10 86l4 18q6 27 44 123t46 98q15 0 23 -14l-10 -37l-6 -45q-5 -22 -11 -88l-8 -264q-6 -178 -55 -328l-21 -61q0 -13 7 -19
l10 -4q88 0 157 105q64 92 64 186l4 35l8 117l4 192q2 100 27 199q39 157 88 223h8l2 -35v-45l-4 -96v-41l-2 -12q0 -11 -4 -48l-10 -90v-80l-4 -194q-2 -49 -15 -78zM274 -46q0 -23 -43 -68q-23 -22 -23 -45q19 -33 37 -78q-59 -168 -143 -168l-21 4q-8 3 -8 13
q0 2 36 34.5t36 61.5q0 14 -8 29l-23 41q0 34 50 115t81 81q29 0 29 -20z" />
    <glyph glyph-name="afii62839" unicode="&#xfee0;&#xfe88;" horiz-adv-x="641" arabic-form="final" 
d="M670 86h-45q-72 0 -121 18l-72 39q-18 0 -51 -100q-25 -80 -39 -96q-12 -31 -59 -74q-60 -53 -109 -53q-6 0 -43 6l-29 10l-32 14q-68 29 -68 52q0 12 39 32.5t49 67.5q4 37 10 92l29 242v49l-2 84q0 41 6 61l17 50q47 141 112 215l4 -11l-12 -77l-23 -166
q-2 -105 -16 -287q-8 -117 -63 -242l-23 -51l4 -8l10 -10q136 -2 207 168q41 98 60 368l6 92l14 140q6 63 41 139l76 168h10l-49 -359l-19 -186q0 -82 31 -139q39 -72 115 -72h35v-176zM216 -250q0 -23 -43 -68q-23 -22 -23 -45q19 -33 37 -78q-59 -168 -143 -168l-21 4
q-8 3 -8 13q0 2 36 34.5t36 61.5q0 14 -8 29l-23 41q0 34 50 115t81 81q29 0 29 -20z" />
    <glyph glyph-name="afii62840" unicode="&#xfedf;&#xfe8e;" horiz-adv-x="581" arabic-form="isolated" 
d="M518 444l-31 -125q-28 -114 -98 -196q-82 -98 -188 -98h-29l-18 2q-78 8 -78 43q18 16 43 41q12 28 31 161q2 11 8 82l6 66l-2 110l2 66l6 74l10 86l4 18q6 27 44 123t46 98q15 0 23 -14l-10 -37l-6 -45q-5 -22 -11 -88l-8 -264q-6 -178 -55 -328l-21 -61q0 -13 7 -19
l10 -4q88 0 157 105q64 92 64 186l4 35l8 117l4 192q2 100 27 199q39 157 88 223h8l2 -35v-45l-4 -96v-41l-2 -12q0 -11 -4 -48l-10 -90v-80l-4 -194q-2 -49 -15 -78z" />
    <glyph glyph-name="afii62841" unicode="&#xfee0;&#xfe8e;" horiz-adv-x="641" arabic-form="final" 
d="M670 86h-45q-72 0 -121 18l-72 39q-18 0 -51 -100q-25 -80 -39 -96q-12 -31 -59 -74q-60 -53 -109 -53q-6 0 -43 6l-29 10l-32 14q-68 29 -68 52q0 12 39 32.5t49 67.5q4 37 10 92l29 242v49l-2 84q0 41 6 61l17 50q47 141 112 215l4 -11l-12 -77l-23 -166
q-2 -105 -16 -287q-8 -117 -63 -242l-23 -51l4 -8l10 -10q136 -2 207 168q41 98 60 368l6 92l14 140q6 63 41 139l76 168h10l-49 -359l-19 -186q0 -82 31 -139q39 -72 115 -72h35v-176z" />
    <glyph glyph-name="lla1" unicode="&#xe008;&#xfe8e;" horiz-adv-x="581" 
d="M518 444l-31 -125q-28 -114 -98 -196q-82 -98 -188 -98h-29l-18 2q-78 8 -78 43q18 16 43 41q12 28 31 161q2 11 8 82l6 66l-2 110l2 66l6 74l10 86l4 18q6 27 44 123t46 98q15 0 23 -14l-10 -37l-6 -45q-5 -22 -11 -88l-8 -264q-6 -178 -55 -328l-21 -61q0 -13 7 -19
l10 -4q88 0 157 105q64 92 64 186l4 35l8 117l4 192q2 100 27 199q39 157 88 223h8l2 -35v-45l-4 -96v-41l-2 -12q0 -11 -4 -48l-10 -90v-80l-4 -194q-2 -49 -15 -78zM540 1333q-41 -16 -71 -77q-22 -44 -32 -91h-12q-7 45 -35 90q-34 57 -80 72l5 52q36 -9 64 -53
q23 -34 53 -119q46 153 108 174v-48z" />
    <glyph glyph-name="lla2" unicode="&#xe009;&#xfe8e;" horiz-adv-x="641" 
d="M670 86h-45q-72 0 -121 18l-72 39q-18 0 -51 -100q-25 -80 -39 -96q-12 -31 -59 -74q-60 -53 -109 -53q-6 0 -43 6l-29 10l-32 14q-68 29 -68 52q0 12 39 32.5t49 67.5q4 37 10 92l29 242v49l-2 84q0 41 6 61l17 50q47 141 112 215l4 -11l-12 -77l-23 -166
q-2 -105 -16 -287q-8 -117 -63 -242l-23 -51l4 -8l10 -10q136 -2 207 168q41 98 60 368l6 92l14 140q6 63 41 139l76 168h10l-49 -359l-19 -186q0 -82 31 -139q39 -72 115 -72h35v-176zM537 1146q-41 -16 -71 -77q-22 -44 -32 -91h-12q-7 45 -35 90q-34 57 -80 72l5 52
q36 -9 64 -53q23 -34 53 -119q46 153 108 174v-48z" />
    <glyph glyph-name="afii57369" unicode="&#x6a4;" horiz-adv-x="438" arabic-form="medial" 
d="M375 389q0 31 -24.5 58.5t-55.5 27.5t-62.5 -30.5t-31.5 -61.5t29.5 -52.5t62.5 -21.5q22 0 52 29t30 51zM475 262v-176h-35q-80 0 -135 37q-18 12 -39 35l-33 -19l-30 -16q-37 -21 -84 -27l-43 -6l-47 -4h-52v176h74q55 0 72 12l4 37l12 58q13 57 64 139q63 102 127 102
q49 0 77.5 -44t28.5 -95q0 -68 -35 -133l-22 -43l-12 -14l-5 -7l-4 -4l9 -4l14 -2l51 -2h43zM346 1142q0 -23 -53 -94.5t-72 -71.5q-20 0 -60 24.5t-40 42.5l18 25l41 59l41 58q13 22 19 24zM481 914q0 -18 -47 -81q-55 -74 -88 -74l-39 20q-43 23 -49 23q-8 0 -49 -51.5
t-66 -51.5q-20 0 -73.5 26t-53.5 40l58 76q57 75 74 75q6 0 50 -25.5t56 -27.5q10 0 62.5 60.5t64.5 60.5l27 -12l22 -13q51 -28 51 -45z" />
    <glyph glyph-name="afii57371" unicode="&#x6a4;" horiz-adv-x="2801" arabic-form="final" 
d="M2681 389q0 31 -25.5 58.5t-56.5 27.5q-29 0 -60.5 -31.5t-31.5 -60.5q0 -33 28.5 -53.5t63.5 -20.5q18 0 50 30t32 50zM1620 -92l-272 -6q-277 -6 -539 30q-408 58 -475 150q-53 72 -53 133l2 16v13l-2 16q79 -47 297 -94q360 -80 985 -80h43l217 8l131 17
q264 32 401 94l55 24q19 11 19 33v37l4 23q2 12 12 47q80 221 185 221q47 0 78.5 -36t31.5 -83q0 -63 -35 -133q-10 -21 -32 -57q0 -19 20 -19h150v-176h-56q-135 0 -200 70l-17 24l-125 -74q-133 -77 -442 -141q-131 -26 -383 -57zM2629 1158q0 -23 -53 -94.5t-72 -71.5
q-20 0 -60 24.5t-40 42.5l18 25l41 59l41 58q13 22 19 24zM2764 930q0 -18 -47 -81q-55 -74 -88 -74l-39 20q-43 23 -49 23q-8 0 -49 -51.5t-66 -51.5q-20 0 -73.5 26t-53.5 40l58 76q57 75 74 75q6 0 50 -25.5t56 -27.5q10 0 62.5 60.5t64.5 60.5l27 -12l22 -13
q51 -28 51 -45z" />
    <glyph glyph-name="afii57372" unicode="&#x6a4;" horiz-adv-x="399" arabic-form="initial" 
d="M-23 86v176h72q72 0 135 33q78 39 78 104q0 31 -33 31h-16l-12 -2l-47 -8q-97 0 -97 100q0 23 27 121q33 121 57 121q160 0 195 -230q2 -14 2 -32q0 -74 -42 -174.5t-93 -153.5q-82 -86 -178 -86h-48zM275 1251q0 -23 -53 -94.5t-72 -71.5q-20 0 -60 24.5t-40 42.5l18 25
l41 59l41 58q13 22 19 24zM410 1023q0 -18 -47 -81q-55 -74 -88 -74l-39 20q-43 23 -49 23q-8 0 -49 -51.5t-66 -51.5q-20 0 -73.5 26t-53.5 40l58 76q57 75 74 75q6 0 50 -25.5t56 -27.5q10 0 62.5 60.5t64.5 60.5l27 -12l22 -13q51 -28 51 -45z" />
    <glyph glyph-name="afii62958" unicode="&#x67e;" horiz-adv-x="2574" arabic-form="final" 
d="M2081 219q180 70 254 158l18 -19l21 -16l57 -39q59 -41 137 -41h55v-176h-53q-88 0 -151 53l-111 115l-27 -31l-59 -57q-96 -74 -209 -111l-67 -22l-72 -23l-168 -37q-12 -2 -109 -18q-20 -4 -79 -12l-215 -23l-150 -4l-178 -10h-383q-307 0 -520 94q-129 57 -148 193
l-6 45l-2 51l49 -31l39 -22l35 -15q104 -43 223 -65l141 -27q58 -10 191 -14l156 -4l202 -13l262 -4l205 8q35 2 80 7l96 10q131 14 265 39q14 4 47 10q82 16 121 31q6 2 53 20zM1139 -670q0 25 51 95.5t72 70.5q20 0 59 -23.5t39 -41.5l-55 -84l-21 -25l-22 -35
q-11 -16 -19 -22l-53 30zM1004 -440q0 32 52 93.5t83 61.5l37 -22q24 -15 49 -23q8 0 63 72q25 33 53 33q19 0 71 -25.5t54 -40.5l-59 -76q-59 -75 -72 -75q-4 0 -49 26.5t-59 26.5q-8 0 -61.5 -59.5t-61.5 -61.5l-29 12l-22 13q-49 26 -49 45z" />
    <glyph glyph-name="afii62956" unicode="&#x67e;" horiz-adv-x="385" arabic-form="initial" 
d="M39 86h-39v176h74l10 2h10q8 0 21 4q43 8 61 37l8 49l9 56q6 45 59 131q43 69 82 112l4 -8l4 -14l-33 -99q0 -34 -26 -116l-31 -94q-21 -62 -86 -144q-76 -92 -127 -92zM127 -416q0 23 52 94.5t71 71.5q20 0 59 -23.5t39 -41.5l-55 -84l-21 -27l-20 -33q-10 -14 -21 -22
l-53 30zM-8 -186q0 32 52 93.5t83 61.5l39 -22q31 -19 49 -23q6 0 61 72q25 33 54 33q20 0 71.5 -26t53.5 -42l-60 -74q-61 -75 -71 -75q-5 0 -50 26.5t-57 26.5q-10 0 -63.5 -59.5t-61.5 -61.5l-29 12l-20 13q-51 30 -51 45z" />
    <glyph glyph-name="afii52957" unicode="&#x67e;" horiz-adv-x="456" arabic-form="medial" 
d="M233 172q-55 -53 -114 -68l-51 -12l-31 -4l-37 -2v176h49q94 0 119 10q33 15 76 86l35 58l32 47l25 22l8 -6q-53 -145 -53 -182v-23q0 -12 155 -12h41v-176h-38q-95 0 -148 33l-27 16l-24 17zM127 -416q0 23 52 94.5t71 71.5q20 0 59 -23.5t39 -41.5l-55 -84l-21 -27
l-20 -33q-10 -14 -21 -22l-53 30zM-8 -186q0 32 52 93.5t83 61.5l39 -22q31 -19 49 -23q6 0 61 72q25 33 54 33q20 0 71.5 -26t53.5 -42l-60 -74q-61 -75 -71 -75q-5 0 -50 26.5t-57 26.5q-10 0 -63.5 -59.5t-61.5 -61.5l-29 12l-20 13q-51 30 -51 45z" />
    <glyph glyph-name="afii62961" unicode="&#x686;" horiz-adv-x="897" arabic-form="final" 
d="M926 86h-43l-72 4h-78l-82 -2l-33 -2q-12 -2 -38 -6q-66 -10 -97 -41l277 -57q94 -21 94 -48q0 -40 -96 -94l-127 -69q-76 -43 -125 -84l-94 -82q-246 -213 -246 -457q0 -72 51 -174q59 -117 123 -117l25 -18q24 -19 81 -33l33 -8l51 -8l76 -4q39 -3 99 10
q286 59 505 383l47 55q5 6 25 16q10 0 10 -22q0 -23 -6 -37l-4 4l-4 -6l-18 -27l-31 -51l-39 -57q-21 -25 -80 -107l-53 -73l-35 -45q-139 -181 -381 -261q-86 -28 -158 -28q-288 0 -407 221q-49 92 -49 180q0 178 61 348q66 187 184 299l140 133q18 17 73 50q125 71 125 84
q0 47 -198 47q-19 0 -43 -11l-25 -10q-14 0 -35 10q-10 9 -10 17l2 8l12 16l37 54q174 252 430 272q51 4 99 4h47v-176zM586 -950q0 22 52 93t71 71q18 0 58 -24t40 -40l-96 -145q-11 -17 -21 -23l-51 33zM451 -723q0 33 52 94.5t83 61.5l39 -23q28 -16 49 -20q8 0 61 69
q27 35 53 35q21 0 73 -25.5t52 -41.5l-57 -76q-55 -74 -74 -74q-4 0 -49 25.5t-57 25.5q-8 0 -62.5 -59.5t-62.5 -61.5l-29 15l-20 12q-51 31 -51 43z" />
    <glyph glyph-name="afii62959" unicode="&#x686;" horiz-adv-x="702" arabic-form="initial" 
d="M0 262h16q138 0 246 64q86 51 191 168q-41 32 -111 59t-121 27l-74 -39h-14l-4 14q0 25 49 72q60 57 127 57q47 0 98 -22l103 -46q43 -18 84 -22l24 -2l27 2l33 10l8 -10q6 -4 8 -16v-3q-6 -24 -45 -59l-88 -55l-47 -45l-33 -27l-71 -59l-121 -105q-162 -139 -271 -139
h-14v176zM389 -221q0 24 51.5 95t71.5 71t59 -23.5t39 -42.5l-98 -143q-12 -19 -18 -23l-54 31zM254 8q0 33 52 94.5t83 61.5l37 -23q31 -18 49 -22q8 0 64 71q24 33 51 33q20 0 72.5 -25.5t54.5 -41.5l-60 -74q-61 -76 -71 -76q-4 0 -50.5 26.5t-58.5 26.5q-8 0 -61.5 -59
t-61.5 -61l-28 12l-23 12q-49 27 -49 45z" />
    <glyph glyph-name="afii62960" unicode="&#x686;" horiz-adv-x="755" arabic-form="medial" 
d="M479 428q0 12 -49 29.5t-68 17.5q-61 0 -116 -63l-99 -148l13 -2h18l23 2q61 6 164 58q114 59 114 106zM0 86v176h86l25 47l90 150q18 33 79.5 84t90.5 51q53 0 80 -4l16 -6q61 -23 88 -27l31 -4l28 -2q17 -2 40.5 5t33.5 7q12 -2 14 -6q11 -2 15 -12q0 -10 -39 -43
l-53 -45l-29 -29q-55 -55 -80 -98q0 -37 98 -56q66 -12 129 -12h43v-176h-32q-312 0 -312 160q-114 -137 -276 -152l-23 -2l-32 -4zM328 -426q0 25 51 95.5t72 70.5q20 0 59 -23.5t39 -42.5l-98 -143q-13 -18 -19 -23l-53 31zM193 -197q0 33 52 94.5t83 61.5l37 -22
q30 -19 49 -23q8 0 63 72q25 32 51 32q21 0 73 -25.5t54 -41.5l-59 -74q-61 -76 -72 -76q-4 0 -50 27t-58 27q-8 0 -61.5 -59.5t-61.5 -61.5l-29 12l-22 12q-49 27 -49 45z" />
    <glyph glyph-name="afii62962" unicode="&#x698;" horiz-adv-x="786" arabic-form="final" 
d="M-178 -516l-66 -19q-57 -16 -75 -16h-3q-6 0 -8 4l-4 8q8 9 107 62q250 139 475 368q22 25 110 127l23 27q68 80 108 123q91 94 285 94h51v-176h-127q-168 0 -342 -190l-69 -76l-76 -78l-74 -66q-131 -116 -252 -170q-47 -20 -63 -22zM604 813q0 -25 -52 -95.5t-73 -70.5
q-20 0 -59 24.5t-39 43.5l16 24l41 60l41 57q10 14 21 25zM739 586q0 -19 -47 -82q-53 -74 -88 -74l-39 21q-43 22 -49 22q-8 0 -49 -51t-66 -51q-18 0 -72.5 25.5t-54.5 39.5l60 76q59 76 74 76q6 0 49 -25.5t57 -27.5q8 0 60.5 60t64.5 60l27 -12l22 -12q51 -29 51 -45z
" />
    <glyph glyph-name="afii62964" unicode="&#x6a9;" horiz-adv-x="1443" arabic-form="final" 
d="M1481 86h-39q-123 0 -158 150q-14 63 -18 73l-66 -76q-141 -163 -338 -210l-102 -25l-98 -18q-82 -17 -125 -19l-58 -4h-57q-150 0 -199 6q-127 17 -170 80q-35 51 -35 150v26l2 31l7 49q12 107 22 107q14 0 25 -13l4 -12l2 -19l-2 -38l-4 -43q4 -33 20 -60
q12 -14 74 -51q29 -16 106 -33l31 -6l51 -4l90 -4q162 -8 414 61q64 17 137 45l33 13l94 41l31 18q84 49 105 88q6 12 12 74l6 67l4 132q2 96 43 200q43 113 107 172l30 29l80 63q60 48 111 74l198 103q7 2 39 16l27 12l86 51l76 50l75 55l70 49l12 -4l7 -4q2 -25 -29 -66
l-21 -26l-26 -27l-66 -55q-73 -62 -223 -144l-260 -141l-154 -88l-55 -43q-31 -25 -35 -90l-20 -434q-6 -152 88 -152h39v-176z" />
    <glyph glyph-name="afii52305" unicode="&#x6a9;" horiz-adv-x="350" arabic-form="initial" 
d="M176 453l10 114l17 140l10 73l4 21q16 84 88 200l43 35q29 25 101 80l65 45l57 35l199 102q68 23 152 80l57 39l94 66l70 51l18 -10q0 -115 -366 -318l-412 -227l-51 -45q-29 -25 -47 -98l-2 -68l-9 -123q0 -29 -8 -110l-18 -132q-21 -149 -49 -208q-54 -109 -168 -109
h-51v176h98q98 0 98 191z" />
    <glyph glyph-name="afii52306" unicode="&#x6a9;" horiz-adv-x="534" arabic-form="medial" 
d="M1067 1507q0 -69 -170 -211l-61 -51q-60 -49 -109 -80l-176 -108l-94 -74q-29 -22 -49 -43q-5 -8 -17 -86l-12 -80l-10 -92q0 -33 -5.5 -99.5t-5.5 -99.5v-34l4 -54q5 -59 55 -96t111 -37h54v-176h-54q-84 0 -150.5 62.5t-72.5 148.5l-6 74l-10 8l-10 4l-13 -18l-33 -60
q-24 -45 -83 -141q-62 -78 -105 -78h-51v176h51q61 0 148 103q40 49 71 104q2 8 19 57l4 35l4 45l2 86l2 35l6 51q21 172 207 344q102 97 188 133l74 43l64 39l45 33l55 41l125 102z" />
    <glyph glyph-name="afii62967" unicode="&#x6af;" horiz-adv-x="1443" arabic-form="final" 
d="M1481 86h-39q-123 0 -158 150q-14 63 -18 73l-66 -76q-141 -163 -338 -210l-102 -25l-98 -18q-82 -17 -125 -19l-58 -4h-57q-150 0 -199 6q-127 17 -170 80q-35 51 -35 150v26l2 31l7 49q12 107 22 107q14 0 25 -13l4 -12l2 -19l-2 -38l-4 -43q4 -33 20 -60
q12 -14 74 -51q29 -16 106 -33l31 -6l51 -4l90 -4q162 -8 414 61q64 17 137 45l33 13l94 41l31 18q84 49 105 88q6 12 12 74l6 67l4 132q2 96 43 200q43 113 107 172l30 29l80 63q60 48 111 74l198 103q7 2 39 16l27 12l86 51l76 50l75 55l70 49l12 -4l7 -4q2 -25 -29 -66
l-21 -26l-26 -27l-66 -55q-73 -62 -223 -144l-260 -141l-154 -88l-55 -43q-31 -25 -35 -90l-20 -434q-6 -152 88 -152h39v-176zM2048 1495q0 -51 -29 -68l-499 -278q0 53 53 82z" />
    <glyph glyph-name="afii62965" unicode="&#x6af;" horiz-adv-x="350" arabic-form="initial" 
d="M176 453l10 114l17 140l10 73l4 21q16 84 88 200l43 35q29 25 101 80l65 45l57 35l199 102q68 23 152 80l57 39l94 66l70 51l18 -10q0 -115 -366 -318l-412 -227l-51 -45q-29 -25 -47 -98l-2 -68l-9 -123q0 -29 -8 -110l-18 -132q-21 -149 -49 -208q-54 -109 -168 -109
h-51v176h98q98 0 98 191zM881 1448q0 -51 -29 -68l-483 -278q0 51 53 82z" />
    <glyph glyph-name="afii62966" unicode="&#x6af;" horiz-adv-x="534" arabic-form="medial" 
d="M1067 1507q0 -69 -170 -211l-61 -51q-60 -49 -109 -80l-176 -108l-94 -74q-29 -22 -49 -43q-5 -8 -17 -86l-12 -80l-10 -92q0 -33 -5.5 -99.5t-5.5 -99.5v-34l4 -54q5 -59 55 -96t111 -37h54v-176h-54q-84 0 -150.5 62.5t-72.5 148.5l-6 74l-10 8l-10 4l-13 -18l-33 -60
q-24 -45 -83 -141q-62 -78 -105 -78h-51v176h51q61 0 148 103q40 49 71 104q2 8 19 57l4 35l4 45l2 86l2 35l6 51q21 172 207 344q102 97 188 133l74 43l64 39l45 33l55 41l125 102zM883 1470q0 -49 -29 -67l-399 -270q0 45 53 81z" />
    <glyph glyph-name="afii52364" unicode="&#x6cc;" horiz-adv-x="1038" arabic-form="final" 
d="M1069 86h-45q-236 0 -236 -98q0 -13 77 -63t77 -101q0 -94 -49 -217q-8 -23 -39 -86q-84 -178 -168 -260q-45 -43 -131 -90q-111 -60 -193 -60q-161 0 -251 107q-84 98 -84 264q0 194 123 438q45 90 69 125l72 102l8 -6q23 -16 23 -22q-11 -21 -48 -82l-49 -82
q-4 -6 -20 -41l-19 -43q-49 -115 -49 -195l-4 -10q-10 -39 -10 -67q0 -56 33.5 -115t81.5 -94q69 -52 163 -52q250 0 400 207q53 74 53 113q0 18 -45 33q-61 20 -86 39q-45 34 -45 104q0 82 53 186q49 99 115 160q86 82 178 82h45v-176z" />
    <glyph glyph-name="afii52399" unicode="&#x621;" horiz-adv-x="229" arabic-form="isolated" 
d="M219 532q0 -20 -31.5 -56t-31.5 -56l6 -12l12 -23l10 -20l9 -23l-17 -37q-57 -131 -129 -131l-18 4q-9 0 -9 12q0 3 36 35.5t36 61.5q0 10 -8 26l-23 43q0 33 52.5 115t81.5 82q24 0 24 -21z" />
    <glyph glyph-name="afii62753" unicode="&#x622;" horiz-adv-x="300" arabic-form="final" 
d="M190 692l-4 -106q-6 -160 31 -258q25 -66 68 -66h49v-176h-55q-177 0 -177 213v66l2 63l7 158l6 47l8 43l4 39l4 12l10 84l15 84l16 90q19 102 41 160q18 0 27 -4l-33 -228l-12 -106zM477 1253h-82q-35 0 -47 -6l-129 -62l-25 -8l-28 -6l-29 -2q-70 -4 -143 47
q-25 17 -25 27l53 -10q54 -11 78 -11q47 0 120 36t116 36q78 0 141 -41z" />
    <glyph glyph-name="afii62754" unicode="&#x623;" horiz-adv-x="296" arabic-form="final" 
d="M190 692l-4 -106q-6 -160 31 -258q25 -66 68 -66h49v-176h-55q-177 0 -177 213v66l2 63l7 158l6 47l8 43l4 39l4 12l10 84l15 84l16 90q19 102 41 160q18 0 27 -4l-33 -228l-12 -106zM354 1565q0 -25 -21 -45q-45 -45 -45 -66q19 -34 37 -77q-20 -58 -37 -84
q-51 -84 -106 -84l-21 4q-8 2 -8 12q0 2 36 34t36 60q0 12 -15 39l-12 19l-4 14q0 31 52 112.5t79 81.5q29 0 29 -20z" />
    <glyph glyph-name="afii62755" unicode="&#x624;" horiz-adv-x="350" arabic-form="final" 
d="M342 86q-10 -2 -37 -63q-10 -27 -33 -76q-34 -70 -67 -117l-27 -39l-10 -12q0 -23 -285 -129h-33l-2 6l-2 2l17 16l53 41l160 115q84 61 141 143q33 47 33 86l-137 27q-60 25 -60 66l27 71q78 209 127 209q47 0 82 -51l47 -119h45v-176h-39zM203 801q0 -23 -43 -68
q-23 -22 -23 -45q19 -33 37 -78q-59 -168 -143 -168l-21 4q-8 3 -8 13q0 2 36 34.5t36 61.5q0 14 -8 29l-23 41q0 34 50 115t81 81q29 0 29 -20z" />
    <glyph glyph-name="afii62756" unicode="&#x625;" horiz-adv-x="296" arabic-form="final" 
d="M190 692l-4 -106q-6 -160 31 -258q25 -66 68 -66h49v-176h-55q-177 0 -177 213v66l2 63l7 158l6 47l8 43l4 39l4 12l10 84l15 84l16 90q19 102 41 160q18 0 27 -4l-33 -228l-12 -106zM313 -13q0 -25 -21 -45q-45 -45 -45 -66q19 -34 37 -77q-20 -58 -37 -84
q-51 -84 -106 -84l-21 4q-8 2 -8 12q0 2 36 34t36 60q0 12 -15 39l-12 19l-4 14q0 31 52 112.5t79 81.5q29 0 29 -20z" />
    <glyph glyph-name="afii62759" unicode="&#x626;" horiz-adv-x="1038" arabic-form="final" 
d="M1069 86h-45q-236 0 -236 -98q0 -13 77 -63t77 -101q0 -94 -49 -217q-8 -23 -39 -86q-84 -178 -168 -260q-45 -43 -131 -90q-111 -60 -193 -60q-161 0 -251 107q-84 98 -84 264q0 194 123 438q45 90 69 125l72 102l8 -6q23 -16 23 -22q-11 -21 -48 -82l-49 -82
q-4 -6 -20 -41l-19 -43q-49 -115 -49 -195l-4 -10q-10 -39 -10 -67q0 -56 33.5 -115t81.5 -94q69 -52 163 -52q250 0 400 207q53 74 53 113q0 18 -45 33q-61 20 -86 39q-45 34 -45 104q0 82 53 186q49 99 115 160q86 82 178 82h45v-176zM670 510q0 -19 -33 -56t-33 -55
l19 -37l10 -18l8 -23l-14 -37q-2 -6 -25 -47q-45 -84 -106 -84l-21 2q-6 4 -6 15l36 33.5t36 62.5q0 8 -11 27l-18 34l-2 9q0 32 51 113t80 81t29 -20z" />
    <glyph glyph-name="afii62757" unicode="&#x626;" horiz-adv-x="282" arabic-form="initial" 
d="M246 881q0 -19 -33 -56t-33 -55l19 -37l10 -18l8 -23l-14 -37q-2 -6 -25 -47q-45 -84 -106 -84l-21 2q-6 4 -6 15l36 33.5t36 62.5q0 8 -11 27l-18 34l-2 9q0 32 51 113t80 81t29 -20zM0 86v176h10q99 0 127 43l8 49l9 56q6 45 59 131q43 69 84 112l2 -8l2 -14l-29 -99
q0 -28 -28 -116l-31 -94q-18 -58 -88 -142q-76 -94 -125 -94z" />
    <glyph glyph-name="afii62758" unicode="&#x626;" horiz-adv-x="456" arabic-form="medial" 
d="M274 881q0 -19 -30.5 -54.5t-30.5 -56.5l4 -12l12 -25q17 -24 19 -41q-2 -6 -17 -37l-20 -47q-37 -84 -109 -84l-18 2q-6 2 -10 15q0 2 36.5 33.5t36.5 62.5q0 8 -10 29l-20 41q0 30 52 112t79 82q26 0 26 -20zM233 172q-57 -55 -114 -68l-56 -12q-28 -6 -40 -6h-23v176
h49q94 0 119 10q33 15 76 86l35 58l32 47l25 22l8 -6q-53 -145 -53 -182v-23q0 -12 155 -12h50v-176h-47q-95 0 -148 33l-27 16l-24 17z" />
    <glyph glyph-name="afii62760" unicode="&#x627;" horiz-adv-x="296" arabic-form="final" 
d="M190 692l-4 -106q-6 -160 31 -258q25 -66 68 -66h49v-176h-55q-177 0 -177 213v66l2 63l7 158l6 47l8 43l4 39l4 12l10 84l15 84l16 90q19 102 41 160q18 0 27 -4l-33 -228l-12 -106z" />
    <glyph glyph-name="afii62763" unicode="&#x628;" horiz-adv-x="2574" arabic-form="final" 
d="M1274 -260q0 -23 -49 -72l-51 -51l-15 8l-43 27q-51 31 -51 39l27 35q14 18 22 34l47 68l8 -2l13 -4l45 -35q45 -35 47 -47zM2081 219q180 70 254 158l18 -19l21 -16l57 -39q59 -41 137 -41h55v-176h-53q-88 0 -151 53l-111 115l-27 -31l-59 -57q-96 -74 -209 -111
l-67 -22l-72 -23l-168 -37q-12 -2 -109 -18q-20 -4 -79 -12l-215 -23l-150 -4l-178 -10h-383q-307 0 -520 94q-129 57 -148 193l-6 45l-2 51l49 -31l39 -22l35 -15q104 -43 223 -65l141 -27q58 -10 191 -14l156 -4l202 -13l262 -4l205 8q35 2 80 7l96 10q131 14 265 39
q14 4 47 10q82 16 121 31q6 2 53 20z" />
    <glyph glyph-name="afii62761" unicode="&#x628;" horiz-adv-x="385" arabic-form="initial" 
d="M299 -66q0 -20 -49 -69l-51 -51l-58 32q-53 31 -53 39l6 9l15 18q6 8 30 43l47 68l21 -7l47 -34q43 -33 45 -48zM39 86h-39v176h74l10 2h10q8 0 21 4q43 8 61 37l8 49l9 56q6 45 59 131q43 69 82 112l4 -8l4 -14l-33 -99q0 -34 -26 -116l-31 -94q-21 -62 -86 -144
q-76 -92 -127 -92z" />
    <glyph glyph-name="afii62762" unicode="&#x628;" horiz-adv-x="456" arabic-form="medial" 
d="M203 -131q-6 0 -36 45t-38 61l51 43q41 35 62 50l2 -9l6 -10l26 -39q33 -47 33 -63q0 -15 -45 -46.5t-61 -31.5zM233 172q-55 -53 -114 -68l-51 -12l-31 -4l-37 -2v176h49q94 0 119 10q33 15 76 86l35 58l32 47l25 22l8 -6q-53 -145 -53 -182v-23q0 -12 155 -12h41v-176
h-38q-95 0 -148 33l-27 16l-24 17z" />
    <glyph glyph-name="afii62764" unicode="&#x629;" horiz-adv-x="436" arabic-form="final" 
d="M193 256l40 31q35 26 89 26q6 0 32.5 -18.5t31.5 -20.5t11 -6l19 -4l18 -2h35v-176h-35l-78 6q-22 10 -69 29l-29 6l-29 2q-90 6 -168 -137l-26 -49l-4 -2h-8q-7 0 -13 12l2 10l8 31l7 12l8 19l22 53l31 51q37 61 105 127zM483 567q0 -32 -52.5 -93.5t-83.5 -61.5l-39 22
q-30 19 -49 23q-6 0 -61 -72q-25 -33 -53 -33q-21 0 -72 26t-53 42l57 74q59 75 74 75q4 0 49 -26.5t57 -26.5q8 0 62.5 59.5t62.5 61.5l29 -12l20 -13q52 -30 52 -45z" />
    <glyph glyph-name="afii62767" unicode="&#x62a;" horiz-adv-x="2574" arabic-form="final" 
d="M1358 563q0 -18 -45 -82q-53 -73 -90 -73l-37 22q-6 4 -49 23q-9 0 -51 -52.5t-64 -52.5q-21 0 -74 25.5t-53 42.5l57 73q60 76 74 76q4 0 48 -25.5t59 -27.5q8 0 61 60.5t66 62.5l26 -14q14 -5 23 -13q49 -26 49 -45zM2081 219q180 70 254 158l18 -19l21 -16l57 -39
q59 -41 137 -41h55v-176h-53q-88 0 -151 53l-111 115l-27 -31l-59 -57q-96 -74 -209 -111l-67 -22l-72 -23l-168 -37q-12 -2 -109 -18q-20 -4 -79 -12l-215 -23l-150 -4l-178 -10h-383q-307 0 -520 94q-129 57 -148 193l-6 45l-2 51l49 -31l39 -22l35 -15q104 -43 223 -65
l141 -27q58 -10 191 -14l156 -4l202 -13l262 -4l205 8q35 2 80 7l96 10q131 14 265 39q14 4 47 10q82 16 121 31q6 2 53 20z" />
    <glyph glyph-name="afii62765" unicode="&#x62a;" horiz-adv-x="448" arabic-form="initial" 
d="M401 829q0 -30 -53 -91.5t-82 -61.5l-39 20q-22 13 -49 23q-6 0 -49 -52.5t-66 -52.5q-20 0 -72 26t-52 42l57 76q57 76 74 76q6 0 50 -28t56 -28q6 0 60.5 61.5t64.5 61.5l29 -12q6 -4 20 -15q51 -28 51 -45zM39 86h-39v176h74l10 2h10q8 0 21 4q43 8 61 37l8 49l9 56
q6 45 59 131q43 69 82 112l4 -8l4 -14l-33 -99q0 -34 -26 -116l-31 -94q-21 -62 -86 -144q-76 -92 -127 -92z" />
    <glyph glyph-name="afii62766" unicode="&#x62a;" horiz-adv-x="448" arabic-form="medial" 
d="M457 750q0 -31 -52.5 -93.5t-82.5 -62.5l-39 20l-50 25q-4 0 -46 -53.5t-66 -53.5q-21 0 -74 26t-53 42l57 76q55 74 74 74q6 0 49 -26t57 -26q9 0 63 59.5t64 59.5l27 -10l23 -14q47 -31 49 -43zM233 172q-53 -51 -114 -68q-13 -4 -80 -16l-39 -2v176h49q94 0 119 10
q33 15 76 86l35 58l32 47l25 22l8 -6q-53 -145 -53 -182v-23q0 -12 155 -12h41v-176h-38q-95 0 -148 33l-27 16l-24 17z" />
    <glyph glyph-name="afii62770" unicode="&#x62b;" horiz-adv-x="2574" arabic-form="final" 
d="M1237 756q0 -23 -52 -93.5t-71 -70.5q-20 0 -60 23.5t-40 41.5l16 25l43 59l39 60q14 20 21 22zM1372 528q0 -18 -47 -82q-53 -73 -88 -73l-39 20q-14 8 -47 25q-8 0 -49 -52.5t-68 -52.5q-20 0 -72.5 26t-52.5 42l58 74q59 75 73 75q7 0 53 -25.5t54 -27.5
q8 0 61.5 60.5t65.5 60.5l26 -12l23 -13q49 -26 49 -45zM2081 219q180 70 254 158l18 -19l21 -16l57 -39q59 -41 137 -41h55v-176h-53q-88 0 -151 53l-111 115l-27 -31l-59 -57q-96 -74 -209 -111l-67 -22l-72 -23l-168 -37q-12 -2 -109 -18q-20 -4 -79 -12l-215 -23
l-150 -4l-178 -10h-383q-307 0 -520 94q-129 57 -148 193l-6 45l-2 51l49 -31l39 -22l35 -15l106 -37l121 -30l140 -27q69 -12 188 -16l156 -5l188 -8l276 -4l205 8q35 2 80 7l96 10q131 14 265 39q14 4 47 10q82 16 121 31q6 2 53 20z" />
    <glyph glyph-name="afii62768" unicode="&#x62b;" horiz-adv-x="403" arabic-form="initial" 
d="M266 981q0 -18 -48 -82.5t-64 -64.5q-19 0 -53.5 21.5t-34.5 37.5l24 35l27 39l37 55q12 18 18 20l45 -28l37 -25q6 -2 12 -8zM367 817q0 -29 -48.5 -84t-74.5 -55l-35 18q-35 19 -45 21q-6 0 -44 -47t-59 -47q-16 0 -63 23.5t-51 35.5l53 68q53 67 66 67q6 0 46 -23.5
t50 -23.5q8 0 56 55.5t56 55.5l21 -11q12 -6 14 -8l10 -6q48 -22 48 -39zM39 86h-39v176h74l10 2h10q8 0 21 4q43 8 61 37l8 49l9 56q6 45 59 131q43 69 82 112l4 -8l4 -14l-33 -99q0 -34 -26 -116l-31 -94q-21 -62 -86 -144q-76 -92 -127 -92z" />
    <glyph glyph-name="afii62769" unicode="&#x62b;" horiz-adv-x="448" arabic-form="medial" 
d="M305 971q0 -23 -53 -93.5t-72 -70.5q-20 0 -58 23.5t-38 41.5l96 144q13 18 21 22l92 -57zM440 743q0 -18 -47 -81q-53 -74 -88 -74l-39 22q-20 13 -49 23q-4 0 -47 -53.5t-68 -53.5q-20 0 -73.5 26t-53.5 42l60 76q59 75 74 75q6 0 50 -26.5t54 -26.5t64.5 60.5
t64.5 60.5l27 -12q6 -4 20 -15q51 -28 51 -43zM233 172q-55 -53 -114 -68l-51 -12q-13 -2 -33 -4l-35 -2v176h49q94 0 119 10q33 15 76 86l35 58l32 47l25 22l8 -6q-53 -145 -53 -182v-23q0 -12 155 -12h68v-176h-65q-95 0 -148 33l-27 16l-24 17z" />
    <glyph glyph-name="afii62773" unicode="&#x62c;" horiz-adv-x="897" arabic-form="final" 
d="M926 86h-43l-72 4h-78l-82 -2l-33 -2q-12 -2 -38 -6q-66 -10 -97 -41l277 -57q94 -21 94 -48q0 -40 -96 -94l-127 -69q-76 -43 -125 -84l-94 -82q-246 -213 -246 -457q0 -72 51 -174q59 -117 123 -117l25 -18q24 -19 81 -33l33 -8l51 -8l76 -4q39 -3 99 10
q286 59 505 383l47 55q5 6 25 16q10 0 10 -22q0 -23 -6 -37l-4 4l-4 -6l-18 -27l-31 -51l-39 -57q-21 -25 -80 -107l-53 -73l-35 -45q-139 -181 -381 -261q-86 -28 -158 -28q-288 0 -407 221q-49 92 -49 180q0 178 61 348q66 187 184 299l140 133q18 17 73 50q125 71 125 84
q0 47 -198 47q-19 0 -43 -11l-25 -10q-14 0 -35 10q-10 9 -10 17l2 8l12 16l37 54q174 252 430 272q51 4 99 4h47v-176zM799 -635q0 -20 -39 -53l-96 -68q-93 111 -121 111v10l139 131l37 -28l31 -27q49 -43 49 -76z" />
    <glyph glyph-name="afii62771" unicode="&#x62c;" horiz-adv-x="702" arabic-form="initial" 
d="M0 262h16q138 0 246 64q86 51 191 168q-41 32 -111 59t-121 27l-74 -39h-14l-4 14q0 25 49 72q60 57 127 57q47 0 98 -22l103 -46q43 -18 84 -22l24 -2l27 2l33 10l8 -10q6 -4 8 -16v-3q-6 -24 -45 -59l-88 -55l-47 -45l-33 -27l-71 -59l-121 -105q-162 -139 -271 -139
h-14v176zM623 152q0 -21 -62 -70l-72 -47q-94 108 -122 108v9l139 133q117 -88 117 -133z" />
    <glyph glyph-name="afii62772" unicode="&#x62c;" horiz-adv-x="755" arabic-form="medial" 
d="M479 428q0 12 -49 29.5t-68 17.5q-61 0 -116 -63l-99 -148l13 -2h18l23 2q61 6 164 58q114 59 114 106zM549 6q0 -16 -39 -51l-96 -68q-92 111 -123 111v8l139 131l37 -24l33 -31q49 -45 49 -76zM0 86v176h86l25 47l90 150q18 33 79.5 84t90.5 51q53 0 80 -4l16 -6
q61 -23 88 -27l31 -4l28 -2q17 -2 40.5 5t33.5 7q12 -2 14 -6q11 -2 15 -12q0 -10 -39 -43l-53 -45l-29 -29q-55 -55 -80 -98q0 -37 98 -56q66 -12 129 -12h43v-176h-32q-312 0 -312 160q-114 -137 -276 -152l-23 -2l-32 -4z" />
    <glyph glyph-name="afii62776" unicode="&#x62d;" horiz-adv-x="897" arabic-form="final" 
d="M926 86h-43l-72 4h-78l-82 -2l-33 -2q-12 -2 -38 -6q-66 -10 -97 -41l277 -57q94 -21 94 -48q0 -40 -96 -94l-127 -69q-76 -43 -125 -84l-94 -82q-246 -213 -246 -457q0 -72 51 -174q59 -117 123 -117l25 -18q24 -19 81 -33l33 -8l51 -8l76 -4q39 -3 99 10
q286 59 505 383l47 55q5 6 25 16q10 0 10 -22q0 -23 -6 -37l-4 4l-4 -6l-18 -27l-31 -51l-39 -57q-21 -25 -80 -107l-53 -73l-35 -45q-139 -181 -381 -261q-86 -28 -158 -28q-288 0 -407 221q-49 92 -49 180q0 178 61 348q66 187 184 299l140 133q18 17 73 50q125 71 125 84
q0 47 -198 47q-19 0 -43 -11l-25 -10q-14 0 -35 10q-10 9 -10 17l2 8l12 16l37 54q174 252 430 272q51 4 99 4h47v-176z" />
    <glyph glyph-name="afii62774" unicode="&#x62d;" horiz-adv-x="702" arabic-form="initial" 
d="M0 262h16q138 0 246 64q86 51 191 168q-41 32 -111 59t-121 27l-74 -39h-14l-4 14q0 25 49 72q60 57 127 57q47 0 98 -22l103 -46q43 -18 84 -22l24 -2l27 2l33 10l8 -10q6 -4 8 -16v-3q-6 -24 -45 -59l-88 -55l-47 -45l-33 -27l-71 -59l-121 -105q-162 -139 -271 -139
h-14v176z" />
    <glyph glyph-name="afii62775" unicode="&#x62d;" horiz-adv-x="745" arabic-form="medial" 
d="M479 428q0 12 -49 29.5t-68 17.5q-61 0 -116 -63l-99 -148l13 -2h18l23 2q61 6 164 58q114 59 114 106zM0 86v176h86l25 47l90 150q18 33 79.5 84t90.5 51q53 0 80 -4l16 -6q61 -23 88 -27l31 -4l28 -2q17 -2 40.5 5t33.5 7q12 -2 14 -6q11 -2 15 -12q0 -10 -39 -43
l-53 -45l-29 -29q-55 -55 -80 -98q0 -37 98 -56q66 -12 129 -12h43v-176h-32q-312 0 -312 160q-114 -137 -276 -152l-23 -2l-32 -4z" />
    <glyph glyph-name="afii62779" unicode="&#x62e;" horiz-adv-x="897" arabic-form="final" 
d="M926 86h-43l-72 4h-78l-82 -2l-33 -2q-12 -2 -38 -6q-66 -10 -97 -41l277 -57q94 -21 94 -48q0 -40 -96 -94l-127 -69q-76 -43 -125 -84l-94 -82q-246 -213 -246 -457q0 -72 51 -174q59 -117 123 -117l25 -18q24 -19 81 -33l33 -8l51 -8l76 -4q39 -3 99 10
q286 59 505 383l47 55q5 6 25 16q10 0 10 -22q0 -23 -6 -37l-4 4l-4 -6l-18 -27l-31 -51l-39 -57q-21 -25 -80 -107l-53 -73l-35 -45q-139 -181 -381 -261q-86 -28 -158 -28q-288 0 -407 221q-49 92 -49 180q0 178 61 348q66 187 184 299l140 133q18 17 73 50q125 71 125 84
q0 47 -198 47q-19 0 -43 -11l-25 -10q-14 0 -35 10q-10 9 -10 17l2 8l12 16l37 54q174 252 430 272q51 4 99 4h47v-176zM635 494q0 -21 -39 -54l-94 -65q-101 108 -123 108v11l139 133q117 -90 117 -133z" />
    <glyph glyph-name="afii62777" unicode="&#x62e;" horiz-adv-x="702" arabic-form="initial" 
d="M0 262h16q138 0 246 64q86 51 191 168q-41 32 -111 59t-121 27l-74 -39h-14l-4 14q0 25 49 72q60 57 127 57q47 0 98 -22l103 -46q43 -18 84 -22l24 -2l27 2l33 10l8 -10q6 -4 8 -16v-3q-6 -24 -45 -59l-88 -55l-47 -45l-33 -27l-71 -59l-121 -105q-162 -139 -271 -139
h-14v176zM387 864q0 -14 -39 -53l-94 -66q-96 109 -123 109v10l139 131q117 -77 117 -131z" />
    <glyph glyph-name="afii62778" unicode="&#x62e;" horiz-adv-x="745" arabic-form="medial" 
d="M479 428q0 12 -49 29.5t-68 17.5q-61 0 -116 -63l-99 -148l13 -2h18l23 2q61 6 164 58q114 59 114 106zM457 852q0 -23 -33 -49l-78 -64q-92 111 -123 111v8l139 131q25 -14 60 -63t35 -74zM0 86v176h86l25 47l90 150q18 33 79.5 84t90.5 51q53 0 80 -4l16 -6
q61 -23 88 -27l31 -4l28 -2q17 -2 40.5 5t33.5 7q12 -2 14 -6q11 -2 15 -12q0 -10 -39 -43l-53 -45l-29 -29q-55 -55 -80 -98q0 -37 98 -56q66 -12 129 -12h43v-176h-32q-312 0 -312 160q-114 -137 -276 -152l-23 -2l-32 -4z" />
    <glyph glyph-name="afii62780" unicode="&#x62f;" horiz-adv-x="409" arabic-form="final" 
d="M440 86h-41q-131 0 -186 147q-12 -16 -23 -34l-18 -33l-18 -43q-15 -35 -156 -84l-47 -16q-53 -19 -64 -19l-8 2l-6 8q2 11 61 54l70 49l51 39q78 59 129 129q15 18 45 73l23 52l12 32q2 11 10 27q2 12 11 31q26 61 63 125l6 -17q0 -47 -16 -100l-35 -113q0 -51 23 -88
q26 -45 73 -45h41v-176z" />
    <glyph glyph-name="afii62781" unicode="&#x630;" horiz-adv-x="409" arabic-form="final" 
d="M567 930q0 -33 -65 -76l-76 -49q-104 117 -127 117v8l143 139q125 -92 125 -139zM440 86h-41q-131 0 -186 147q-12 -16 -23 -34l-18 -33l-18 -43q-15 -35 -156 -84l-47 -16q-53 -19 -64 -19l-8 2l-6 8q2 11 61 54l70 49l51 39q78 59 129 129q15 18 45 73l23 52l12 32
q2 11 10 27q2 12 11 31q26 61 63 125l6 -17q0 -47 -16 -100l-35 -113q0 -51 23 -88q26 -45 73 -45h41v-176z" />
    <glyph glyph-name="afii62782" unicode="&#x631;" horiz-adv-x="790" arabic-form="final" 
d="M356 -104l-69 -76l-76 -78l-74 -66q-131 -116 -252 -170q-47 -20 -63 -22l-66 -19q-57 -16 -75 -16h-3q-6 0 -8 4l-4 8q49 37 155.5 97.5t153.5 95.5q168 123 273 237l180 199q156 172 397 172v-176q-182 0 -262 -31q-94 -37 -207 -159z" />
    <glyph glyph-name="afii62783" unicode="&#x632;" horiz-adv-x="786" arabic-form="final" 
d="M672 436q0 -26 -41 -55l-101 -70l-43 47l-34 35q-33 33 -52 33v10l146 139q125 -83 125 -139zM-178 -516l-66 -19q-57 -16 -75 -16h-3q-6 0 -8 4l-4 8q8 9 107 62q250 139 475 368q22 25 110 127l23 27q68 80 108 123q91 94 285 94h51v-176h-127q-168 0 -342 -190
l-69 -76l-76 -78l-74 -66q-131 -116 -252 -170q-47 -20 -63 -22z" />
    <glyph glyph-name="afii62786" unicode="&#x633;" horiz-adv-x="1558" arabic-form="final" 
d="M1579 86h-31q-65 0 -123 31l-86 63l-51 -49q-10 -10 -53 -33l-25 -4l-22 -4q-19 0 -35 6l-29 10q-6 0 -47 -29.5t-53 -33.5l-43 -12l-39 -4h-20q-29 0 -41 -37q-4 -6 -13 -60q0 -6 -8 -30l-12 -37l-10 -27q-31 -82 -64 -135q-215 -360 -489 -360q-152 0 -232 104
q-71 92 -71 250v18q4 27 16 86q2 4 6 23l31 117l22 61l19 45q45 111 74 111q8 0 12 -6l4 -19q0 -20 -23 -82l-43 -119q-20 -57 -20 -104q0 -125 86 -188q76 -58 205 -58q78 0 170 43q274 129 274 445q0 137 37 137q6 -4 43 -17l43 -14q80 0 115 14q51 21 98 82l20 -20
q31 -31 66 -31q39 0 87 52.5t46 52.5l35 -21l43 -20q43 -21 98 -21h33v-176z" />
    <glyph glyph-name="afii62784" unicode="&#x633;" horiz-adv-x="768" arabic-form="initial" 
d="M39 86h-39v176q125 0 188 27l25 10q10 4 20 12l29 23q43 26 78 26l16 -2q21 -2 43 -14l43 -22h9q28 0 55 26l72 72q8 -2 22 -21q8 -16 39 -22h10q29 0 67 54t52 54q12 0 18 -6v-12q-8 -39 -79.5 -123t-106.5 -90h-16l-19 8l-47 17l-37 -27l-55 -39q-33 -23 -66 -23h-14
q-22 5 -37 19l-24 10h-13q-32 4 -77 -33l-48 -39l-55 -36q-37 -25 -53 -25z" />
    <glyph glyph-name="afii62785" unicode="&#x633;" horiz-adv-x="839" arabic-form="medial" 
d="M866 262v-176h-30q-58 0 -97 43l-77 88h-9l-57 -43q-57 -43 -94 -43q-13 0 -35 14l-43 27q-10 0 -82 -35q-39 -18 -72 -18h-14l-18 6q-17 6 -31 22.5t-25 22.5l-20 4q-17 0 -67 -44t-72 -44h-23v176h57q54 0 93 12l79 25q50 0 93 -37q14 -12 36 -29l19 -4q20 0 61 25
l74 45q43 -57 76 -57q20 0 63 43t56 43l10 -2q6 -4 8 -23l6 -24q0 -9 25 -13l26 -4h84z" />
    <glyph glyph-name="afii62789" unicode="&#x634;" horiz-adv-x="1556" arabic-form="final" 
d="M1155 838q0 -25 -51 -94.5t-72 -69.5q-18 0 -58 24.5t-40 40.5l16 25l82 119q15 20 21 22l67 -41q35 -20 35 -26zM1290 610q0 -20 -45 -82q-51 -71 -90 -71l-37 20q-33 19 -49 23q-6 0 -49 -52.5t-66 -52.5q-20 0 -73.5 27t-53.5 41l60 76q59 75 71 75q9 0 54 -25.5
t55 -29.5q8 0 60.5 61.5t64.5 61.5l27 -12q14 -6 22 -15q47 -30 49 -45zM1593 86h-45q-65 0 -123 31l-86 63l-51 -49q-10 -10 -53 -33l-25 -4l-22 -4q-19 0 -35 6l-29 10q-6 0 -47 -29.5t-53 -33.5l-43 -12l-39 -4h-20q-29 0 -41 -37q-4 -6 -13 -60q0 -6 -8 -30l-12 -37
l-10 -27q-31 -82 -64 -135q-215 -360 -489 -360q-152 0 -232 104q-71 92 -71 250v18q4 27 16 86q2 4 6 23l31 117l22 61l19 45q45 111 74 111q8 0 12 -6l4 -19q0 -20 -23 -82l-43 -119q-20 -57 -20 -104q0 -125 86 -188q76 -58 205 -58q78 0 170 43q274 129 274 445
q0 137 37 137q6 -4 43 -17l43 -14q80 0 115 14q51 21 98 82l20 -20q31 -31 66 -31q39 0 87 52.5t46 52.5l35 -21l43 -20q43 -21 98 -21h47v-176z" />
    <glyph glyph-name="afii62787" unicode="&#x634;" horiz-adv-x="768" arabic-form="initial" 
d="M610 958q0 -22 -59 -102t-78 -80q-22 0 -64 26.5t-42 47.5l18 29l66 92l14 22q22 35 31 39l57 -35zM760 709q0 -35 -57.5 -103.5t-92.5 -68.5l-43 24q-43 25 -53 25q-27 -25 -70 -78q-30 -39 -57 -39q-22 0 -79.5 29.5t-57.5 46.5l63 82q60 78 80 84q8 0 56.5 -30
t62.5 -30q10 0 68.5 66.5t68.5 66.5l56 -26q55 -27 55 -49zM39 86h-39v176q125 0 188 27l25 10q10 4 20 12l29 23q43 26 78 26l16 -2q21 -2 43 -14l43 -22h9q28 0 55 26l72 72q8 -2 22 -21q8 -16 39 -22h10q29 0 67 54t52 54q12 0 18 -6v-12q-8 -39 -79.5 -123t-106.5 -90
h-16l-19 8l-47 17l-37 -27l-55 -39q-33 -23 -66 -23h-14q-22 5 -37 19l-24 10h-13q-32 4 -77 -33l-48 -39l-55 -36q-37 -25 -53 -25z" />
    <glyph glyph-name="afii62788" unicode="&#x634;" horiz-adv-x="839" arabic-form="medial" 
d="M815 588q-4 -17 -70 -58q-77 -49 -114 -49l-19 2l-30 39q-25 31 -39 43l-11 2q-10 0 -60 -32.5t-73 -32.5q-14 0 -41 20l-36 37q-41 41 -43 64l2 4l90 51q82 47 102 47q14 -2 48 -48t42 -50h6q9 0 29 8l55 29q76 38 82 38l6 -2l41 -47q33 -37 33 -59v-6zM866 262v-176
h-30q-58 0 -97 43l-77 88h-9l-57 -43q-57 -43 -94 -43q-13 0 -35 14l-43 27q-10 0 -82 -35q-39 -18 -72 -18h-14l-18 6q-17 6 -31 22.5t-25 22.5l-20 4q-17 0 -67 -44t-72 -44h-23v176h57q54 0 93 12l79 25q50 0 93 -37q14 -12 36 -29l19 -4q20 0 61 25l74 45q43 -57 76 -57
q20 0 63 43t56 43l10 -2q6 -4 8 -23l6 -24q0 -9 25 -13l26 -4h84zM725 799q-4 -17 -70 -66q-57 -43 -77 -43h-5l-24 25l-33 35q-29 30 -29 47v6l72 55l29 21l22 20q17 14 25 14l72 -88z" />
    <glyph glyph-name="afii62792" unicode="&#x635;" horiz-adv-x="1439" arabic-form="final" 
d="M1325 416q0 47 -76 47q-65 0 -159 -88l-33 -31l-39 -39v-18h47q57 0 152 37q108 43 108 92zM1477 262v-176h-43q-99 0 -164 18l-82 41l-19 -14l-65 -16l-31 -4h-33l-43 2l-30 2l-17 2q-8 0 -16 -21l-27 -94l-22 -63l-31 -72q-59 -139 -104 -193q-201 -239 -392 -264
q-16 -2 -41 -2q-137 0 -221 103q-78 94 -78 235q0 182 82 358q31 66 47 66q19 0 23 -27l-49 -143q-23 -66 -23 -104q0 -123 84 -191q78 -63 203 -63q109 0 209 62.5t160 158.5q104 170 100 252l-2 43l4 73q4 74 23 74l30 -10l27 -12l74 84q211 239 348 239q63 0 63 -100
q0 -29 -37 -113q-30 -69 -51 -94l-10 -12l-4 -11q14 -14 111 -14h47z" />
    <glyph glyph-name="afii62790" unicode="&#x635;" horiz-adv-x="860" arabic-form="initial" 
d="M735 455q0 14 -34.5 38.5t-53.5 28.5q-74 0 -158 -90l-30 -33l-33 -37v-12l16 -12l21 -4q51 0 155 37q117 41 117 84zM41 88l-41 -2v176h37q90 0 174 66q16 16 35 30q22 23 37 23l12 -2l57 -17q4 5 8 7q17 14 21 16l108 117l54 49l82 63q73 48 133 48q28 0 52 -25t24 -53
q0 -45 -30 -116t-63 -114q-149 -204 -313 -204q-66 0 -102 30l-84 70q-27 0 -56 -51q-59 -107 -145 -111z" />
    <glyph glyph-name="afii62791" unicode="&#x635;" horiz-adv-x="882" arabic-form="medial" 
d="M782 406q0 16 -29.5 43.5t-47.5 35.5h-19q-53 0 -119 -45l-51 -34q-20 -13 -51 -50l-2 -10q6 -12 10 -16l25 -6l37 -2h43l40 8q37 8 76 20q80 27 88 56zM514 127q-86 18 -149 63l-23 17l-78 63h-4q-22 0 -53 -43l-53 -73l-15 -17q-45 -51 -112 -51h-29v176h39q33 0 57 4
q17 0 27 2l24 8q45 15 84 50q60 67 88 67h5q10 0 36 -12l31 -14q10 0 33 18l67 57q11 11 56 41q16 13 61 43q121 80 203 80h12l21 -2q18 0 36.5 -26.5t18.5 -47.5v-12l-2 -18q0 -6 -4 -15l-12 -34q-50 -142 -201 -189h235v-176h-39q-161 0 -221 12z" />
    <glyph glyph-name="afii62795" unicode="&#x636;" horiz-adv-x="1439" arabic-form="final" 
d="M1122 670q0 -19 -43 -58l-98 -69q-98 114 -129 114v13l145 137q125 -86 125 -137zM1325 416q0 47 -76 47q-65 0 -159 -88l-33 -31l-39 -39v-18h47q57 0 152 37q108 43 108 92zM1479 262v-176h-45q-99 0 -164 18l-82 41l-19 -14l-65 -16l-31 -4h-33l-43 2l-30 2l-17 2
q-8 0 -16 -21l-27 -94l-22 -63l-31 -72q-59 -139 -104 -193q-201 -239 -392 -264q-16 -2 -41 -2q-137 0 -221 103q-78 94 -78 235q0 182 82 358q31 66 47 66q19 0 23 -27l-49 -143q-23 -66 -23 -104q0 -123 84 -191q78 -63 203 -63q109 0 209 62.5t160 158.5
q104 170 100 252l-2 43l4 73q4 74 23 74l30 -10l27 -12l74 84q211 239 348 239q63 0 63 -100q0 -29 -37 -113q-30 -69 -51 -94l-10 -12l-4 -11q14 -14 111 -14h49z" />
    <glyph glyph-name="afii62793" unicode="&#x636;" horiz-adv-x="860" arabic-form="initial" 
d="M592 791q0 -21 -41 -58l-100 -67l-41 47l-19 16l-16 19q-29 32 -53 32v11l145 139q31 -21 74 -64q51 -53 51 -75zM735 455q0 14 -34.5 38.5t-53.5 28.5q-74 0 -158 -90l-30 -33l-33 -37v-12l16 -12l21 -4q51 0 155 37q117 41 117 84zM41 88l-41 -2v176h37q90 0 174 66
q16 16 35 30q22 23 37 23l12 -2l57 -17q4 5 8 7q17 14 21 16l108 117l54 49l82 63q73 48 133 48q28 0 52 -25t24 -53q0 -45 -30 -116t-63 -114q-149 -204 -313 -204q-66 0 -102 30l-84 70q-27 0 -56 -51q-59 -107 -145 -111z" />
    <glyph glyph-name="afii62794" unicode="&#x636;" horiz-adv-x="874" arabic-form="medial" 
d="M614 737q0 -26 -41 -55l-100 -72q-98 117 -127 117v10l143 140q125 -89 125 -140zM782 406q0 16 -29.5 43.5t-47.5 35.5h-19q-53 0 -119 -45l-51 -34q-20 -13 -51 -50l-2 -10q6 -12 10 -16l25 -6l37 -2h43l40 8q37 8 76 20q80 27 88 56zM514 127q-86 18 -149 63l-23 17
l-78 63h-4q-22 0 -53 -43l-53 -73l-15 -17q-45 -51 -112 -51h-29v176h39q33 0 57 4q17 0 27 2l24 8q45 15 84 50q60 67 88 67h5q10 0 36 -12l31 -14q10 0 33 18l67 57q11 11 56 41q16 13 61 43q121 80 203 80h12l21 -2q18 0 36.5 -26.5t18.5 -47.5v-12l-2 -18q0 -6 -4 -15
l-12 -34q-50 -142 -201 -189h235v-176h-39q-161 0 -221 12z" />
    <glyph glyph-name="afii62798" unicode="&#x637;" horiz-adv-x="827" arabic-form="final" 
d="M864 86h-43q-59 0 -125 8l-131 17q-8 0 -10 -2q-29 -15 -98 -19l-84 -4l-90 -2q-172 -4 -191 31l4 18l140 25l30 43q66 71 172 221q31 63 31 217l8 49l6 137l6 54q7 47 31 106l17 39q10 27 32 70l41 82l13 -7l4 -8l-6 -41l-5 -35v-18l-43 -334q-4 -35 -22 -145l-21 -47
l-24 -66l12 -6l14 6l37 27q131 94 191 94q28 0 53 -17.5t25 -46.5q0 -57 -35 -131l-60 -127l7 -8q4 -2 18 -4h96v-176zM715 383q0 18 -33 35l-18 6l-11 2h-14q-90 0 -229 -168l-52 -61q105 28 199 69q158 66 158 117z" />
    <glyph glyph-name="afii62796" unicode="&#x637;" horiz-adv-x="524" arabic-form="initial" 
d="M428 436q0 21 -18 31l-21 8l-20 4q-39 0 -117 -82l-41 -43l-51 -55l22 -4q56 0 146 45q100 49 100 96zM211 440l35 37l51 51l49 43q62 54 123 54q86 0 86 -74v-25l-6 -18q-2 -14 -10 -39l-4 -8l-11 -27q-75 -198 -211 -274q-49 -27 -106 -51q-74 -23 -187 -23h-20v176h70
q47 0 69 123q15 78 15 154l4 34l6 50l4 118l20 62l31 71q29 68 49 101l8 2q19 0 19 -19q0 9 -21 -53l-8 -41l-10 -100q-4 -55 -20 -195q-13 -102 -25 -129z" />
    <glyph glyph-name="afii62797" unicode="&#x637;" horiz-adv-x="542" arabic-form="medial" 
d="M451 438q0 19 -22.5 33t-43.5 14q-31 0 -82 -47l-43 -39l-106 -110l24 -6q60 0 160 49q113 55 113 106zM567 86h-32q-101 0 -166 8l-131 17l-41 -13l-41 -8q-21 -4 -129 -4h-27v176h70q47 0 71 154q13 76 13 133l8 45l2 41l4 115q8 34 51 135q31 71 49 98l6 2
q17 0 21 -18q-8 -17 -21 -54l-8 -39l-10 -100q-4 -55 -16 -168q-15 -125 -29 -155l35 36q139 148 223 148q86 0 86 -76q0 -106 -125 -276l14 -13l39 -6l54 -2h30v-176z" />
    <glyph glyph-name="afii62801" unicode="&#x638;" horiz-adv-x="827" arabic-form="final" 
d="M858 86h-37q-59 0 -125 8l-131 17q-8 0 -10 -2q-29 -15 -98 -19l-84 -4l-90 -2q-172 -4 -191 31l4 18l140 25l30 43q66 71 172 221q31 63 31 217l8 49l6 137l6 54q7 47 31 106l17 39q10 27 32 70l41 82l13 -7l4 -8l-6 -41l-5 -35v-18l-43 -334q-4 -35 -22 -145l-21 -47
l-24 -66l12 -6l14 6l37 27q131 94 191 94q28 0 53 -17.5t25 -46.5q0 -57 -35 -131l-60 -127l7 -8q4 -2 20 -4h88v-176zM715 383q0 18 -33 35l-18 6l-11 2h-14q-90 0 -229 -168l-52 -61q105 28 199 69q158 66 158 117zM813 762q0 -14 -47 -53l-55 -37q-72 84 -95 84v6
l103 108l26 -20l27 -27q41 -41 41 -61z" />
    <glyph glyph-name="afii62799" unicode="&#x638;" horiz-adv-x="524" arabic-form="initial" 
d="M428 436q0 21 -18 31l-21 8l-20 4q-39 0 -117 -82l-41 -43l-51 -55l22 -4q56 0 146 45q100 49 100 96zM211 440l35 37l51 51l49 43q62 54 123 54q86 0 86 -74v-25l-6 -18q-2 -14 -10 -39l-4 -8l-11 -27q-75 -198 -211 -274q-49 -27 -106 -51q-74 -23 -187 -23h-20v176h70
q47 0 69 123q15 78 15 154l4 34l6 50l4 118l20 62l31 71q29 68 49 101l8 2q19 0 19 -19q0 9 -21 -53l-8 -41l-10 -100q-4 -55 -20 -195q-13 -102 -25 -129zM487 770q0 -14 -28 -41l-74 -51l-31 37l-24 22q-27 25 -39 25v8l102 107q94 -62 94 -107z" />
    <glyph glyph-name="afii62800" unicode="&#x638;" horiz-adv-x="542" arabic-form="medial" 
d="M451 438q0 19 -22.5 33t-43.5 14q-31 0 -82 -47l-43 -39l-106 -110l24 -6q60 0 160 49q113 55 113 106zM567 86h-32q-101 0 -166 8l-131 17l-41 -13l-41 -8q-21 -4 -129 -4h-27v176h70q47 0 71 154q13 76 13 133l8 45l2 41l4 115q8 34 51 135q31 71 49 98l6 2
q17 0 21 -18q-8 -17 -21 -54l-8 -39l-10 -100q-4 -55 -16 -168q-15 -125 -29 -155l35 36q139 148 223 148q86 0 86 -76q0 -106 -125 -276l14 -13l39 -6l54 -2h30v-176zM487 770q0 -14 -28 -41l-74 -51l-31 37l-24 22q-27 25 -39 25v8l102 107q94 -62 94 -107z" />
    <glyph glyph-name="afii62804" unicode="&#x639;" horiz-adv-x="724" arabic-form="final" 
d="M752 86h-37q-101 0 -164 61l-94 134q-74 0 -193 -170l-43 -62q-37 -53 -61 -135l-25 -84l-6 -29l-2 -28q-10 -154 117 -268.5t282 -114.5q258 0 494 219q72 67 121 133l112 152h17l4 -17q0 -33 -100 -194q-134 -213 -297 -342q-201 -158 -416 -158q-326 0 -422 287
q-29 86 -29 168q0 108 45 221l21 51l22 51l27 53l31 52q92 153 184 239q57 53 57 70q-10 37 -92 66.5t-82 25.5q10 57 99 96q75 35 141 35q180 0 180 -96q0 -49 -33 -84l-67 -74q0 -82 174 -82h35v-176z" />
    <glyph glyph-name="afii62802" unicode="&#x639;" horiz-adv-x="688" arabic-form="initial" 
d="M-23 262h39q47 0 103 19q63 20 86 51l-15 10l-45 37q-61 51 -61 61q0 23 29 58l47 57l86 92q33 37 94 82q76 57 106 57q27 0 63 -27.5t36 -53.5q0 -33 -33 -33q-10 0 -31 8l-37 14q-24 0 -88 -37q-75 -43 -75 -71q38 -64 116 -64q80 0 144 41l121 111l18 -2v-17l-47 -131
q-2 -6 -8 -20l-23 -6q-31 -9 -117 -70l-143 -129q-238 -213 -332 -213h-33v176z" />
    <glyph glyph-name="afii62803" unicode="&#x639;" horiz-adv-x="397" arabic-form="medial" 
d="M184 317q-30 101 -157 101v20q65 101 188 101q55 0 107 -17q71 -22 71 -63q0 -35 -49 -97l-49 -61q0 -18 24 -31l31 -6l43 -2h31v-176h-33q-80 0 -125 72l-18 28l-23 43l-78 -92q-57 -51 -118 -51h-52v176h52q155 0 155 55z" />
    <glyph glyph-name="afii62807" unicode="&#x63a;" horiz-adv-x="724" arabic-form="final" 
d="M752 86h-37q-101 0 -164 61l-94 134q-74 0 -193 -170l-43 -62q-37 -53 -61 -135l-25 -84l-6 -29l-2 -28q-10 -154 117 -268.5t282 -114.5q258 0 494 219q72 67 121 133l112 152h17l4 -17q0 -33 -100 -194q-134 -213 -297 -342q-201 -158 -416 -158q-326 0 -422 287
q-29 86 -29 168q0 108 45 221l21 51l22 51l27 53l31 52q92 153 184 239q57 53 57 70q-10 37 -92 66.5t-82 25.5q10 57 99 96q75 35 141 35q180 0 180 -96q0 -49 -33 -84l-67 -74q0 -82 174 -82h35v-176zM539 817q0 -24 -41 -53l-101 -72l-59 66l-19 18q-32 33 -51 33v8
l146 141q37 -24 53 -40l20 -21q52 -41 52 -80z" />
    <glyph glyph-name="afii62805" unicode="&#x63a;" horiz-adv-x="688" arabic-form="initial" 
d="M526 975q0 -31 -67 -76l-76 -51q-100 119 -133 119v8l151 143l37 -31q8 -8 35 -30l23 -27l18 -20q10 -17 12 -35zM-23 262h39q47 0 103 19q63 20 86 51l-15 10l-45 37q-61 51 -61 61q0 23 29 58l47 57l86 92q33 37 94 82q76 57 106 57q27 0 63 -27.5t36 -53.5
q0 -33 -33 -33q-10 0 -31 8l-37 14q-24 0 -88 -37q-75 -43 -75 -71q38 -64 116 -64q80 0 144 41l121 111l18 -2v-17l-47 -131q-2 -6 -8 -20l-23 -6q-31 -9 -117 -70l-143 -129q-238 -213 -332 -213h-33v176z" />
    <glyph glyph-name="afii62806" unicode="&#x63a;" horiz-adv-x="385" arabic-form="medial" 
d="M330 731q0 -24 -43 -55l-101 -70l-41 47l-34 35q-35 35 -52 35v8l146 139q125 -84 125 -139zM184 317q-30 101 -157 101v20q65 101 188 101q55 0 107 -17q71 -22 71 -63q0 -35 -49 -97l-49 -61q0 -18 24 -31l31 -6l43 -2h31v-176h-33q-80 0 -125 72l-18 28l-23 43
l-78 -92q-57 -51 -118 -51h-52v176h52q155 0 155 55z" />
    <glyph glyph-name="afii62810" unicode="&#x641;" horiz-adv-x="2801" arabic-form="final" 
d="M2681 389q0 31 -25.5 58.5t-56.5 27.5q-29 0 -60.5 -31.5t-31.5 -60.5q0 -33 28.5 -53.5t63.5 -20.5q18 0 50 30t32 50zM2726 813q0 -29 -66 -74l-75 -51l-39 45l-35 39q-29 33 -55 33v8l147 141q123 -84 123 -141zM1620 -92l-272 -6q-277 -6 -539 30q-408 58 -475 150
q-53 72 -53 133l2 16v13l-2 16q79 -47 297 -94q360 -80 985 -80h43l217 8l131 17q264 32 401 94l55 24q19 11 19 33v37l4 23q2 12 12 47q80 221 185 221q47 0 78.5 -36t31.5 -83q0 -63 -35 -133q-10 -21 -32 -57q0 -19 20 -19h150v-176h-56q-135 0 -200 70l-17 24l-125 -74
q-133 -77 -442 -141q-131 -26 -383 -57z" />
    <glyph glyph-name="afii62808" unicode="&#x641;" horiz-adv-x="335" arabic-form="initial" 
d="M-23 86v176h72q72 0 135 33q78 39 78 104q0 31 -33 31h-16l-12 -2l-47 -8q-97 0 -97 100q0 23 27 121q33 121 57 121q160 0 195 -230q2 -14 2 -32q0 -74 -42 -174.5t-93 -153.5q-82 -86 -178 -86h-48zM289 938q0 -31 -68 -76l-76 -51q-98 117 -127 117v10l146 139
q125 -86 125 -139z" />
    <glyph glyph-name="afii62809" unicode="&#x641;" horiz-adv-x="438" arabic-form="medial" 
d="M375 389q0 31 -24.5 58.5t-55.5 27.5t-62.5 -30.5t-31.5 -61.5t29.5 -52.5t62.5 -21.5q22 0 52 29t30 51zM475 262v-176h-35q-80 0 -135 37q-18 12 -39 35l-33 -19l-30 -16q-37 -21 -84 -27l-43 -6l-47 -4h-52v176h74q55 0 72 12l4 37l12 58q13 57 64 139q63 102 127 102
q49 0 77.5 -44t28.5 -95q0 -68 -35 -133l-22 -43l-12 -14l-5 -7l-4 -4l9 -4l14 -2l51 -2h43zM389 823q0 -32 -65 -75l-74 -50l-33 35q-76 80 -96 80v10l145 140q33 -23 72 -62q51 -51 51 -78z" />
    <glyph glyph-name="afii62813" unicode="&#x642;" horiz-adv-x="1030" arabic-form="final" 
d="M1065 86h-76l-28 -94l-23 -70q-121 -373 -397 -520q-52 -27 -107 -47q-8 -2 -51 -10l-49 -4q-146 -13 -238 104q-82 106 -82 256q0 86 13 135l14 58l22 75q9 19 48 111q20 51 47 88l18 35q10 20 23 20q30 0 30 -24q0 -4 -39 -101q-40 -106 -45 -121q-30 -96 -30 -174
q0 -108 106 -182q66 -45 160 -45q104 0 262 84q78 41 160 154q96 131 96 223q0 33 -25 35q-10 0 -22 -4l-16 -7q-111 0 -111 107q0 39 50 134t81 95q57 0 98 -41l76 -94h35v-176zM1008 715q0 -23 -45 -84q-54 -74 -91 -74l-36 23q-37 22 -50 22q-8 0 -50 -52t-64 -52
q-21 0 -74 25.5t-53 41.5l57 76q57 76 74 76q6 0 51 -25.5t55 -29.5q6 0 60.5 60t66.5 62l27 -14q8 -2 22 -12q50 -29 50 -43z" />
    <glyph glyph-name="afii62811" unicode="&#x642;" horiz-adv-x="409" arabic-form="initial" 
d="M418 979q0 -21 -47 -84q-56 -74 -88 -74l-39 23l-49 22q-7 0 -50 -52t-65 -52q-21 0 -74 25.5t-53 41.5l57 76q58 76 76 76q4 0 48 -27.5t59 -27.5q6 0 59 60.5t65 62.5q37 -17 50 -27q51 -29 51 -43zM-23 86v176h72q72 0 135 33q78 39 78 104q0 31 -33 31h-16l-12 -2
l-47 -8q-97 0 -97 100q0 23 27 121q33 121 57 121q160 0 195 -230q2 -14 2 -32q0 -74 -42 -174.5t-93 -153.5q-82 -86 -178 -86h-48z" />
    <glyph glyph-name="afii62812" unicode="&#x642;" horiz-adv-x="438" arabic-form="medial" 
d="M463 881q0 -19 -45 -82q-53 -74 -90 -74l-37 23q-31 18 -51 22q-9 0 -48.5 -52t-64.5 -52q-21 0 -74 25.5t-53 41.5l57 76q56 74 74 74q8 0 50 -24.5t57 -29.5q6 0 60 60.5t67 62.5l49 -26q49 -27 49 -45zM375 389q0 31 -24.5 58.5t-55.5 27.5t-62.5 -30.5t-31.5 -61.5
t29.5 -52.5t62.5 -21.5q22 0 52 29t30 51zM475 262v-176h-35q-80 0 -135 37q-18 12 -39 35l-33 -19l-30 -16q-37 -21 -84 -27l-43 -6l-47 -4h-52v176h74q55 0 72 12l4 37l12 58q13 57 64 139q63 102 127 102q49 0 77.5 -44t28.5 -95q0 -68 -35 -133l-22 -43l-12 -14l-5 -7
l-4 -4l9 -4l14 -2l51 -2h43z" />
    <glyph glyph-name="afii62816" unicode="&#x643;" horiz-adv-x="1443" arabic-form="final" 
d="M1008 793q0 -31 -43 -48q-78 -28 -131 -83l-74 -56q-94 -69 -94 -98q0 -6 34.5 -20.5t34.5 -28.5q0 -39 -61.5 -92.5t-102.5 -53.5h-4l-6 4l-6 13q16 12 51 28q51 25 51 43q0 9 -27.5 23t-27.5 29q0 67 168 209q186 155 217 155q17 0 21 -24zM1481 86h-39
q-123 0 -158 150q-14 63 -18 73l-66 -76q-141 -163 -338 -210l-102 -25l-98 -18q-82 -17 -125 -19l-58 -4h-57q-150 0 -199 6q-127 17 -170 80q-35 51 -35 150v26l2 31l7 49q12 107 22 107q14 0 25 -13l4 -12l2 -19l-2 -38l-4 -43q4 -33 20 -60q12 -14 74 -51
q29 -16 106 -33l31 -6l51 -4l90 -4q162 -8 414 61q64 17 137 45l33 13l94 41l31 18q84 49 105 88q6 12 12 74l6 67l4 132q2 96 43 200q43 113 107 172l30 29l80 63q60 48 111 74l198 103q7 2 39 16l27 12l86 51l76 50l75 55l70 49l12 -4l7 -4q2 -25 -29 -66l-21 -26l-26 -27
l-66 -55q-73 -62 -223 -144l-260 -141l-154 -88l-55 -43q-31 -25 -35 -90l-20 -434q-6 -152 88 -152h39v-176z" />
    <glyph glyph-name="afii57410" unicode="&#x643;" horiz-adv-x="350" arabic-form="initial" 
d="M176 453l10 114l17 140l10 73l4 21q16 84 88 200l43 35q29 25 101 80l65 45l57 35l199 102q68 23 152 80l57 39l94 66l70 51l18 -10q0 -115 -366 -318l-412 -227l-51 -45q-29 -25 -47 -98l-2 -68l-9 -123q0 -29 -8 -110l-18 -132q-21 -149 -49 -208q-54 -109 -168 -109
h-51v176h98q98 0 98 191z" />
    <glyph glyph-name="afii62815" unicode="&#x643;" horiz-adv-x="534" arabic-form="medial" 
d="M1067 1507q0 -69 -170 -211l-61 -51q-60 -49 -109 -80l-176 -108l-94 -74q-29 -22 -49 -43q-5 -8 -17 -86l-12 -80l-10 -92q0 -33 -5.5 -99.5t-5.5 -99.5v-34l4 -54q5 -59 55 -96t111 -37h54v-176h-54q-84 0 -150.5 62.5t-72.5 148.5l-6 74l-10 8l-10 4l-13 -18l-33 -60
q-24 -45 -83 -141q-62 -78 -105 -78h-72v176h72q68 0 158 113q35 43 61 94q2 8 19 57l4 35l4 45l2 86l2 35l6 51q21 172 207 344q102 97 188 133l74 43l64 39l45 33l55 41l125 102z" />
    <glyph glyph-name="afii62819" unicode="&#x644;" horiz-adv-x="985" arabic-form="final" 
d="M850 119q-16 -142 -31 -201l-26 -115l-21 -59l-24 -61q-52 -127 -107 -197l-33 -41l-37 -39q-82 -86 -215 -129q-51 -16 -84 -16q-116 0 -192 102q-66 92 -66 215l9 78q18 168 102 283l18 36q21 39 33 39q8 0 8 -22q-88 -207 -88 -289q0 -100 66.5 -160.5t169.5 -60.5
q112 0 207 53q202 156 211 344l34 719q9 184 78 285q23 32 29 35v-44q-6 -22 -14 -122l-19 -211l-8 -166q-2 -45 40 -79t89 -34h43v-176h-41q-49 0 -96 16q-8 2 -35 17z" />
    <glyph glyph-name="afii62817" unicode="&#x644;" horiz-adv-x="350" arabic-form="initial" 
d="M45 86l-74 4v172h74q150 0 201 148q30 88 30 272q0 129 48 268q38 115 75 156l11 -8q-13 -39 -29 -166q-8 -66 -23 -217l-14 -150q-10 -114 -96 -286q-98 -199 -203 -193z" />
    <glyph glyph-name="afii62818" unicode="&#x644;" horiz-adv-x="544" arabic-form="medial" 
d="M457 1196q-11 -6 -31 -154l-20 -141l-21 -158q-20 -157 -20 -286v-27l4 -55q2 -13 8 -21l29 -39q38 -53 129 -53h53v-176h-56q-176 0 -223 211l-8 74l-8 8l-10 4l-52 -94q-36 -64 -77 -125q-54 -78 -105 -78h-74v176h76q51 0 133 86q72 80 92 137q17 45 23 152l14 225
q4 56 9 101q6 30 18 63z" />
    <glyph glyph-name="afii62822" unicode="&#x645;" horiz-adv-x="604" arabic-form="final" 
d="M557 88l-6 -14q-12 -17 -23 -64l-26 -4q-13 8 -60 17l-49 4h-14q-133 0 -211 -162l-39 -105l-12 -43q-6 -22 -19 -98l-12 -78l-4 -43l-2 -45l-10 -108l-4 -56l-3 -51l-6 -135q-10 -29 -26 -35l-4 2q-9 6 -11 10l-6 17l6 121l2 100l15 231q12 199 61 291l17 47l22 54
l17 41l8 24q55 86 108 131l66 56q14 12 28 49q17 57 25 67l61 -28l58 -13l47 -4l63 -2l39 2l-2 -176h-94z" />
    <glyph glyph-name="afii62820" unicode="&#x645;" horiz-adv-x="487" arabic-form="initial" 
d="M496 426q0 -27 -44 -81t-69 -56l-10 4l-21 10q-10 8 -28 12l-17 4h-16q-60 0 -113 -81l-76 -117l-28 -23l-21 -8l-26 -4h-50v176h54q65 0 106 23q27 14 88 100q47 66 84 92l58 41l30 43q15 12 25 14l10 -16l29 -53q35 -66 35 -80z" />
    <glyph glyph-name="afii62821" unicode="&#x645;" horiz-adv-x="401" arabic-form="medial" 
d="M379 86q-29 0 -51 8l-23 8l-65 -67l-25 18q-10 10 -27 13l-38 12l-41 6l-64 2h-65v176h151l51 72l41 -39q80 -33 174 -33h49v-176h-67z" />
    <glyph glyph-name="afii62825" unicode="&#x646;" horiz-adv-x="1044" arabic-form="final" 
d="M592 68l-37 -74q-37 -74 -80 -74q-10 0 -49 20.5t-55 20.5l-4 12q0 23 45 97.5t61 74.5q21 0 70 -29.5t49 -47.5zM1079 86h-45q-43 0 -76 20q-4 3 -16 21l-6 -51q-8 -62 -57 -191l-25 -63l-18 -35l-17 -29q-10 -20 -37 -65q-202 -307 -452 -307q-125 0 -208 84t-83 208
v39l4 47q2 31 14 74l25 90l22 62q7 18 25 57q6 12 25 53q28 60 55 60l6 -8l8 -15q0 -22 -22 -69l-25 -52l-16 -45l-10 -37q-7 -16 -9 -32l-4 -37v-39q0 -121 86 -184q78 -58 203 -58q86 0 168 47q137 78 194 224l25 61l21 49l26 105q4 16 6 47l4 69q4 84 31 84l51 -6l45 -2
h82v-176z" />
    <glyph glyph-name="afii62823" unicode="&#x646;" horiz-adv-x="385" arabic-form="initial" 
d="M291 750q0 -25 -60 -68l-65 -47q-94 104 -117 104v11l131 124q111 -79 111 -124zM39 84l-59 2v176h94l10 2h10q8 0 21 4q43 8 61 37l8 49l9 56q6 45 59 131q43 69 82 112l4 -8l4 -14l-33 -99q0 -34 -26 -116l-31 -94q-19 -54 -90 -142q-80 -98 -123 -96z" />
    <glyph glyph-name="afii62824" unicode="&#x646;" horiz-adv-x="458" arabic-form="medial" 
d="M350 735q0 -18 -41 -55l-100 -70l-41 47l-18 19l-19 16q-37 33 -49 33v10l143 139q125 -88 125 -139zM233 172q-57 -55 -114 -68l-56 -12q-28 -6 -40 -6h-43v176h69q94 0 119 10q33 15 76 86l35 58l32 47l25 22l8 -6q-53 -145 -53 -182v-23q0 -12 155 -12h50v-176h-47
q-95 0 -148 33l-27 16l-24 17z" />
    <glyph glyph-name="afii62828" unicode="&#x647;" horiz-adv-x="436" arabic-form="final" 
d="M193 256l40 31q35 26 89 26q6 0 32.5 -18.5t31.5 -20.5t11 -6l19 -4l18 -2h35v-176h-35l-78 6q-22 10 -69 29l-29 6l-29 2q-90 6 -168 -137l-26 -49l-4 -2h-8q-7 0 -13 12l2 10l8 31l7 12l8 19l22 53l31 51q37 61 105 127z" />
    <glyph glyph-name="afii62827" unicode="&#x6be;" horiz-adv-x="811" arabic-form="final" 
d="M850 86h-41q-119 0 -143 -4q-88 -14 -140 -57q-80 -68 -137 -134l-129 -147h-14l-4 10l16 39l18 51l15 58l12 82q6 41 6 82q0 45 -20 86q-23 49 -64 49q-35 0 -96 -58q-35 -32 -90 -55l-19 -2h-49v176h82l29 4l29 8l26 11l90 41q54 24 74 24q82 0 113 -45q20 -37 20 -112
v-39l-2 -13l-6 -35l-14 -96l14 15l72 63l77 62l99 73l20 10l19 9q47 20 98 20h39v-176z" />
    <glyph glyph-name="afii62829" unicode="&#x648;" horiz-adv-x="350" arabic-form="final" 
d="M342 86q-10 -2 -37 -63q-10 -27 -33 -76q-34 -70 -67 -117l-27 -39l-10 -12q0 -23 -285 -129h-33l-2 6l-2 2l17 16l53 41l160 115q84 61 141 143q33 47 33 86l-137 27q-60 25 -60 66l27 71q78 209 127 209q47 0 82 -51l47 -119h45v-176h-39z" />
    <glyph glyph-name="afii62830" unicode="&#x649;" horiz-adv-x="1038" arabic-form="final" 
d="M1069 86h-45q-236 0 -236 -98q0 -13 77 -63t77 -101q0 -94 -49 -217q-8 -23 -39 -86q-84 -178 -168 -260q-45 -43 -131 -90q-111 -60 -193 -60q-161 0 -251 107q-84 98 -84 264q0 194 123 438q45 90 69 125l72 102l8 -6q23 -16 23 -22q-11 -21 -48 -82l-49 -82
q-4 -6 -20 -41l-19 -43q-49 -115 -49 -195l-4 -10q-10 -39 -10 -67q0 -56 33.5 -115t81.5 -94q69 -52 163 -52q250 0 400 207q53 74 53 113q0 18 -45 33q-61 20 -86 39q-45 34 -45 104q0 82 53 186q49 99 115 160q86 82 178 82h45v-176z" />
    <glyph glyph-name="afii62833" unicode="&#x64a;" horiz-adv-x="1038" arabic-form="final" 
d="M1069 86h-45q-236 0 -236 -98q0 -13 77 -63t77 -101q0 -94 -49 -217q-8 -23 -39 -86q-84 -178 -168 -260q-45 -43 -131 -90q-111 -60 -193 -60q-161 0 -251 107q-84 98 -84 264q0 194 123 438q45 90 69 125l72 102l8 -6q23 -16 23 -22q-11 -21 -48 -82l-49 -82
q-4 -6 -20 -41l-19 -43q-49 -115 -49 -195l-4 -10q-10 -39 -10 -67q0 -56 33.5 -115t81.5 -94q69 -52 163 -52q250 0 400 207q53 74 53 113q0 18 -45 33q-61 20 -86 39q-45 34 -45 104q0 82 53 186q49 99 115 160q86 82 178 82h45v-176zM672 -997q0 -18 -41 -73
q-47 -66 -80 -66l-35 19l-45 20q-4 0 -44 -46t-59 -46q-18 0 -65 22.5t-47 36.5l51 70q49 65 66 65q4 0 44 -23.5t52 -23.5q8 0 56 54.5t59 54.5l43 -23q45 -24 45 -41z" />
    <glyph glyph-name="afii62831" unicode="&#x64a;" horiz-adv-x="385" arabic-form="initial" 
d="M367 18q0 -18 -41 -73q-47 -66 -80 -66l-35 19l-45 20q-4 0 -44 -46t-59 -46q-18 0 -65 22.5t-47 36.5l51 70q49 65 66 65q4 0 44 -23.5t52 -23.5q8 0 56 54.5t59 54.5l43 -23q45 -24 45 -41zM39 86h-59v176h94l10 2h10q8 0 21 4q43 8 61 37l8 49l9 56q6 45 59 131
q43 69 82 112l4 -8l4 -14l-33 -99q0 -34 -26 -116l-31 -94q-21 -62 -86 -144q-76 -92 -127 -92z" />
    <glyph glyph-name="afii62832" unicode="&#x64a;" horiz-adv-x="456" arabic-form="medial" 
d="M463 -61q0 -23 -45 -84q-51 -72 -90 -72l-37 20l-51 23q-9 0 -62 -72q-24 -33 -51 -33q-21 0 -74 26t-53 42l57 76q56 74 74 74q6 0 50 -27t57 -27q8 0 62 60.5t65 60.5q24 -8 49 -24q49 -33 49 -43zM233 172q-57 -55 -114 -68l-56 -12q-28 -6 -40 -6h-43v176h69
q94 0 119 10q33 15 76 86l35 58l32 47l25 22l8 -6q-53 -145 -53 -182v-23q0 -12 155 -12h50v-176h-47q-95 0 -148 33l-27 16l-24 17z" />
    <glyph glyph-name="uni0676.fina" unicode="&#x676;" horiz-adv-x="350" 
d="M342 86q-10 -2 -37 -63q-10 -27 -33 -76q-34 -70 -67 -117l-27 -39l-10 -12q0 -23 -285 -129h-33l-2 6l-2 2l17 16l53 41l160 115q84 61 141 143q33 47 33 86l-137 27q-60 25 -60 66l27 71q78 209 127 209q47 0 82 -51l47 -119h45v-176h-39zM203 801q0 -23 -43 -68
q-23 -22 -23 -45q19 -33 37 -78q-59 -168 -143 -168l-21 4q-8 3 -8 13q0 2 36 34.5t36 61.5q0 14 -8 29l-23 41q0 34 50 115t81 81q29 0 29 -20z" />
    <glyph glyph-name="unifbda" unicode="&#x6c6;" horiz-adv-x="350" arabic-form="final" 
d="M342 86q-10 -2 -37 -63q-10 -27 -33 -76q-34 -70 -67 -117l-27 -39l-10 -12q0 -23 -285 -129h-33l-2 6l-2 2l17 16l53 41l160 115q84 61 141 143q33 47 33 86l-137 27q-60 25 -60 66l27 71q78 209 127 209q47 0 82 -51l47 -119h45v-176h-39zM316 654q-41 -16 -71 -77
q-22 -44 -32 -91h-12q-7 45 -35 90q-34 57 -80 72l5 52q36 -9 64 -53q23 -34 53 -119q46 153 108 174v-48z" />
    <glyph glyph-name="FY1" unicode="&#x6cc;" horiz-adv-x="385" arabic-form="initial" 
d="M367 18q0 -18 -41 -73q-47 -66 -80 -66l-35 19l-45 20q-4 0 -44 -46t-59 -46q-18 0 -65 22.5t-47 36.5l51 70q49 65 66 65q4 0 44 -23.5t52 -23.5q8 0 56 54.5t59 54.5l43 -23q45 -24 45 -41zM39 86h-59v176h94l10 2h10q8 0 21 4q43 8 61 37l8 49l9 56q6 45 59 131
q43 69 82 112l4 -8l4 -14l-33 -99q0 -34 -26 -116l-31 -94q-21 -62 -86 -144q-76 -92 -127 -92z" />
    <glyph glyph-name="FY2" unicode="&#x6cc;" horiz-adv-x="456" arabic-form="medial" 
d="M463 -61q0 -23 -45 -84q-51 -72 -90 -72l-37 20l-51 23q-9 0 -62 -72q-24 -33 -51 -33q-21 0 -74 26t-53 42l57 76q56 74 74 74q6 0 50 -27t57 -27q8 0 62 60.5t65 60.5q24 -8 49 -24q49 -33 49 -43zM233 172q-57 -55 -114 -68l-56 -12q-28 -6 -40 -6h-43v176h69
q94 0 119 10q33 15 76 86l35 58l32 47l25 22l8 -6q-53 -145 -53 -182v-23q0 -12 155 -12h50v-176h-47q-95 0 -148 33l-27 16l-24 17z" />
    <glyph glyph-name=".notdef" horiz-adv-x="1536" 
d="M256 0v1280h1024v-1280h-1024zM288 32h960v1216h-960v-1216z" />
    <glyph glyph-name=".null" horiz-adv-x="0" 
 />
    <glyph glyph-name="nonmarkingreturn" horiz-adv-x="640" 
 />
    <glyph glyph-name="space" unicode=" " horiz-adv-x="640" 
 />
    <glyph glyph-name="exclam" unicode="!" horiz-adv-x="454" 
d="M299 791v-25l-4 -64l-8 -40l-29 -164q-12 -70 -12 -164v-92h-33l-2 139l-2 39v18l-4 23l-6 49q0 16 -27 152q-14 73 -14 129q0 122 71 122q70 0 70 -122zM303 111q0 -25 -20 -50q-27 -18 -52 -18q-69 0 -69 68q0 73 69 73q72 0 72 -73z" />
    <glyph glyph-name="quotedbl" unicode="&#x22;" horiz-adv-x="319" 
d="M53 1024q-28 287 -22 340q4 41 37 41q38 0 43 -41q6 -59 -7 -170q-14 -127 -14 -170q0 -29 -22 -33q-15 4 -15 33zM231 1024q-26 297 -22 340q4 41 39 41q43 0 43 -68q0 -53 -11.5 -156.5t-11.5 -156.5q0 -29 -20 -33q-17 4 -17 33z" />
    <glyph glyph-name="numbersign" unicode="#" 
d="M103 -25l87 426h-169v149h199l74 363h-273v149h303l87 429h150l-87 -429h315l87 429h151l-87 -429h173v-149h-203l-75 -363h278v-149h-308l-87 -426h-150l86 426h-314l-87 -426h-150zM370 550h314l75 363h-315z" />
    <glyph glyph-name="dollar" unicode="$" 
d="M510 -211v180q-135 17 -219.5 60.5t-146 140.5t-71.5 237l181 34q21 -145 74 -213q76 -96 182 -107v573q-111 21 -227 86q-86 48 -132.5 133t-46.5 193q0 192 136 311q91 80 270 98v86h106v-86q157 -15 249 -92q118 -98 142 -269l-186 -28q-16 106 -66.5 162.5
t-138.5 74.5v-519q136 -34 180 -53q84 -37 137 -90t81.5 -126t28.5 -158q0 -187 -119 -312t-308 -134v-182h-106zM510 1365q-105 -16 -165.5 -84t-60.5 -161q0 -92 51.5 -154t174.5 -99v498zM616 121q105 13 173.5 91t68.5 193q0 98 -48.5 157.5t-193.5 106.5v-548z" />
    <glyph glyph-name="percent" unicode="%" horiz-adv-x="1821" 
d="M119 1114q0 157 79 267t229 110q138 0 228.5 -98.5t90.5 -289.5q0 -186 -91.5 -286.5t-225.5 -100.5q-133 0 -221.5 99t-88.5 299zM432 1367q-67 0 -111.5 -58t-44.5 -213q0 -141 45 -198.5t111 -57.5q68 0 112.5 58t44.5 212q0 142 -45 199.5t-112 57.5zM433 -54
l802 1545h146l-799 -1545h-149zM1067 344q0 158 79 267.5t230 109.5q138 0 228.5 -98.5t90.5 -289.5q0 -186 -91.5 -286.5t-226.5 -100.5q-133 0 -221.5 99.5t-88.5 298.5zM1381 597q-68 0 -112.5 -58t-44.5 -213q0 -140 45 -198t111 -58q69 0 113.5 58t44.5 212
q0 142 -45 199.5t-112 57.5z" />
    <glyph glyph-name="ampersand" unicode="&#x26;" horiz-adv-x="1366" 
d="M973 173q-89 -99 -194 -148.5t-227 -49.5q-225 0 -357 152q-107 124 -107 277q0 136 87.5 245.5t261.5 192.5q-99 114 -132 185t-33 137q0 132 103.5 229.5t260.5 97.5q150 0 245.5 -92t95.5 -221q0 -209 -277 -357l263 -335q45 88 70 204l187 -40q-48 -192 -130 -316
q101 -134 229 -225l-121 -143q-109 70 -225 207zM607 937q117 69 151.5 121t34.5 115q0 75 -47.5 122.5t-118.5 47.5q-73 0 -121.5 -47t-48.5 -115q0 -34 17.5 -71.5t52.5 -79.5zM860 315l-330 409q-146 -87 -197 -161.5t-51 -147.5q0 -89 71 -185t201 -96q81 0 167.5 50.5
t138.5 130.5z" />
    <glyph glyph-name="quotesingle" unicode="'" horiz-adv-x="231" 
d="M12 1004l115 296q16 29 41 31q43 4 76 4q24 0 24 -12q0 -8 -20 -39l-193 -293z" />
    <glyph glyph-name="parenleft" unicode="(" horiz-adv-x="544" 
d="M135 -360q-18 120 -20 206q-4 289 139 627q133 311 338 555h53q-475 -575 -479 -1194q0 -51 16 -194h-47z" />
    <glyph glyph-name="parenright" unicode=")" horiz-adv-x="544" 
d="M383 1028q16 -92 16 -207q0 -450 -280 -907q-103 -168 -195 -274h-51q471 573 471 1189q0 115 -10 199h49z" />
    <glyph glyph-name="asterisk" unicode="*" horiz-adv-x="1176" 
d="M602 801q3 -17 3 -33q0 -57 -23.5 -119.5t-34.5 -64.5q-10 -5 -38 62q-31 75 -31 132q0 15 2 32t19.5 31.5t41.5 14.5q49 0 61 -55zM451 547q-11 -5 -101 36q-98 44 -121 79q-9 14 -9 30q0 29 24.5 52.5t61.5 23.5q13 0 20 -2q30 -8 82.5 -109.5t42.5 -109.5zM870 645
q-43 -29 -129 -66.5t-94 -31.5q16 39 32 79q45 81 83 124q13 12 34 12q31 0 61 -27t30 -56q0 -20 -17 -34zM551 530q34 0 54 -21t20 -48t-21 -45.5t-63 -18.5q-32 0 -48 18t-16 44q0 28 20.5 49.5t53.5 21.5zM414 459q3 -11 -89 -36.5t-141 -25.5q-27 4 -42.5 23.5
t-15.5 45.5q0 23 12.5 40t37.5 22q18 2 28 2q60 0 139 -32q71 -29 71 -39zM928 389q-11 -3 -24 -3q-50 0 -132 30t-82 41q0 14 79 41t132 27q15 0 27 -3q25 -4 39 -21.5t14 -39.5q0 -50 -53 -72zM451 377q17 -11 -41 -106q-33 -53 -68 -81q-17 -14 -41 -14q-30 0 -56 19
t-26 46q0 47 112 97q104 46 120 39zM872 221q0 -23 -23.5 -42.5t-52.5 -19.5q-22 0 -40 15q-46 36 -84.5 113.5t-28.5 85.5q12 12 117 -41q112 -57 112 -111zM616 135q0 -27 -22 -43.5t-50 -16.5q-26 0 -44.5 13.5t-21.5 34t-3 30.5q0 50 29 120q25 61 37 67
q13 2 46.5 -81.5t28.5 -123.5z" />
    <glyph glyph-name="plus" unicode="+" horiz-adv-x="477" 
d="M199 72v147h-148v100h148v148h98v-148h147v-100h-147v-147h-98z" />
    <glyph glyph-name="comma" unicode="," horiz-adv-x="569" 
d="M182 0v205h205v-205q0 -113 -40 -182.5t-127 -107.5l-50 77q57 25 84 73.5t30 139.5h-102z" />
    <glyph glyph-name="hyphen" unicode="-" horiz-adv-x="681" 
d="M66 125v199h550v-199h-550z" />
    <glyph glyph-name="period" unicode="." horiz-adv-x="362" 
d="M272 170l-20 -96l-14 -74l-78 45l-70 53q2 21 21 90l10 39l18 49l41 -36l25 -21z" />
    <glyph glyph-name="slash" unicode="/" horiz-adv-x="389" 
d="M-164 -371l449 719l75 -29l-450 -718z" />
    <glyph glyph-name="zero" unicode="0" 
d="M85 723q0 260 53.5 418.5t159 244.5t265.5 86q118 0 207 -47.5t147 -137t91 -218t33 -346.5q0 -258 -53 -416.5t-158.5 -245t-266.5 -86.5q-212 0 -333 152q-145 183 -145 596zM270 723q0 -361 84.5 -480.5t208.5 -119.5t208.5 120t84.5 480q0 362 -84.5 481t-210.5 119
q-124 0 -198 -105q-93 -134 -93 -495z" />
    <glyph glyph-name="one" unicode="1" 
d="M763 0h-180v1147q-65 -62 -170.5 -124t-189.5 -93v174q151 71 264 172t160 196h116v-1472z" />
    <glyph glyph-name="two" unicode="2" 
d="M1031 173v-173h-969q-2 65 21 125q37 99 118.5 195t235.5 222q239 196 323 310.5t84 216.5q0 107 -76.5 180.5t-199.5 73.5q-130 0 -208 -78t-79 -216l-185 19q19 207 143 315.5t333 108.5q211 0 334 -117t123 -290q0 -88 -36 -173t-119.5 -179t-277.5 -258
q-162 -136 -208 -184.5t-76 -97.5h719z" />
    <glyph glyph-name="three" unicode="3" 
d="M86 387l180 24q31 -153 105.5 -220.5t181.5 -67.5q127 0 214.5 88t87.5 218q0 124 -81 204.5t-206 80.5q-51 0 -127 -20l20 158q18 -2 29 -2q115 0 207 60t92 185q0 99 -67 164t-173 65q-105 0 -175 -66t-90 -198l-180 32q33 181 150 280.5t291 99.5q120 0 221 -51.5
t154.5 -140.5t53.5 -189q0 -95 -51 -173t-151 -124q130 -30 202 -124.5t72 -236.5q0 -192 -140 -325.5t-354 -133.5q-193 0 -320.5 115t-145.5 298z" />
    <glyph glyph-name="four" unicode="4" 
d="M662 0v351h-636v165l669 950h147v-950h198v-165h-198v-351h-180zM662 516v661l-459 -661h459z" />
    <glyph glyph-name="five" unicode="5" 
d="M85 384l189 16q21 -138 97.5 -207.5t184.5 -69.5q130 0 220 98t90 260q0 154 -86.5 243t-226.5 89q-87 0 -157 -39.5t-110 -102.5l-169 22l142 753h729v-172h-585l-79 -394q132 92 277 92q192 0 324 -133t132 -342q0 -199 -116 -344q-141 -178 -385 -178
q-200 0 -326.5 112t-144.5 297z" />
    <glyph glyph-name="six" unicode="6" 
d="M1019 1107l-179 -14q-24 106 -68 154q-73 77 -180 77q-86 0 -151 -48q-85 -62 -134 -181t-51 -339q65 99 159 147t197 48q180 0 306.5 -132.5t126.5 -342.5q0 -138 -59.5 -256.5t-163.5 -181.5t-236 -63q-225 0 -367 165.5t-142 545.5q0 425 157 618q137 168 369 168
q173 0 283.5 -97t132.5 -268zM284 475q0 -93 39.5 -178t110.5 -129.5t149 -44.5q114 0 196 92t82 250q0 152 -81 239.5t-204 87.5q-122 0 -207 -87.5t-85 -229.5z" />
    <glyph glyph-name="seven" unicode="7" 
d="M97 1274v173h949v-140q-140 -149 -277.5 -396t-212.5 -508q-54 -184 -69 -403h-185q3 173 68 418t186.5 472.5t258.5 383.5h-718z" />
    <glyph glyph-name="eight" unicode="8" 
d="M362 795q-112 41 -166 117t-54 182q0 160 115 269t306 109q192 0 309 -111.5t117 -271.5q0 -102 -53.5 -177.5t-162.5 -116.5q135 -44 205.5 -142t70.5 -234q0 -188 -133 -316t-350 -128t-350 128.5t-133 320.5q0 143 72.5 239.5t206.5 131.5zM326 1100q0 -104 67 -170
t174 -66q104 0 170.5 65.5t66.5 160.5q0 99 -68.5 166.5t-170.5 67.5q-103 0 -171 -66t-68 -158zM268 423q0 -77 36.5 -149t108.5 -111.5t155 -39.5q129 0 213 83t84 211q0 130 -86.5 215t-216.5 85q-127 0 -210.5 -84t-83.5 -210z" />
    <glyph glyph-name="nine" unicode="9" 
d="M112 339l173 16q22 -122 84 -177t159 -55q83 0 145.5 38t102.5 101.5t67 171.5t27 220q0 12 -1 36q-54 -86 -147.5 -139.5t-202.5 -53.5q-182 0 -308 132t-126 348q0 223 131.5 359t329.5 136q143 0 261.5 -77t180 -219.5t61.5 -412.5q0 -281 -61 -447.5t-181.5 -253.5
t-282.5 -87q-172 0 -281 95.5t-131 268.5zM849 986q0 155 -82.5 246t-198.5 91q-120 0 -209 -98t-89 -254q0 -140 84.5 -227.5t208.5 -87.5q125 0 205.5 87.5t80.5 242.5z" />
    <glyph glyph-name="colon" unicode=":" horiz-adv-x="454" 
d="M299 567q0 -69 -68 -69q-28 0 -48.5 20.5t-20.5 48.5q0 74 63 74q74 0 74 -74zM299 113q0 -70 -68 -70q-28 0 -48.5 20.5t-20.5 49.5q0 71 63 71q74 0 74 -71z" />
    <glyph glyph-name="semicolon" unicode=";" horiz-adv-x="569" 
d="M182 857v205h205v-205h-205zM182 0v205h205v-205q0 -113 -40 -182.5t-127 -107.5l-50 77q57 25 84 73.5t30 139.5h-102z" />
    <glyph glyph-name="less" unicode="&#x3c;" horiz-adv-x="1196" 
d="M112 641v168l971 410v-179l-770 -316l770 -319v-179z" />
    <glyph glyph-name="equal" unicode="=" horiz-adv-x="1196" 
d="M1082 862h-968v168h968v-168zM1082 417h-968v168h968v-168z" />
    <glyph glyph-name="greater" unicode="&#x3e;" horiz-adv-x="1196" 
d="M1083 641l-971 -415v179l769 319l-769 316v179l971 -410v-168z" />
    <glyph glyph-name="question" unicode="?" 
d="M472 361q-1 36 -1 54q0 106 30 183q22 58 71 117q36 43 129.5 125.5t121.5 131.5t28 107q0 105 -82 184.5t-201 79.5q-115 0 -192 -72t-101 -225l-185 22q25 205 148.5 314t326.5 109q215 0 343 -117t128 -283q0 -96 -45 -177t-176 -197q-88 -78 -115 -115t-40 -85
t-15 -156h-173zM461 0v205h205v-205h-205z" />
    <glyph glyph-name="at" unicode="@" horiz-adv-x="2079" 
d="M1161 163q-65 -75 -145.5 -120.5t-161.5 -45.5q-89 0 -173 52t-136.5 160t-52.5 237q0 159 81.5 318.5t202.5 239.5t235 80q87 0 166 -45.5t136 -138.5l34 155h179l-144 -671q-30 -140 -30 -155q0 -27 20.5 -46.5t49.5 -19.5q53 0 139 61q114 80 180.5 214.5t66.5 277.5
q0 167 -85.5 312t-255 232t-374.5 87q-234 0 -427.5 -109.5t-300 -314t-106.5 -438.5q0 -245 106.5 -422t308 -261.5t446.5 -84.5q262 0 439 88t265 214h181q-51 -105 -175 -214t-295 -172.5t-412 -63.5q-222 0 -409.5 57t-319.5 171.5t-199 263.5q-84 189 -84 408
q0 244 100 465q122 271 346.5 415t544.5 144q248 0 445.5 -101.5t311.5 -302.5q97 -173 97 -376q0 -290 -204 -515q-182 -202 -398 -202q-69 0 -111.5 21t-62.5 60q-13 25 -19 86zM677 434q0 -137 65 -213t149 -76q56 0 118 33.5t118.5 99.5t92.5 167.5t36 203.5
q0 136 -67.5 211t-164.5 75q-64 0 -120.5 -32.5t-109.5 -104.5t-85 -175t-32 -189z" />
    <glyph glyph-name="A" unicode="A" horiz-adv-x="1366" 
d="M-3 0l563 1466h209l600 -1466h-221l-171 444h-613l-161 -444h-206zM420 602h497l-153 406q-70 185 -104 304q-28 -141 -79 -280z" />
    <glyph glyph-name="B" unicode="B" horiz-adv-x="1366" 
d="M150 0v1466h550q168 0 269.5 -44.5t159 -137t57.5 -193.5q0 -94 -51 -177t-154 -134q133 -39 204.5 -133t71.5 -222q0 -103 -43.5 -191.5t-107.5 -136.5t-160.5 -72.5t-236.5 -24.5h-559zM344 850h317q129 0 185 17q74 22 111.5 73t37.5 128q0 73 -35 128.5t-100 76
t-223 20.5h-293v-443zM344 173h365q94 0 132 7q67 12 112 40t74 81.5t29 123.5q0 82 -42 142.5t-116.5 85t-214.5 24.5h-339v-504z" />
    <glyph glyph-name="C" unicode="C" horiz-adv-x="1479" 
d="M1204 514l194 -49q-61 -239 -219.5 -364.5t-387.5 -125.5q-237 0 -385.5 96.5t-226 279.5t-77.5 393q0 229 87.5 399.5t249 259t355.5 88.5q220 0 370 -112t209 -315l-191 -45q-51 160 -148 233t-244 73q-169 0 -282.5 -81t-159.5 -217.5t-46 -281.5q0 -187 54.5 -326.5
t169.5 -208.5t249 -69q163 0 276 94t153 279z" />
    <glyph glyph-name="D" unicode="D" horiz-adv-x="1479" 
d="M158 0v1466h505q171 0 261 -21q126 -29 215 -105q116 -98 173.5 -250.5t57.5 -348.5q0 -167 -39 -296t-100 -213.5t-133.5 -133t-175 -73.5t-235.5 -25h-529zM352 173h313q145 0 227.5 27t131.5 76q69 69 107.5 185.5t38.5 282.5q0 230 -75.5 353.5t-183.5 165.5
q-78 30 -251 30h-308v-1120z" />
    <glyph glyph-name="E" unicode="E" horiz-adv-x="1366" 
d="M162 0v1466h1060v-173h-866v-449h811v-172h-811v-499h900v-173h-1094z" />
    <glyph glyph-name="F" unicode="F" horiz-adv-x="1251" 
d="M168 0v1466h989v-173h-795v-454h688v-173h-688v-666h-194z" />
    <glyph glyph-name="G" unicode="G" horiz-adv-x="1593" 
d="M844 575v172l621 1v-544q-143 -114 -295 -171.5t-312 -57.5q-216 0 -392.5 92.5t-266.5 267.5t-90 391q0 214 89.5 399.5t257.5 275.5t387 90q159 0 287.5 -51.5t201.5 -143.5t111 -240l-175 -48q-33 112 -82 176t-140 102.5t-202 38.5q-133 0 -230 -40.5t-156.5 -106.5
t-92.5 -145q-56 -136 -56 -295q0 -196 67.5 -328t196.5 -196t274 -64q126 0 246 48.5t182 103.5v273h-431z" />
    <glyph glyph-name="H" unicode="H" horiz-adv-x="1479" 
d="M164 0v1466h194v-602h762v602h194v-1466h-194v691h-762v-691h-194z" />
    <glyph glyph-name="I" unicode="I" horiz-adv-x="569" 
d="M191 0v1466h194v-1466h-194z" />
    <glyph glyph-name="J" unicode="J" horiz-adv-x="1024" 
d="M59 416l175 24q7 -168 63 -230t155 -62q73 0 126 33.5t73 91t20 183.5v1010h194v-999q0 -184 -44.5 -285t-141 -154t-226.5 -53q-193 0 -295.5 111t-98.5 330z" />
    <glyph glyph-name="K" unicode="K" horiz-adv-x="1366" 
d="M150 0v1466h194v-727l728 727h263l-615 -594l642 -872h-256l-522 742l-240 -234v-508h-194z" />
    <glyph glyph-name="L" unicode="L" 
d="M150 0v1466h194v-1293h722v-173h-916z" />
    <glyph glyph-name="M" unicode="M" horiz-adv-x="1706" 
d="M152 0v1466h292l347 -1038q48 -145 70 -217q25 80 78 235l351 1020h261v-1466h-187v1227l-426 -1227h-175l-424 1248v-1248h-187z" />
    <glyph glyph-name="N" unicode="N" horiz-adv-x="1479" 
d="M156 0v1466h199l770 -1151v1151h186v-1466h-199l-770 1152v-1152h-186z" />
    <glyph glyph-name="O" unicode="O" horiz-adv-x="1593" 
d="M99 714q0 365 196 571.5t506 206.5q203 0 366 -97t248.5 -270.5t85.5 -393.5q0 -223 -90 -399t-255 -266.5t-356 -90.5q-207 0 -370 100t-247 273t-84 366zM299 711q0 -265 142.5 -417.5t357.5 -152.5q219 0 360.5 154t141.5 437q0 179 -60.5 312.5t-177 207t-261.5 73.5
q-206 0 -354.5 -141.5t-148.5 -472.5z" />
    <glyph glyph-name="P" unicode="P" horiz-adv-x="1366" 
d="M158 0v1466h553q146 0 223 -14q108 -18 181 -68.5t117.5 -141.5t44.5 -200q0 -187 -119 -316.5t-430 -129.5h-376v-596h-194zM352 769h379q188 0 267 70t79 197q0 92 -46.5 157.5t-122.5 86.5q-49 13 -181 13h-375v-524z" />
    <glyph glyph-name="Q" unicode="Q" horiz-adv-x="1593" 
d="M1269 157q135 -93 249 -136l-57 -135q-158 57 -315 180q-163 -91 -360 -91q-199 0 -361 96t-249.5 270t-87.5 392q0 217 88 395t250.5 271t363.5 93q203 0 366 -96.5t248.5 -270t85.5 -391.5q0 -181 -55 -325.5t-166 -251.5zM842 405q168 -47 277 -140q171 156 171 469
q0 178 -60.5 311t-177 206.5t-261.5 73.5q-217 0 -360 -148.5t-143 -443.5q0 -286 141.5 -439t361.5 -153q104 0 196 39q-91 59 -192 84z" />
    <glyph glyph-name="R" unicode="R" horiz-adv-x="1479" 
d="M161 0v1466h650q196 0 298 -39.5t163 -139.5t61 -221q0 -156 -101 -263t-312 -136q77 -37 117 -73q85 -78 161 -195l255 -399h-244l-194 305q-85 132 -140 202t-98.5 98t-88.5 39q-33 7 -108 7h-225v-651h-194zM355 819h417q133 0 208 27.5t114 88t39 131.5
q0 104 -75.5 171t-238.5 67h-464v-485z" />
    <glyph glyph-name="S" unicode="S" horiz-adv-x="1366" 
d="M92 471l183 16q13 -110 60.5 -180.5t147.5 -114t225 -43.5q111 0 196 33t126.5 90.5t41.5 125.5q0 69 -40 120.5t-132 86.5q-59 23 -261 71.5t-283 91.5q-105 55 -156.5 136.5t-51.5 182.5q0 111 63 207.5t184 146.5t269 50q163 0 287.5 -52.5t191.5 -154.5t72 -231
l-186 -14q-15 139 -101.5 210t-255.5 71q-176 0 -256.5 -64.5t-80.5 -155.5q0 -79 57 -130q56 -51 292.5 -104.5t324.5 -93.5q128 -59 189 -149.5t61 -208.5q0 -117 -67 -220.5t-192.5 -161t-282.5 -57.5q-199 0 -333.5 58t-211 174.5t-80.5 263.5z" />
    <glyph glyph-name="T" unicode="T" horiz-adv-x="1251" 
d="M531 0v1293h-483v173h1162v-173h-485v-1293h-194z" />
    <glyph glyph-name="U" unicode="U" horiz-adv-x="1479" 
d="M1120 1466h194v-847q0 -221 -50 -351t-180.5 -211.5t-342.5 -81.5q-206 0 -337 71t-187 205.5t-56 367.5v847h194v-846q0 -191 35.5 -281.5t122 -139.5t211.5 -49q214 0 305 97t91 373v846z" />
    <glyph glyph-name="V" unicode="V" horiz-adv-x="1366" 
d="M577 0l-568 1466h210l381 -1065q46 -128 77 -240q34 120 79 240l396 1065h198l-574 -1466h-199z" />
    <glyph glyph-name="W" unicode="W" horiz-adv-x="1933" 
d="M414 0l-389 1466h199l223 -961q36 -151 62 -300q56 235 66 271l279 990h234l210 -742q79 -276 114 -519q28 139 73 319l230 942h195l-402 -1466h-187l-309 1117q-39 140 -46 172q-23 -101 -43 -172l-311 -1117h-198z" />
    <glyph glyph-name="X" unicode="X" horiz-adv-x="1366" 
d="M9 0l567 764l-500 702h231l266 -376q83 -117 118 -180q49 80 116 167l295 389h211l-515 -691l555 -775h-240l-369 523q-31 45 -64 98q-49 -80 -70 -110l-368 -511h-233z" />
    <glyph glyph-name="Y" unicode="Y" horiz-adv-x="1366" 
d="M571 0v621l-565 845h236l289 -442q80 -124 149 -248q66 115 160 259l284 431h226l-585 -845v-621h-194z" />
    <glyph glyph-name="Z" unicode="Z" horiz-adv-x="1251" 
d="M41 0v180l751 939q80 100 152 174h-818v173h1050v-173l-823 -1017l-89 -103h936v-173h-1159z" />
    <glyph glyph-name="bracketleft" unicode="[" horiz-adv-x="569" 
d="M139 -407v1873h397v-149h-217v-1575h217v-149h-397z" />
    <glyph glyph-name="backslash" unicode="\" horiz-adv-x="569" 
d="M425 -25l-425 1516h145l424 -1516h-144z" />
    <glyph glyph-name="bracketright" unicode="]" horiz-adv-x="569" 
d="M436 -407h-397v149h217v1575h-217v149h397v-1873z" />
    <glyph glyph-name="asciicircum" unicode="^" horiz-adv-x="961" 
d="M239 690h-185l353 801h145l355 -801h-181l-247 597z" />
    <glyph glyph-name="underscore" unicode="_" 
d="M-31 -407v130h1193v-130h-1193z" />
    <glyph glyph-name="grave" unicode="`" horiz-adv-x="682" 
d="M465 1194h-145l-231 280h241z" />
    <glyph glyph-name="a" unicode="a" 
d="M828 131q-100 -85 -192.5 -120t-198.5 -35q-175 0 -269 85.5t-94 218.5q0 78 35.5 142.5t93 103.5t129.5 59q53 14 160 27q218 26 321 62q1 37 1 47q0 110 -51 155q-69 61 -205 61q-127 0 -187.5 -44.5t-89.5 -157.5l-176 24q24 113 79 182.5t159 107t241 37.5
q136 0 221 -32t125 -80.5t56 -122.5q9 -46 9 -166v-240q0 -251 11.5 -317.5t45.5 -127.5h-188q-28 56 -36 131zM813 533q-98 -40 -294 -68q-111 -16 -157 -36t-71 -58.5t-25 -85.5q0 -72 54.5 -120t159.5 -48q104 0 185 45.5t119 124.5q29 61 29 180v66z" />
    <glyph glyph-name="b" unicode="b" 
d="M301 0h-167v1466h180v-523q114 143 291 143q98 0 185.5 -39.5t144 -111t88.5 -172.5t32 -216q0 -273 -135 -422t-324 -149q-188 0 -295 157v-133zM299 539q0 -191 52 -276q85 -139 230 -139q118 0 204 102.5t86 305.5q0 208 -82.5 307t-199.5 99q-118 0 -204 -102.5
t-86 -296.5z" />
    <glyph glyph-name="c" unicode="c" horiz-adv-x="1024" 
d="M828 389l177 -23q-29 -183 -148.5 -286.5t-293.5 -103.5q-218 0 -350.5 142.5t-132.5 408.5q0 172 57 301t173.5 193.5t253.5 64.5q173 0 283 -87.5t141 -248.5l-175 -27q-25 107 -88.5 161t-153.5 54q-136 0 -221 -97.5t-85 -308.5q0 -214 82 -311t214 -97q106 0 177 65
t90 200z" />
    <glyph glyph-name="d" unicode="d" 
d="M824 0v134q-101 -158 -297 -158q-127 0 -233.5 70t-165 195.5t-58.5 288.5q0 159 53 288.5t159 198.5t237 69q96 0 171 -40.5t122 -105.5v526h179v-1466h-167zM255 530q0 -204 86 -305t203 -101q118 0 200.5 96.5t82.5 294.5q0 218 -84 320t-207 102q-120 0 -200.5 -98
t-80.5 -309z" />
    <glyph glyph-name="e" unicode="e" 
d="M862 342l186 -23q-44 -163 -163 -253t-304 -90q-233 0 -369.5 143.5t-136.5 402.5q0 268 138 416t358 148q213 0 348 -145t135 -408q0 -16 -1 -48h-792q10 -175 99 -268t222 -93q99 0 169 52t111 166zM271 633h593q-12 134 -68 201q-86 104 -223 104q-124 0 -208.5 -83
t-93.5 -222z" />
    <glyph glyph-name="f" unicode="f" horiz-adv-x="569" 
d="M178 0v922h-159v140h159v113q0 107 19 159q26 70 91.5 113.5t183.5 43.5q76 0 168 -18l-27 -157q-56 10 -106 10q-82 0 -116 -35t-34 -131v-98h207v-140h-207v-922h-179z" />
    <glyph glyph-name="g" unicode="g" 
d="M102 -88l175 -26q11 -81 61 -118q67 -50 183 -50q125 0 193 50t92 140q14 55 13 231q-118 -139 -294 -139q-219 0 -339 158t-120 379q0 152 55 280.5t159.5 198.5t245.5 70q188 0 310 -152v128h166v-918q0 -248 -50.5 -351.5t-160 -163.5t-269.5 -60q-190 0 -307 85.5
t-113 257.5zM251 550q0 -209 83 -305t208 -96q124 0 208 95.5t84 299.5q0 195 -86.5 294t-208.5 99q-120 0 -204 -97.5t-84 -289.5z" />
    <glyph glyph-name="h" unicode="h" 
d="M135 0v1466h180v-526q126 146 318 146q118 0 205 -46.5t124.5 -128.5t37.5 -238v-673h-180v673q0 135 -58.5 196.5t-165.5 61.5q-80 0 -150.5 -41.5t-100.5 -112.5t-30 -196v-581h-180z" />
    <glyph glyph-name="i" unicode="i" horiz-adv-x="455" 
d="M136 1259v207h180v-207h-180zM136 0v1062h180v-1062h-180z" />
    <glyph glyph-name="j" unicode="j" horiz-adv-x="455" 
d="M134 1257v209h180v-209h-180zM-94 -412l34 153q54 -14 85 -14q55 0 82 36.5t27 182.5v1116h180v-1120q0 -196 -51 -273q-65 -100 -216 -100q-73 0 -141 19z" />
    <glyph glyph-name="k" unicode="k" horiz-adv-x="1024" 
d="M136 0v1466h180v-836l426 432h233l-406 -394l447 -668h-222l-351 543l-127 -122v-421h-180z" />
    <glyph glyph-name="l" unicode="l" horiz-adv-x="455" 
d="M131 0v1466h180v-1466h-180z" />
    <glyph glyph-name="m" unicode="m" horiz-adv-x="1706" 
d="M135 0v1062h161v-149q50 78 133 125.5t189 47.5q118 0 193.5 -49t106.5 -137q126 186 328 186q158 0 243 -87.5t85 -269.5v-729h-179v669q0 108 -17.5 155.5t-63.5 76.5t-108 29q-112 0 -186 -74.5t-74 -238.5v-617h-180v690q0 120 -44 180t-144 60q-76 0 -140.5 -40
t-93.5 -117t-29 -222v-551h-180z" />
    <glyph glyph-name="n" unicode="n" 
d="M135 0v1062h162v-151q117 175 338 175q96 0 176.5 -34.5t120.5 -90.5t56 -133q10 -50 10 -175v-653h-180v646q0 110 -21 164.5t-74.5 87t-125.5 32.5q-115 0 -198.5 -73t-83.5 -277v-580h-180z" />
    <glyph glyph-name="o" unicode="o" 
d="M68 531q0 295 164 437q137 118 334 118q219 0 358 -143.5t139 -396.5q0 -205 -61.5 -322.5t-179 -182.5t-256.5 -65q-223 0 -360.5 143t-137.5 412zM253 531q0 -204 89 -305.5t224 -101.5q134 0 223 102t89 311q0 197 -89.5 298.5t-222.5 101.5q-135 0 -224 -101
t-89 -305z" />
    <glyph glyph-name="p" unicode="p" 
d="M135 -407v1469h164v-138q58 81 131 121.5t177 40.5q136 0 240 -70t157 -197.5t53 -279.5q0 -163 -58.5 -293.5t-170 -200t-234.5 -69.5q-90 0 -161.5 38t-117.5 96v-517h-180zM298 525q0 -205 83 -303t201 -98q120 0 205.5 101.5t85.5 314.5q0 203 -83.5 304t-199.5 101
q-115 0 -203.5 -107.5t-88.5 -312.5z" />
    <glyph glyph-name="q" unicode="q" 
d="M812 -407v520q-42 -59 -117.5 -98t-160.5 -39q-189 0 -325.5 151t-136.5 414q0 160 55.5 287t161 192.5t231.5 65.5q197 0 310 -166v142h162v-1469h-180zM257 534q0 -205 86 -307.5t206 -102.5q115 0 198 97.5t83 296.5q0 212 -87.5 319t-205.5 107q-117 0 -198.5 -99.5
t-81.5 -310.5z" />
    <glyph glyph-name="r" unicode="r" horiz-adv-x="682" 
d="M133 0v1062h162v-161q62 113 114.5 149t115.5 36q91 0 185 -58l-62 -167q-66 39 -132 39q-59 0 -106 -35.5t-67 -98.5q-30 -96 -30 -210v-556h-180z" />
    <glyph glyph-name="s" unicode="s" horiz-adv-x="1024" 
d="M63 317l178 28q15 -107 83.5 -164t191.5 -57q124 0 184 50.5t60 118.5q0 61 -53 96q-37 24 -184 61q-198 50 -274.5 86.5t-116 101t-39.5 142.5q0 71 32.5 131.5t88.5 100.5q42 31 114.5 52.5t155.5 21.5q125 0 219.5 -36t139.5 -97.5t62 -164.5l-176 -24
q-12 82 -69.5 128t-162.5 46q-124 0 -177 -41t-53 -96q0 -35 22 -63q22 -29 69 -48q27 -10 159 -46q191 -51 266.5 -83.5t118.5 -94.5t43 -154q0 -90 -52.5 -169.5t-151.5 -123t-224 -43.5q-207 0 -315.5 86t-138.5 255z" />
    <glyph glyph-name="t" unicode="t" horiz-adv-x="569" 
d="M528 161l26 -159q-76 -16 -136 -16q-98 0 -152 31t-76 81.5t-22 212.5v611h-132v140h132v263l179 108v-371h181v-140h-181v-621q0 -77 9.5 -99t31 -35t61.5 -13q30 0 79 7z" />
    <glyph glyph-name="u" unicode="u" 
d="M831 0v156q-124 -180 -337 -180q-94 0 -175.5 36t-121 90.5t-55.5 133.5q-11 53 -11 168v658h180v-589q0 -141 11 -190q17 -71 72 -111.5t136 -40.5t152 41.5t100.5 113t29.5 207.5v569h180v-1062h-161z" />
    <glyph glyph-name="v" unicode="v" horiz-adv-x="1024" 
d="M430 0l-404 1062h190l228 -636q37 -103 68 -214q24 84 67 202l236 648h185l-402 -1062h-168z" />
    <glyph glyph-name="w" unicode="w" horiz-adv-x="1479" 
d="M331 0l-325 1062h186l169 -613l63 -228q4 17 55 219l169 622h185l159 -616l53 -203l61 205l182 614h175l-332 -1062h-187l-169 636l-41 181l-215 -817h-188z" />
    <glyph glyph-name="x" unicode="x" horiz-adv-x="1024" 
d="M15 0l388 552l-359 510h225l163 -249q46 -71 74 -119q44 66 81 117l179 251h215l-367 -500l395 -562h-221l-218 330l-58 89l-279 -419h-218z" />
    <glyph glyph-name="y" unicode="y" horiz-adv-x="1024" 
d="M127 -409l-20 169q59 -16 103 -16q60 0 96 20t59 56q17 27 55 134q5 15 16 44l-403 1064h194l221 -615q43 -117 77 -246q31 124 74 242l227 619h180l-404 -1080q-65 -175 -101 -241q-48 -89 -110 -130.5t-148 -41.5q-52 0 -116 22z" />
    <glyph glyph-name="z" unicode="z" horiz-adv-x="1024" 
d="M40 0v146l676 776q-115 -6 -203 -6h-433v146h868v-119l-575 -674l-111 -123q121 9 227 9h491v-155h-940z" />
    <glyph glyph-name="braceleft" unicode="{" horiz-adv-x="684" 
d="M57 612q77 2 125.5 41.5t64.5 108.5t17 236t6 220q9 84 33.5 135t60.5 81.5t92 46.5q38 10 124 10h56v-157h-31q-104 0 -138 -37.5t-34 -167.5q0 -262 -11 -331q-18 -107 -61.5 -165t-136.5 -103q110 -46 159.5 -140.5t49.5 -309.5q0 -195 4 -232q8 -68 40.5 -95
t127.5 -27h31v-157h-56q-98 0 -142 16q-64 23 -106 74.5t-54.5 130.5t-13.5 259t-17 249t-64.5 109t-125.5 42v163z" />
    <glyph glyph-name="bar" unicode="|" horiz-adv-x="532" 
d="M188 -431v1922h157v-1922h-157z" />
    <glyph glyph-name="braceright" unicode="}" horiz-adv-x="684" 
d="M626 612v-163q-77 -2 -125.5 -42t-64.5 -108.5t-17 -235.5t-6 -220q-9 -85 -33.5 -135.5t-60.5 -81t-92 -46.5q-38 -11 -124 -11h-56v157h31q104 0 138 37.5t34 168.5q0 250 9 317q16 111 64 177.5t136 103.5q-115 55 -162 145.5t-47 305.5q0 195 -5 233
q-7 67 -39.5 93.5t-127.5 26.5h-31v157h56q98 0 142 -16q64 -22 106 -74t54.5 -131t13.5 -259t17 -248.5t64.5 -108.5t125.5 -42z" />
    <glyph glyph-name="asciitilde" unicode="~" horiz-adv-x="1196" 
d="M87 557v205q106 120 278 120q60 0 126 -17.5t188 -69.5q69 -29 103.5 -38t69.5 -9q65 0 134.5 39t123.5 98v-212q-64 -60 -129.5 -87t-147.5 -27q-60 0 -114.5 14t-173 67t-197.5 53q-64 0 -120.5 -27.5t-140.5 -108.5z" />
    <glyph glyph-name="Ccedilla" unicode="&#xc7;" horiz-adv-x="1479" 
d="M1204 514l194 -49q-61 -239 -219.5 -364.5t-387.5 -125.5q-237 0 -385.5 96.5t-226 279.5t-77.5 393q0 229 87.5 399.5t249 259t355.5 88.5q220 0 370 -112t209 -315l-191 -45q-51 160 -148 233t-244 73q-169 0 -282.5 -81t-159.5 -217.5t-46 -281.5q0 -187 54.5 -326.5
t169.5 -208.5t249 -69q163 0 276 94t153 279zM620 -154l52 177h134l-33 -107q85 -10 128 -52.5t43 -94.5q0 -75 -72 -132.5t-217 -57.5q-82 0 -144 12l11 117q64 -4 94 -4q94 0 132 26q29 20 29 49q0 18 -11.5 32t-42.5 24t-103 11z" />
    <glyph glyph-name="ccedilla" unicode="&#xe7;" horiz-adv-x="1024" 
d="M828 389l177 -23q-29 -183 -148.5 -286.5t-293.5 -103.5q-218 0 -350.5 142.5t-132.5 408.5q0 172 57 301t173.5 193.5t253.5 64.5q173 0 283 -87.5t141 -248.5l-175 -27q-25 107 -88.5 161t-153.5 54q-136 0 -221 -97.5t-85 -308.5q0 -214 82 -311t214 -97q106 0 177 65
t90 200zM411 -134l52 177h134l-33 -107q85 -10 128 -52.5t43 -94.5q0 -75 -72 -132.5t-217 -57.5q-82 0 -144 12l11 117q64 -4 94 -4q94 0 132 26q29 20 29 49q0 18 -11.5 32t-42.5 24t-103 11z" />
    <glyph glyph-name="ecircumflex" unicode="&#xea;" 
d="M862 342l186 -23q-44 -163 -163 -253t-304 -90q-233 0 -369.5 143.5t-136.5 402.5q0 268 138 416t358 148q213 0 348 -145t135 -408q0 -16 -1 -48h-792q10 -175 99 -268t222 -93q99 0 169 52t111 166zM271 633h593q-12 134 -68 201q-86 104 -223 104q-124 0 -208.5 -83
t-93.5 -222zM567 1364l-113 -170h-206l216 280h192l225 -280h-204z" />
    <glyph glyph-name="icircumflex" unicode="&#xee;" horiz-adv-x="569" 
d="M198 0v1062h180v-1062h-180zM302 1364l-113 -170h-206l216 280h192l225 -280h-204z" />
    <glyph glyph-name="otilde" unicode="&#xf5;" 
d="M68 531q0 295 164 437q137 118 334 118q219 0 358 -143.5t139 -396.5q0 -205 -61.5 -322.5t-179 -182.5t-256.5 -65q-223 0 -360.5 143t-137.5 412zM253 531q0 -204 89 -305.5t224 -101.5q134 0 223 102t89 311q0 197 -89.5 298.5t-222.5 101.5q-135 0 -224 -101
t-89 -305zM231 1219q-1 104 57 166q57 62 146 62q62 0 169 -54q59 -30 94 -30q32 0 49 17.5t24 69.5h130q-3 -114 -57.5 -171t-138.5 -57q-63 0 -166 56q-67 36 -98 36q-34 0 -55 -24q-22 -24 -21 -71h-133z" />
    <glyph glyph-name="ucircumflex" unicode="&#xfb;" 
d="M831 0v156q-124 -180 -337 -180q-94 0 -175.5 36t-121 90.5t-55.5 133.5q-11 53 -11 168v658h180v-589q0 -141 11 -190q17 -71 72 -111.5t136 -40.5t152 41.5t100.5 113t29.5 207.5v569h180v-1062h-161zM564 1364l-113 -170h-206l216 280h192l225 -280h-204z" />
    <glyph glyph-name="cent" unicode="&#xa2;" 
d="M744 894l-222 -766q33 -9 61 -9q104 0 179.5 71t92.5 199l179 -20q-33 -185 -156.5 -291t-291.5 -106q-49 0 -103 14l-118 -395l-112 32l115 398q-115 55 -188 183.5t-73 321.5q0 178 58.5 305.5t175 191.5t237.5 64q36 0 100 -8l113 387l110 -32l-112 -387
q99 -43 152 -115.5t74 -181.5l-175 -27q-26 112 -96 171zM638 940q-32 3 -50 3q-82 0 -153.5 -45.5t-107 -141t-35.5 -221.5q0 -132 32 -223t91 -135z" />
    <glyph glyph-name="sterling" unicode="&#xa3;" 
d="M396 809h315v-148h-284q19 -44 19 -88q0 -87 -41.5 -184t-136.5 -198q79 22 144 22q83 0 187 -25q172 -41 233 -41q74 0 192 56l58 -165q-92 -39 -142.5 -51t-100.5 -12q-42 0 -85 8q-27 5 -129.5 36.5t-132.5 37.5q-47 8 -94 8q-72 0 -153.5 -25t-148.5 -68l-69 173
q96 53 163 151.5t67 240.5q0 61 -17 124h-196v148h154q-33 112 -42 163.5t-9 100.5q0 208 154 325q124 93 300 93q181 0 298.5 -99.5t144.5 -279.5l-179 -27q-15 120 -89.5 189t-178.5 69q-111 0 -184.5 -71.5t-73.5 -172.5q0 -111 57 -290z" />
    <glyph glyph-name="section" unicode="&#xa7;" 
d="M143 -70l181 26q28 -130 89 -182.5t166 -52.5q102 0 159.5 52t57.5 122q0 51 -36 94q-62 75 -340 245q-148 91 -206.5 142.5t-95.5 121.5t-37 146q0 96 60 174t165 109q-71 68 -100 125.5t-29 122.5q0 128 100 222t265 94q187 0 292 -89t126 -258l-187 -19
q-21 122 -73.5 170t-141.5 48q-92 0 -148.5 -49.5t-56.5 -109.5q0 -52 36 -96q56 -68 306 -220q157 -96 212 -141q71 -60 104.5 -124t33.5 -139q0 -113 -73 -193q-42 -46 -154 -93q80 -61 119.5 -131t39.5 -150q0 -88 -50 -166.5t-144 -120t-203 -41.5q-191 0 -303 95.5
t-134 265.5zM728 244q74 38 110.5 88.5t36.5 98.5q0 57 -52 120q-53 63 -225 169q-137 84 -204 138q-81 -46 -115.5 -92t-34.5 -102q0 -63 46 -120t207 -152q134 -79 231 -148z" />
    <glyph glyph-name="bullet" unicode="&#x2022;" horiz-adv-x="931" 
d="M817 662q0 -145 -103.5 -248t-248.5 -103t-248 103t-103 248t103 248t248 103t248.5 -103t103.5 -248z" />
    <glyph glyph-name="paragraph" unicode="&#xb6;" horiz-adv-x="1100" 
d="M405 -407v1045q-187 10 -295.5 121.5t-108.5 284.5q0 193 120.5 307.5t352.5 114.5h633v-173h-144v-1700h-170v1700h-223v-1700h-165z" />
    <glyph glyph-name="registered" unicode="&#xae;" horiz-adv-x="1509" 
d="M758 1491q190 0 371 -97.5t282 -279t101 -378.5q0 -195 -99.5 -375t-279 -279.5t-375.5 -99.5t-375.5 99.5t-279.5 279.5t-100 375q0 197 101.5 378.5t282.5 279t371 97.5zM758 1366q-159 0 -309.5 -81.5t-235.5 -233t-85 -315.5q0 -163 83.5 -312.5t233.5 -233
t313 -83.5t313 83.5t233 233t83 312.5q0 164 -84.5 315.5t-235.5 233t-309 81.5zM427 319v812h279q143 0 207 -22.5t102 -78.5t38 -119q0 -89 -63.5 -155t-168.5 -74q43 -18 69 -43q49 -48 120 -161l99 -159h-160l-72 128q-85 151 -137 189q-36 28 -105 28h-77v-345h-131z
M558 776h159q114 0 155.5 34t41.5 90q0 36 -20 64.5t-55.5 42.5t-131.5 14h-149v-245z" />
    <glyph glyph-name="copyright" unicode="&#xa9;" horiz-adv-x="1509" 
d="M758 1491q190 0 371 -97.5t282 -279t101 -378.5q0 -195 -99.5 -375t-279 -279.5t-375.5 -99.5t-375.5 99.5t-279.5 279.5t-100 375q0 197 101.5 378.5t282.5 279t371 97.5zM758 1366q-159 0 -309.5 -81.5t-235.5 -233t-85 -315.5q0 -163 83.5 -312.5t233.5 -233
t313 -83.5t313 83.5t233 233t83 312.5q0 164 -84.5 315.5t-235.5 233t-309 81.5zM1000 614l123 -36q-30 -125 -127.5 -199.5t-236.5 -74.5q-176 0 -286 114t-110 316q0 132 50 229.5t142.5 147t211.5 49.5q133 0 221 -63.5t120 -172.5l-119 -29q-30 74 -88.5 113.5
t-137.5 39.5q-115 0 -189.5 -82t-74.5 -235t70.5 -231.5t182.5 -78.5q90 0 158 52t90 141z" />
    <glyph glyph-name="trademark" unicode="&#x2122;" horiz-adv-x="2048" 
d="M489 651v694h-264v121h666v-121h-266v-694h-136zM982 651v815h200l206 -651l199 651h196v-815h-124v684l-210 -684h-123l-219 694v-694h-125z" />
    <glyph glyph-name="acute" unicode="&#xb4;" horiz-adv-x="682" 
d="M222 1194l133 280h236l-220 -280h-149z" />
    <glyph glyph-name="plusminus" unicode="&#xb1;" horiz-adv-x="1124" 
d="M477 260v403h-399v167h399v399h170v-399h399v-167h-399v-403h-170zM1046 0h-968v168h968v-168z" />
    <glyph glyph-name="lessequal" unicode="&#x2264;" horiz-adv-x="1124" 
d="M77 762v168l971 410v-180l-770 -315l770 -319v-179zM1046 106h-968v167h968v-167z" />
    <glyph glyph-name="greaterequal" unicode="&#x2265;" horiz-adv-x="1124" 
d="M1048 762l-971 -415v179l769 319l-769 315v180l971 -410v-168zM1046 106h-968v167h968v-167z" />
    <glyph glyph-name="yen" unicode="&#xa5;" 
d="M477 0v325h-415v139h415v143h-415v148h341l-406 711h200l290 -516q49 -88 76 -154q23 53 82 163l274 507h214l-405 -711h341v-148h-412v-143h412v-139h-412v-325h-180z" />
    <glyph glyph-name="guillemotleft" unicode="&#xab;" 
d="M340 528l259 -456h-146l-319 456l319 456h148zM727 528l264 -456h-152l-313 456l313 456h152z" />
    <glyph glyph-name="guillemotright" unicode="&#xbb;" 
d="M791 528l-261 456h148l319 -456l-319 -456h-147zM404 528l-264 456h151l314 -456l-314 -456h-151z" />
    <glyph glyph-name="endash" unicode="&#x2013;" 
d="M-4 458v145h1139v-145h-1139z" />
    <glyph glyph-name="emdash" unicode="&#x2014;" horiz-adv-x="2048" 
d="M0 458v145h2048v-145h-2048z" />
    <glyph glyph-name="quotedblleft" unicode="&#x201c;" horiz-adv-x="682" 
d="M276 1220v-209h-193v165q0 134 32 194q42 80 133 121l44 -70q-55 -23 -81 -68.5t-29 -132.5h94zM586 1220v-209h-193v165q0 134 32 194q42 80 133 121l44 -70q-55 -23 -81 -68.5t-29 -132.5h94z" />
    <glyph glyph-name="quotedblright" unicode="&#x201d;" horiz-adv-x="682" 
d="M87 1272v209h193v-165q0 -134 -31 -193q-43 -81 -134 -122l-44 71q54 22 80.5 69.5t29.5 130.5h-94zM397 1272v209h193v-165q0 -134 -31 -193q-43 -81 -134 -122l-44 71q54 22 80.5 69.5t29.5 130.5h-94z" />
    <glyph glyph-name="quoteleft" unicode="&#x2018;" horiz-adv-x="455" 
d="M321 1220v-209h-193v165q0 134 32 194q42 80 133 121l44 -70q-55 -23 -81 -68.5t-29 -132.5h94z" />
    <glyph glyph-name="quoteright" unicode="&#x2019;" horiz-adv-x="455" 
d="M124 1272v209h193v-165q0 -134 -31 -193q-43 -81 -134 -122l-44 71q54 22 80.5 69.5t29.5 130.5h-94z" />
    <glyph glyph-name="divide" unicode="&#xf7;" horiz-adv-x="1124" 
d="M459 922v205h205v-205h-205zM1046 639h-968v168h968v-168zM459 319v205h205v-205h-205z" />
    <glyph glyph-name="fraction" unicode="&#x2044;" horiz-adv-x="1018" 
d="M926 1574l-642 -1772h-180l641 1772h181z" />
    <glyph glyph-name="Euro" unicode="&#x20ac;" 
d="M790 1325q-168 0 -282 -81q-68 -48 -123 -136q-56 -91 -66 -173h682l-27 -134h-671q-1 -21 -1 -40q0 -77 1 -92h644l-28 -134h-595q42 -229 202 -325q115 -69 249 -69q187 0 292 98v-206q-125 -58 -276 -58q-452 0 -611 376q-32 76 -55 184h-153l28 134h105q-3 42 -3 91
q0 20 1 41h-131l28 134h116q62 326 323 468q161 88 355 88q186 0 313 -81l-40 -186q-122 101 -277 101z" />
    <glyph glyph-name="guilsinglleft" unicode="&#x2039;" horiz-adv-x="682" 
d="M291 527l265 -455h-149l-315 455l315 457h149z" />
    <glyph glyph-name="guilsinglright" unicode="&#x203a;" horiz-adv-x="682" 
d="M357 530l-265 454h149l304 -448l-304 -464h-149z" />
    <glyph glyph-name="periodcentered" unicode="&#x2219;" horiz-adv-x="569" 
d="M185 619v205h205v-205h-205z" />
    <glyph glyph-name="Ecircumflex" unicode="&#xca;" horiz-adv-x="1366" 
d="M162 0v1466h1060v-173h-866v-449h811v-172h-811v-499h900v-173h-1094zM707 1836l-113 -170h-206l216 280h192l225 -280h-204z" />
    <glyph glyph-name="Icircumflex" unicode="&#xce;" horiz-adv-x="569" 
d="M191 0v1466h194v-1466h-194zM287 1836l-113 -170h-206l216 280h192l225 -280h-204z" />
    <glyph glyph-name="Ucircumflex" unicode="&#xdb;" horiz-adv-x="1479" 
d="M1120 1466h194v-847q0 -221 -50 -351t-180.5 -211.5t-342.5 -81.5q-206 0 -337 71t-187 205.5t-56 367.5v847h194v-846q0 -191 35.5 -281.5t122 -139.5t211.5 -49q214 0 305 97t91 373v846zM736 1836l-113 -170h-206l216 280h192l225 -280h-204z" />
    <glyph glyph-name="brokenbar" unicode="&#xa6;" horiz-adv-x="532" 
d="M345 1491v-790h-157v790h157zM345 360v-791h-157v791h157z" />
    <glyph glyph-name="minus" unicode="&#x2212;" horiz-adv-x="1196" 
d="M1082 639h-968v168h968v-168z" />
    <glyph glyph-name="multiply" unicode="&#xd7;" horiz-adv-x="1196" 
d="M161 409l315 315l-314 314l122 122l314 -314l313 313l120 -121l-312 -313l314 -314l-122 -122l-314 314l-315 -315z" />
    <glyph glyph-name="Scedilla" unicode="&#x15e;" horiz-adv-x="1366" 
d="M92 471l183 16q13 -110 60.5 -180.5t147.5 -114t225 -43.5q111 0 196 33t126.5 90.5t41.5 125.5q0 69 -40 120.5t-132 86.5q-59 23 -261 71.5t-283 91.5q-105 55 -156.5 136.5t-51.5 182.5q0 111 63 207.5t184 146.5t269 50q163 0 287.5 -52.5t191.5 -154.5t72 -231
l-186 -14q-15 139 -101.5 210t-255.5 71q-176 0 -256.5 -64.5t-80.5 -155.5q0 -79 57 -130q56 -51 292.5 -104.5t324.5 -93.5q128 -59 189 -149.5t61 -208.5q0 -117 -67 -220.5t-192.5 -161t-282.5 -57.5q-199 0 -333.5 58t-211 174.5t-80.5 263.5zM555 -144l52 177h134
l-33 -107q85 -10 128 -52.5t43 -94.5q0 -75 -72 -132.5t-217 -57.5q-82 0 -144 12l11 117q64 -4 94 -4q94 0 132 26q29 20 29 49q0 18 -11.5 32t-42.5 24t-103 11z" />
    <glyph glyph-name="scedilla" unicode="&#x15f;" horiz-adv-x="1024" 
d="M63 317l178 28q15 -107 83.5 -164t191.5 -57q124 0 184 50.5t60 118.5q0 61 -53 96q-37 24 -184 61q-198 50 -274.5 86.5t-116 101t-39.5 142.5q0 71 32.5 131.5t88.5 100.5q42 31 114.5 52.5t155.5 21.5q125 0 219.5 -36t139.5 -97.5t62 -164.5l-176 -24
q-12 82 -69.5 128t-162.5 46q-124 0 -177 -41t-53 -96q0 -35 22 -63q22 -29 69 -48q27 -10 159 -46q191 -51 266.5 -83.5t118.5 -94.5t43 -154q0 -90 -52.5 -169.5t-151.5 -123t-224 -43.5q-207 0 -315.5 86t-138.5 255zM375 -134l52 177h134l-33 -107q85 -10 128 -52.5
t43 -94.5q0 -75 -72 -132.5t-217 -57.5q-82 0 -144 12l11 117q64 -4 94 -4q94 0 132 26q29 20 29 49q0 18 -11.5 32t-42.5 24t-103 11z" />
    <glyph glyph-name="middot" unicode="&#xb7;" horiz-adv-x="724" 
d="M482 832h-239v285h239v-285z" />
    <glyph glyph-name="H18533" unicode="&#x25cf;" horiz-adv-x="1237" 
d="M177 576q0 183 129 312t312 129q182 0 311 -129t129 -312q0 -182 -129 -311t-311 -129q-183 0 -312 129t-129 311z" />
    <glyph glyph-name="openbullet" unicode="&#x25e6;" horiz-adv-x="726" 
d="M363 928q104 0 177.5 -73.5t73.5 -177.5t-73.5 -177.5t-177.5 -73.5t-177.5 73.5t-73.5 177.5t73 177.5t178 73.5zM363 852q-73 0 -124 -51.5t-51 -123.5q0 -73 51.5 -124t123.5 -51t123.5 51t51.5 124q0 72 -51 123.5t-124 51.5z" />
    <glyph glyph-name="afii61352" unicode="&#x2116;" horiz-adv-x="2336" 
d="M1173 0h-222l-615 1284v-1284h-185v1489h281l556 -1179v1179h185v-1489zM2202 1030q0 -227 -117 -358.5t-303 -131.5q-193 0 -307 131.5t-114 358.5q0 233 117 361.5t304 128.5t303.5 -128.5t116.5 -361.5zM2071 176h-578v162h578v-162zM2022 1030q0 175 -64.5 257.5
t-175.5 82.5t-176 -82.5t-65 -257.5q0 -169 64 -254.5t177 -85.5t176.5 85.5t63.5 254.5z" />
    <glyph glyph-name="currency" unicode="&#xa4;" 
d="M213 961l-139 136l115 119l139 -139q106 72 237 72q132 0 237 -72l139 139l116 -119l-139 -136q71 -110 71 -235q0 -126 -71 -236l139 -136l-116 -119l-139 140q-105 -73 -237 -73q-131 0 -237 73l-139 -140l-115 119l139 136q-71 110 -71 236q0 125 71 235zM305 726
q0 -108 76 -184t183 -76t183 76t76 184q0 107 -75.5 183t-183.5 76q-107 0 -183 -76t-76 -183z" />
    <glyph glyph-name="afii57388" unicode="&#x60c;" horiz-adv-x="454" 
d="M342 127q0 -35 -24.5 -59.5t-59.5 -24.5q-63 0 -100 68q-31 55 -31 125q0 159 139 266l19 -27q-105 -110 -105 -209v-22q0 -35 23 -51l24 12q13 6 33 6q35 0 58.5 -24.5t23.5 -59.5z" />
    <glyph glyph-name="afii57403" unicode="&#x61b;" horiz-adv-x="454" 
d="M342 356q0 -82 -84 -82q-68 0 -102 66q-29 53 -29 127q0 160 139 264l19 -26q-105 -115 -105 -209v-23q0 -33 23 -51l24 12q19 6 33 6q35 0 58.5 -24.5t23.5 -59.5zM317 113q0 -70 -67 -70q-29 0 -50.5 20.5t-21.5 49.5q0 28 19.5 49.5t46.5 21.5q73 0 73 -71z" />
    <glyph glyph-name="afii57407" unicode="&#x61f;" horiz-adv-x="514" 
d="M463 729q0 -45 -27 -82q-28 -43 -71 -43q-70 0 -70 74q0 33 35 63l32 19q21 12 21 41q0 73 -92 73q-53 0 -86 -30.5t-33 -83.5v-23l2 -20l4 -10l4 -9l13 -20l51 -103q35 -69 45 -116l6 -29l6 -41l4 -49v-41l-4 -8l-4 -41h-25v33l5 26q0 33 -7 49q-6 31 -26 50l-78 69
q-105 94 -105 209q0 90 62.5 155.5t153.5 65.5q77 0 130.5 -50t53.5 -128zM346 113q0 -70 -67 -70q-29 0 -51.5 20.5t-22.5 49.5q0 71 69 71q72 0 72 -71z" />
    <glyph glyph-name="afii57409" unicode="&#x621;" horiz-adv-x="229" 
d="M219 532q0 -20 -31.5 -56t-31.5 -56l6 -12l12 -23l10 -20l9 -23l-17 -37q-57 -131 -129 -131l-18 4q-9 0 -9 12q0 3 36 35.5t36 61.5q0 10 -8 26l-23 43q0 33 52.5 115t81.5 82q24 0 24 -21z" />
    <glyph glyph-name="tatweel" unicode="&#x640;" horiz-adv-x="250" 
d="M270 83v177h-293v-177h293z" />
    <glyph glyph-name="afii57392" unicode="&#x660;" horiz-adv-x="757" 
d="M471 340l-20 -96l-15 -74l-78 45l-69 53q2 21 20 90l10 39l19 49l41 -36l24 -21z" />
    <glyph glyph-name="afii57393" unicode="&#x661;" horiz-adv-x="757" 
d="M471 182q0 -61 -16 -194h-17l-4 131l-8 49q-31 182 -104 326l-35 67l-54 82l21 80l25 76q38 -60 69 -117q70 -131 105 -315q18 -99 18 -185z" />
    <glyph glyph-name="afii57394" unicode="&#x662;" horiz-adv-x="757" 
d="M563 786q0 -112 -20 -170q-33 -92 -129 -86l-56 5l41 -109l23 -92l8 -39l10 -88v-39l-6 -94l-4 -82h-22q0 117 -21 186l-29 96q-6 31 -34 115l-19 45l-18 43q-29 68 -129 201l45 119q108 -140 203 -140q112 0 143 129h14z" />
    <glyph glyph-name="afii57395" unicode="&#x663;" horiz-adv-x="757" 
d="M530 565q-65 0 -100 53q-57 -73 -113 -73h-18l-8 2q35 -113 41 -152l10 -73l2 -86q2 -70 -18 -236h-23l2 53q10 246 -112 459q-9 14 -35 57l-56 80l39 142q90 -127 168 -127q107 0 158 137h8q14 -109 94 -109q74 0 95 109h14q0 -236 -148 -236z" />
    <glyph glyph-name="afii57396" unicode="&#x664;" horiz-adv-x="757" 
d="M584 119l-37 -123q-66 10 -129 27l-62 16l-34 12q-80 29 -80 68q0 63 57 149l12 19l25 26l29 35l36 39l-114 51q-68 31 -68 74q0 70 96 168q76 78 154 127l-31 -125q-119 -47 -119 -82q0 -12 95.5 -63.5t95.5 -69.5t-47 -70l-94 -100q-50 -53 -50 -78q0 -31 107 -59z" />
    <glyph glyph-name="afii57397" unicode="&#x665;" horiz-adv-x="757" 
d="M602 428q0 -115 -96 -217q-17 -16 -70 -37q-53 -12 -94 -12q-70 0 -121 33q-59 36 -59 104q0 100 82 238q61 102 125 102q80 0 156.5 -66.5t76.5 -144.5zM551 342q0 55 -87 121.5t-147 66.5q-38 0 -71 -59q-31 -51 -31 -94q0 -51 80 -76q55 -18 121 -18q135 0 135 59z
" />
    <glyph glyph-name="afii57398" unicode="&#x666;" horiz-adv-x="757" 
d="M608 170l-14 -156q-113 25 -123 189l-10 170l-4 215q-103 -27 -158 -25l-43 2q-6 2 -18 4l-21 6q-51 17 -61 64l-4 63v29l2 19v16l2 14h16q41 -78 174 -78q53 0 119 17l49 12l-12 -53l-8 -57q-5 -29 -5 -76q0 -236 76 -338q6 -8 43 -37z" />
    <glyph glyph-name="afii57399" unicode="&#x667;" horiz-adv-x="757" 
d="M662 610q-99 -57 -173 -274q-53 -158 -75 -326h-29q-18 162 -84 322q-84 205 -195 258l13 186q88 -35 155 -190q54 -123 127 -424q111 545 261 620v-172z" />
    <glyph glyph-name="afii57400" unicode="&#x668;" horiz-adv-x="757" 
d="M662 193l-13 -187q-88 37 -155 191q-56 125 -127 426q-111 -547 -261 -623v172q107 64 181 295q43 135 67 305h29q18 -156 86 -321q84 -207 193 -258z" />
    <glyph glyph-name="afii57401" unicode="&#x669;" horiz-adv-x="757" 
d="M604 150l-20 -179q-86 39 -111 213q-10 70 -10 254q-74 -69 -156 -69q-133 0 -133 137q0 22 6 49l6 27l15 30q55 117 73 138q39 41 99 41q78 0 102 -89q12 -47 17 -84l20 -235q8 -86 23 -150q22 -59 69 -83zM446 539q-20 114 -112 114q-119 0 -119 -75q0 -31 41 -54.5
t74 -23.5q55 0 116 39z" />
    <glyph glyph-name="afii57381" unicode="&#x66a;" horiz-adv-x="956" 
d="M269 1011h-179v182h179v-182zM762 1236l-488 -1396h-86l482 1396h92zM865 -132h-182v183h182v-183z" />
    <glyph glyph-name="afii63167" unicode="&#x66d;" horiz-adv-x="1077" 
d="M868 1174q0 -29 -22 -47t-55 -18q-53 0 -127 25l-74 26l-10 -30l118 -58q86 -47 86 -101q0 -28 -18.5 -47.5t-46.5 -19.5q-52 0 -158 207q-9 -6 -21 -9q22 -68 31 -102q17 -60 17 -104q0 -30 -16.5 -50t-48.5 -20q-31 0 -47.5 19.5t-16.5 50.5q0 45 18 100t36 106l-27 9
q-34 -64 -67 -127q-46 -80 -94 -80q-28 0 -46 19t-18 48q0 54 86 100q8 4 121 59q-8 16 -11 30q-67 -23 -100 -33q-59 -18 -102 -18q-33 0 -54.5 17.5t-21.5 47.5q0 31 21 49t55 18q44 0 97.5 -18.5t104.5 -36.5q3 16 11 34q-61 28 -121 57q-86 45 -86 99q0 29 18 49t46 20
q47 0 93 -80q40 -76 68 -128l25 8q-2 9 -25 76q-27 81 -27 130q0 30 16.5 51.5t47.5 21.5q32 0 48.5 -21t16.5 -52q0 -45 -18.5 -99.5t-35.5 -104.5l27 -10q63 122 66 127q46 81 92 81q29 0 47 -20t18 -49q0 -53 -85 -98q-73 -36 -119 -58l10 -34q65 24 98 35q60 20 103 20
q35 0 56 -17.5t21 -49.5zM563 1174q0 18 -11 29t-29 11q-17 0 -28 -11t-11 -29q0 -16 11 -28t28 -12t28.5 11.5t11.5 28.5z" />
    <glyph glyph-name="aekurdi" unicode="&#x6d5;" horiz-adv-x="460" 
d="M399 346q0 -76 -38.5 -168t-92.5 -151q-67 -74 -133 -74q-108 37 -108 166q0 71 16 114l41 107l2 14q0 13 4 23l49 117q33 77 74 77q80 0 135 -75q51 -68 51 -150zM299 207q0 43 -41 76.5t-86 33.5q-33 0 -63 -61q-7 -12 -23 -61q0 -64 66 -93q28 -8 36 -8q48 0 79.5 33
t31.5 80z" />
    <glyph glyph-name="afii62843" unicode="&#x6f4;" horiz-adv-x="1033" 
d="M865 -52h-423q-127 0 -206 67q-75 64 -75 158q0 201 269 474q-168 107 -168 264q0 109 144 196q102 62 310 128l54 -121q-101 -24 -200 -74q-140 -69 -140 -137q0 -48 80 -94q88 -51 200 -51v-95q-147 -81 -256 -204q-113 -128 -113 -221q0 -79 74 -103q38 -12 140 -12
h310v-175z" />
    <glyph glyph-name="afii62844" unicode="&#x6f5;" horiz-adv-x="1033" 
d="M964 274q0 -359 -471 -359q-429 0 -429 355q0 268 277 693l-117 98l74 141q264 -202 451 -445q215 -280 215 -483zM806 288q0 103 -127 291q-117 173 -235 272q-228 -363 -228 -584q0 -84 72.5 -130.5t199.5 -46.5q142 0 211 30q107 45 107 168z" />
    <glyph glyph-name="afii62845" unicode="&#x6f6;" horiz-adv-x="1033" 
d="M971 754q-295 -152 -491 -384q-157 -186 -286 -474l-121 128q147 299 394 580q-56 -9 -104 -9q-131 0 -197 67q-55 57 -55 145q0 137 174 287q157 135 298 135q84 0 151 -57l-49 -106q-60 25 -112 25q-99 0 -208 -99q-96 -87 -96 -132q0 -60 31.5 -81.5t119.5 -21.5
q161 0 497 139z" />
    <glyph glyph-name="afii57506" unicode="&#x67e;" horiz-adv-x="1488" 
d="M61 16q-14 35 -14 111l14 111q15 108 45 108q17 0 17 -14l-8 -62q0 -100 149 -145q113 -35 230 -25l51 4l73 2q46 3 119 11l84 10q121 14 176 27l76 16q53 12 133 41l39 14q101 37 164 117l53 68l8 -4q5 -5 9 -17l-2 -6l-4 -14l-25 -60l-12 -20l-29 -49
q-74 -127 -285 -217q-80 -35 -180 -54q-24 -4 -104 -20q-230 -45 -414 -45q-318 0 -363 112zM705 -647q0 24 51 94t71 70q19 0 59 -23.5t40 -40.5l-99 -145q-12 -19 -18 -23l-53 33zM569 -420q0 33 51.5 94.5t84.5 61.5l36 -21q31 -18 50 -22q8 0 63 71q25 33 53 33
q21 0 72 -25.5t53 -41.5l-59 -76q-58 -74 -72 -74q-4 0 -49 26.5t-59 26.5q-9 0 -62 -60t-61 -60l-29 12l-23 12q-49 27 -49 43z" />
    <glyph glyph-name="afii57505" unicode="&#x6a4;" horiz-adv-x="1685" 
d="M414 -219q-328 -10 -328 252q0 274 47 274q10 0 17 -12l4 -37l-2 -57l2 -27q12 -65 102 -123.5t367 -54.5l112 2l111 4q41 0 155 8q134 15 236 49l66 23q86 20 178 68q108 55 108 100q0 47 -47 59l-33 -10l-18 -4q-100 0 -100 104q0 13 16 66q55 182 127 182
q39 0 100 -90q43 -61 43 -143q0 -111 -82 -236q-67 -102 -170 -186q-135 -109 -381 -154l-135 -24q-18 -4 -57 -9l-82 -10q-41 -4 -147 -8zM1539 1143q0 -23 -53 -94.5t-72 -71.5q-20 0 -60 24.5t-40 42.5l18 25l41 59l41 58q13 22 19 24zM1674 915q0 -18 -47 -81
q-55 -74 -88 -74l-39 20q-43 23 -49 23q-8 0 -49 -51.5t-66 -51.5q-20 0 -73.5 26t-53.5 40l58 76q57 75 74 75q6 0 50 -25.5t56 -27.5q10 0 62.5 60.5t64.5 60.5l27 -12l22 -13q51 -28 51 -45z" />
    <glyph glyph-name="afii57507" unicode="&#x686;" horiz-adv-x="1193" 
d="M422 -618q-170 0 -299 119.5t-129 287.5q0 211 160 520q73 142 202 246q68 53 240 190q0 17 -96 29l-45 6l-54 6q-45 0 -90 -41l-80 -94q-6 0 -14 11l-6 8l-2 6l33 59q37 68 107.5 121t139.5 53q64 0 177 -16q143 -21 143 -53q0 -45 -78 -107l-174 -106
q-111 -68 -176 -140q-264 -286 -264 -493q0 -189 133 -301q125 -107 317 -107h11l61 4q6 0 23 2l49 11q196 41 295 145q45 51 57 86l57 109l17 18q18 21 28 21q13 0 13 -23q0 -39 -25 -84l-23 -41l-75 -117q-99 -151 -274 -243t-359 -92zM555 -61q0 24 51 93.5t72 69.5
q18 0 58 -23.5t40 -39.5l-98 -145q-12 -19 -19 -23l-53 33zM420 166q0 33 51 94.5t84 61.5l37 -21q31 -18 49 -22q8 0 64 71q24 33 51 33q20 0 72.5 -25.5t54.5 -42.5l-60 -75q-57 -74 -71 -74q-4 0 -50.5 26.5t-58.5 26.5q-8 0 -61.5 -60.5t-61.5 -60.5l-28 13l-23 12
q-49 27 -49 43z" />
    <glyph glyph-name="afii57508" unicode="&#x698;" horiz-adv-x="374" 
d="M246 272q-13 -30 -41 -98q-45 -100 -137 -133l-82 -29l-97 -30q-69 -23 -92 -23q-16 0 -22 14q0 21 51 54l123 77q51 33 119 95q10 8 36 34q66 68 101 146l8 18l16 41l25 70l20 80q7 24 31 74l27 53h14v-58q0 -73 -24 -168l-11 -38q-4 -19 -10 -33l-10 -39l-17 -37z
M393 1270q0 -23 -53 -94.5t-72 -71.5q-20 0 -60 24.5t-40 42.5l18 25l41 59l41 58q13 22 19 24zM528 1042q0 -18 -47 -81q-55 -74 -88 -74l-39 20q-43 23 -49 23q-8 0 -49 -51.5t-66 -51.5q-20 0 -73.5 26t-53.5 40l58 76q57 75 74 75q6 0 50 -25.5t56 -27.5q10 0 62.5 60.5
t64.5 60.5l27 -12l22 -13q51 -28 51 -45z" />
    <glyph glyph-name="afii57567" unicode="&#x6a9;" horiz-adv-x="1413" 
d="M385 -109q-379 0 -362 193l8 102q8 101 30 133q7 13 17 13q8 0 12 -4l4 -11l-2 -4l-2 -14v-14q0 -207 279 -207q387 0 563 61l123 43q147 51 135 226l-4 57v53l-6 125q-4 70 26 178q76 275 307 408q76 43 259 125l215 96q47 20 129 76h30l6 -17q0 -47 -192 -170
q-164 -104 -238 -137q-272 -119 -299 -135q-133 -82 -133 -184l-6 -52l-6 -86l-2 -71l-4 -268q-2 -193 -199 -334q-250 -181 -688 -181z" />
    <glyph glyph-name="afii57509" unicode="&#x6af;" horiz-adv-x="1413" 
d="M385 -109q-379 0 -362 193l8 102q8 101 30 133q7 13 17 13q8 0 12 -4l4 -11l-2 -4l-2 -14v-14q0 -207 279 -207q387 0 563 61l123 43q147 51 135 226l-4 57v53l-6 125q-4 70 26 178q76 275 307 408q76 43 259 125l215 96q47 20 129 76h30l6 -17q0 -47 -192 -170
q-164 -104 -238 -137q-272 -119 -299 -135q-133 -82 -133 -184l-6 -52l-6 -86l-2 -71l-4 -268q-2 -193 -199 -334q-250 -181 -688 -181zM1911 1501q0 -53 -29 -67l-483 -238q0 57 51 82z" />
    <glyph glyph-name="afii57555" unicode="&#x6cc;" horiz-adv-x="1148" 
d="M233 582l21 41q10 26 29 26q18 0 18 -26l-8 -21l-27 -59q-24 -54 -67 -160l-27 -104q-10 -41 -10 -89q0 -151 85 -235t236 -84q97 0 219 80q134 88 134 178q0 21 -83 79t-83 101q0 27 8 62l2 20l10 43q2 4 6 35q2 8 11 31l28 78l35 73q14 31 82 107q160 180 221 180
q45 0 45 -41q0 -133 -108 -156l-82 -16q-21 -4 -88 -74q-80 -84 -80 -149q0 -17 88 -69t88 -111q0 -119 -64 -261q-59 -129 -145 -229q-106 -123 -217 -162q-59 -20 -143 -20q-123 0 -212 96t-89 219v35q0 12 4 51q26 256 163 531z" />
    <glyph glyph-name="afii52400" unicode="&#x622;" horiz-adv-x="362" 
d="M469 1196h-82q-35 0 -47 -6l-129 -62l-25 -8l-28 -6l-29 -2q-70 -4 -143 47q-25 17 -25 27l53 -10q54 -11 78 -11q47 0 120 36t116 36q78 0 141 -41zM61 66l54 608q0 33 47 180q12 41 61 178l2 4q4 4 8 4q7 -2 9 -6v-10l-4 -57v-23l-9 -47l-20 -156l-25 -219l-2 -53v-41
l-2 -8v-14l-4 -17v-24q0 -62 -18 -136q-6 -26 -37 -69q-39 -56 -43 -64l-8 -22q-4 -6 -9 -8z" />
    <glyph glyph-name="afii57411" unicode="&#x623;" horiz-adv-x="266" 
d="M72 96q41 90 78 193l6 30l10 50q0 14 4 82l2 51l6 45l12 80l19 176l33 379l-9 6l-8 -4l-2 -4q-14 -27 -61 -205t-47 -205q0 -49 -17 -213l-49 -491h4q6 0 8 8zM311 1600q0 -25 -21 -45q-45 -45 -45 -66q19 -34 37 -77q-20 -58 -37 -84q-51 -84 -106 -84l-21 4q-8 2 -8 12
q0 2 36 34t36 60q0 12 -15 39l-12 19l-4 14q0 31 52 112.5t79 81.5q29 0 29 -20z" />
    <glyph glyph-name="afii57412" unicode="&#x624;" horiz-adv-x="395" 
d="M-123 -84q0 16 103 90q55 39 94 74l100 88q27 25 51 65l23 39q4 11 8 29q0 12 -16 14l-21 -2l-22 -6l-25 -4l-22 -2q-101 -8 -101 111q0 34 57.5 142t83.5 108q33 0 86 -52q66 -63 66 -155v-64q-2 -12 -4 -18q0 -17 -14 -82q-25 -115 -76 -201q-27 -45 -119 -96
q-35 -21 -63 -31l-89 -35l-81 -26l-7 -4h-4q-6 0 -10 12zM199 979q0 -25 -21 -45q-45 -45 -45 -66q19 -34 37 -77q-20 -58 -37 -84q-51 -84 -106 -84l-21 4q-8 2 -8 12q0 2 36 34t36 60q0 12 -15 39l-12 19l-4 14q0 31 52 112.5t79 81.5q29 0 29 -20z" />
    <glyph glyph-name="afii57413" unicode="&#x625;" horiz-adv-x="266" 
d="M72 96q41 90 78 193l6 30l10 50q0 14 4 82l2 51l6 45l12 80l19 176l33 379l-9 6l-8 -4l-2 -4q-14 -27 -61 -205t-47 -205q0 -49 -17 -213l-49 -491h4q6 0 8 8zM250 126q0 -25 -21 -45q-45 -45 -45 -66q19 -34 37 -77q-20 -58 -37 -84q-51 -84 -106 -84l-21 4q-8 2 -8 12
q0 2 36 34t36 60q0 12 -15 39l-12 19l-4 14q0 31 52 112.5t79 81.5q29 0 29 -20z" />
    <glyph glyph-name="afii57414" unicode="&#x626;" horiz-adv-x="1148" 
d="M233 582l21 41q10 26 29 26q18 0 18 -26l-8 -21l-27 -59q-24 -54 -67 -160l-27 -104q-10 -41 -10 -89q0 -151 85 -235t236 -84q97 0 219 80q134 88 134 178q0 21 -83 79t-83 101q0 27 8 62l2 20l10 43q2 4 6 35q2 8 11 31l28 78l35 73q14 31 82 107q160 180 221 180
q45 0 45 -41q0 -133 -108 -156l-82 -16q-21 -4 -88 -74q-80 -84 -80 -149q0 -17 88 -69t88 -111q0 -119 -64 -261q-59 -129 -145 -229q-106 -123 -217 -162q-59 -20 -143 -20q-123 0 -212 96t-89 219v35q0 12 4 51q26 256 163 531zM662 1109q0 -19 -33 -56t-33 -55l19 -37
l10 -18l8 -23l-14 -37q-2 -6 -25 -47q-45 -84 -106 -84l-21 2q-6 4 -6 15l36 33.5t36 62.5q0 8 -11 27l-18 34l-2 9q0 32 51 113t80 81t29 -20z" />
    <glyph glyph-name="afii57415" unicode="&#x627;" horiz-adv-x="266" 
d="M72 96q41 90 78 193l6 30l10 50q0 14 4 82l2 51l6 45l12 80l19 176l33 379l-9 6l-8 -4l-2 -4q-14 -27 -61 -205t-47 -205q0 -49 -17 -213l-49 -491h4q6 0 8 8z" />
    <glyph glyph-name="afii57416" unicode="&#x628;" horiz-adv-x="1488" 
d="M889 -287q0 -26 -41 -55l-100 -72l-43 49l-33 35q-31 33 -54 33v10l148 140q123 -89 123 -140zM61 16q-14 35 -14 111l14 111q15 108 45 108q17 0 17 -14l-8 -62q0 -100 149 -145q113 -35 230 -25l51 4l73 2q46 3 119 11l84 10q121 14 176 27l76 16q53 12 133 41l39 14
q101 37 164 117l53 68l8 -4q5 -5 9 -17l-2 -6l-4 -14l-25 -60l-12 -20l-29 -49q-74 -127 -285 -217q-80 -35 -180 -54q-24 -4 -104 -20q-230 -45 -414 -45q-318 0 -363 112z" />
    <glyph glyph-name="afii57417" unicode="&#x629;" horiz-adv-x="461" 
d="M399 346q0 -76 -38.5 -168t-92.5 -151q-67 -74 -133 -74q-108 37 -108 166q0 71 16 114l41 107l2 14q0 13 4 23l49 117q33 77 74 77q80 0 135 -75q51 -68 51 -150zM299 207q0 43 -41 76.5t-86 33.5q-33 0 -63 -61q-7 -12 -23 -61q0 -64 66 -93q28 -8 36 -8q48 0 79.5 33
t31.5 80zM453 861q0 -32 -52.5 -93.5t-83.5 -61.5l-39 22q-30 19 -49 23q-6 0 -61 -72q-25 -33 -53 -33q-21 0 -72 26t-53 42l57 74q59 75 74 75q4 0 49 -26.5t57 -26.5q8 0 62.5 59.5t62.5 61.5l29 -12l20 -13q52 -30 52 -45z" />
    <glyph glyph-name="afii57418" unicode="&#x62a;" horiz-adv-x="1492" 
d="M1047 657q0 -32 -52.5 -93.5t-83.5 -61.5l-39 22q-30 19 -49 23q-6 0 -61 -72q-25 -33 -53 -33q-21 0 -72 26t-53 42l57 74q59 75 74 75q4 0 49 -26.5t57 -26.5q8 0 62.5 59.5t62.5 61.5l29 -12l20 -13q52 -30 52 -45zM61 16q-14 35 -14 111l14 111q15 108 45 108
q17 0 17 -14l-8 -62q0 -100 149 -145q113 -35 230 -25l51 4l73 2q46 3 119 11l84 10q121 14 176 27l76 16q53 12 133 41l39 14q101 37 164 117l53 68l8 -4q5 -5 9 -17l-2 -6l-4 -14l-25 -60l-12 -20l-29 -49q-74 -127 -285 -217q-80 -35 -180 -54q-24 -4 -104 -20
q-230 -45 -414 -45q-318 0 -363 112z" />
    <glyph glyph-name="afii57419" unicode="&#x62b;" horiz-adv-x="1515" 
d="M911 887q0 -23 -52 -94.5t-71 -71.5q-20 0 -59 23.5t-39 41.5l55 84l21 27l20 33q11 14 21 22l51 -30zM1047 657q0 -32 -52.5 -93.5t-83.5 -61.5l-39 22q-30 19 -49 23q-6 0 -61 -72q-25 -33 -53 -33q-21 0 -72 26t-53 42l57 74q59 75 74 75q4 0 49 -26.5t57 -26.5
q8 0 62.5 59.5t62.5 61.5l29 -12l20 -13q52 -30 52 -45zM61 16q-14 35 -14 111l14 111q15 108 45 108q17 0 17 -14l-8 -62q0 -100 149 -145q113 -35 230 -25l51 4l73 2q46 3 119 11l84 10q121 14 176 27l76 16q53 12 133 41l39 14q101 37 164 117l53 68l8 -4q5 -5 9 -17
l-2 -6l-4 -14l-25 -60l-12 -20l-29 -49q-74 -127 -285 -217q-80 -35 -180 -54q-24 -4 -104 -20q-230 -45 -414 -45q-318 0 -363 112z" />
    <glyph glyph-name="afii57420" unicode="&#x62c;" horiz-adv-x="1193" 
d="M758 174q0 -20 -39 -55l-101 -72q-98 119 -129 119v8l146 139l39 -30l33 -29q51 -45 51 -80zM422 -618q-170 0 -299 119.5t-129 287.5q0 211 160 520q73 142 202 246q68 53 240 190q0 17 -96 29l-45 6l-54 6q-45 0 -90 -41l-80 -94q-6 0 -14 11l-6 8l-2 6l33 59
q37 68 107.5 121t139.5 53q64 0 177 -16q143 -21 143 -53q0 -45 -78 -107l-174 -106q-111 -68 -176 -140q-264 -286 -264 -493q0 -189 133 -301q125 -107 317 -107h11l61 4q6 0 23 2l49 11q196 41 295 145q45 51 57 86l57 109l17 18q18 21 28 21q13 0 13 -23q0 -39 -25 -84
l-23 -41l-75 -117q-99 -151 -274 -243t-359 -92z" />
    <glyph glyph-name="afii57421" unicode="&#x62d;" horiz-adv-x="1021" 
d="M504 -618q-170 0 -298 118.5t-128 288.5q0 277 155 520l29 45l23 31l28 37q64 82 172 172q97 76 193 151q0 17 -96 29l-99 12q-45 0 -90 -41l-80 -94q-4 0 -14 11l-6 8l-2 6l33 59q96 174 247 174q64 0 177 -16q143 -21 143 -53q0 -45 -78 -107l-172 -106
q-149 -92 -287 -267q-155 -196 -155 -366q0 -189 133 -301q125 -107 317 -107h8l62 4q8 0 24 2l48 11q94 20 192 67q45 21 97.5 72t64.5 92l57 109l17 18q18 21 28 21t10 -23q0 -47 -22 -84q0 -2 -25 -41l-73 -117q-95 -147 -275 -241t-358 -94z" />
    <glyph glyph-name="afii57422" unicode="&#x62e;" horiz-adv-x="1193" 
d="M528 1249q0 -18 -41 -55l-100 -72l-78 86q-28 31 -51 31v10l148 140l38 -31l31 -31q53 -53 53 -78zM422 -618q-170 0 -299 119.5t-129 287.5q0 211 160 520q73 142 202 246q68 53 240 190q0 17 -96 29l-45 6l-54 6q-45 0 -90 -41l-80 -94q-6 0 -14 11l-6 8l-2 6l33 59
q37 68 107.5 121t139.5 53q64 0 177 -16q143 -21 143 -53q0 -45 -78 -107l-174 -106q-111 -68 -176 -140q-264 -286 -264 -493q0 -189 133 -301q125 -107 317 -107h11l61 4q6 0 23 2l49 11q196 41 295 145q45 51 57 86l57 109l17 18q18 21 28 21q13 0 13 -23q0 -39 -25 -84
l-23 -41l-75 -117q-99 -151 -274 -243t-359 -92z" />
    <glyph glyph-name="afii57423" unicode="&#x62f;" horiz-adv-x="487" 
d="M283 225q4 17 4 37q0 62 -37 113l-76 104l51 103q49 98 74 98q10 0 49 -59q29 -46 43 -74q31 -64 31 -119v-20l-4 -17l-8 -26q-2 -7 -19 -56q-67 -198 -151 -272q-21 -19 -84 -37l-62 -18l-57 -17l-64 -16l-20 -4q-19 0 -25 6q-12 6 -14 14l20 12l66 35q137 72 160 88
q98 62 123 125z" />
    <glyph glyph-name="afii57424" unicode="&#x630;" horiz-adv-x="487" 
d="M266 981q0 -23 -37 -49l-92 -66q-88 107 -114 107v8l131 125q30 -19 65 -53q47 -47 47 -72zM283 225q4 17 4 37q0 62 -37 113l-76 104l51 103q49 98 74 98q10 0 49 -59q29 -46 43 -74q31 -64 31 -119v-20l-4 -17l-8 -26q-2 -7 -19 -56q-67 -198 -151 -272
q-21 -19 -84 -37l-62 -18l-57 -17l-64 -16l-20 -4q-19 0 -25 6q-12 6 -14 14l20 12l66 35q137 72 160 88q98 62 123 125z" />
    <glyph glyph-name="afii57425" unicode="&#x631;" horiz-adv-x="362" 
d="M246 272q-13 -30 -41 -98q-45 -100 -137 -133l-82 -29l-97 -30q-69 -23 -92 -23q-16 0 -22 14q0 21 51 54l123 77q51 33 119 95q10 8 36 34q66 68 101 146l8 18l16 41l25 70l20 80q7 24 31 74l27 53h14v-58q0 -73 -24 -168l-11 -38q-4 -19 -10 -33l-10 -39l-17 -37z" />
    <glyph glyph-name="afii57426" unicode="&#x632;" horiz-adv-x="374" 
d="M389 891q0 -19 -47 -62l-109 -75q-110 127 -141 127v10l162 151q135 -98 135 -151zM246 272q-13 -30 -41 -98q-45 -100 -137 -133l-82 -29l-97 -30q-69 -23 -92 -23q-16 0 -22 14q0 21 51 54l123 77q51 33 119 95q10 8 36 34q66 68 101 146l8 18l16 41l25 70l20 80
q7 24 31 74l27 53h14v-58q0 -73 -24 -168l-11 -38q-4 -19 -10 -33l-10 -39l-17 -37z" />
    <glyph glyph-name="afii57427" unicode="&#x633;" horiz-adv-x="1398" 
d="M299 -582q-117 0 -206 96.5t-83 213.5l2 45l4 28l7 35q18 103 36 154l52 139l26 66q17 38 37 38q23 0 23 -28q-99 -154 -99 -301q0 -119 84 -192.5t205 -73.5q94 0 195 53q94 49 159 125q101 116 133 303l3 39l2 22l-2 64q-3 69 49 69h14l18 -4h23q55 0 94 39l23 23
l45 51q37 41 59 41l58 -14q28 0 60 62t36 62q20 0 20 -24q0 -51 -41 -117.5t-86 -87.5l-16 -2l-27 6q-16 6 -35 6q-20 0 -61 -55q-51 -70 -59 -78l-66 -26q-35 -15 -47 -72q0 -31 -10 -62l-23 -65l-14 -45l-33 -80l-27 -59q-28 -64 -88 -140q-200 -254 -444 -254z" />
    <glyph glyph-name="afii57428" unicode="&#x634;" horiz-adv-x="1398" 
d="M299 -582q-117 0 -206 96.5t-83 213.5l2 45l4 28l7 35q18 103 36 154l52 139l26 66q17 38 37 38q23 0 23 -28q-99 -154 -99 -301q0 -119 84 -192.5t205 -73.5q94 0 195 53q94 49 159 125q101 116 133 303l3 39l2 22l-2 64q-3 69 49 69h14l18 -4h23q55 0 94 39l23 23
l45 51q37 41 59 41l58 -14q28 0 60 62t36 62q20 0 20 -24q0 -51 -41 -117.5t-86 -87.5l-16 -2l-27 6q-16 6 -35 6q-20 0 -61 -55q-51 -70 -59 -78l-66 -26q-35 -15 -47 -72q0 -31 -10 -62l-23 -65l-14 -45l-33 -80l-27 -59q-28 -64 -88 -140q-200 -254 -444 -254zM1155 985
q0 -24 -51 -94t-72 -70q-18 0 -58 24.5t-40 41.5l16 22l41 62l15 18l24 39q6 10 23 25l51 -31q49 -29 51 -37zM1290 758q2 -19 -45 -82q-53 -74 -90 -74l-37 23q-33 20 -49 20q-6 0 -48 -51t-67 -51q-20 0 -73.5 25.5t-53.5 41.5l60 74q61 76 71 76q7 0 51 -26.5t58 -26.5
q8 0 60.5 60t64.5 60l49 -24q49 -25 49 -45z" />
    <glyph glyph-name="afii57429" unicode="&#x635;" horiz-adv-x="1501" 
d="M1397 623q-4 32 -33 58t-61 26q-41 0 -109 -50q-6 -4 -20 -16l-27 -25l-27 -22l-26 -29q-47 -51 -50 -63q0 -8 11 -19l12 -6h14q205 0 316 146zM86 127q0 -250 315 -250q62 0 107 12q10 0 33 9l28 10q76 26 129 69q174 140 181 377l2 84q0 25 2 29q0 41 30 41l39 -16
q17 -5 27 -5h4q14 27 43 58l37 41l24 28q13 15 121 115q39 37 66 57l35 17l32 14q33 14 58 14q74 0 74 -102q0 -22 -7 -37l-14 -35l-10 -26l-8 -19q-60 -133 -174.5 -209.5t-258.5 -76.5q-36 0 -47 -15l-12 -22l-18 -76q-78 -317 -344 -483q-136 -84 -301 -84
q-115 0 -195 106q-76 98 -76 215l10 82q31 240 138 400l10 -7q4 -4 6 -8q-2 -2 -31 -67q-10 -23 -32 -93l-19 -77l-4 -35v-35z" />
    <glyph glyph-name="afii57430" unicode="&#x636;" horiz-adv-x="1501" 
d="M1145 889q0 -19 -41 -55l-100 -72l-41 49l-19 16l-16 19q-29 33 -54 33v10l148 137q33 -18 74 -61q49 -50 49 -76zM1397 623q-4 32 -33 58t-61 26q-41 0 -109 -50q-6 -4 -20 -16l-27 -25l-27 -22l-26 -29q-47 -51 -50 -63q0 -8 11 -19l12 -6h14q205 0 316 146zM86 127
q0 -250 315 -250q62 0 107 12q10 0 33 9l28 10q76 26 129 69q174 140 181 377l2 84q0 25 2 29q0 41 30 41l39 -16q17 -5 27 -5h4q14 27 43 58l37 41l24 28q13 15 121 115q39 37 66 57l35 17l32 14q33 14 58 14q74 0 74 -102q0 -22 -7 -37l-14 -35l-10 -26l-8 -19
q-60 -133 -174.5 -209.5t-258.5 -76.5q-36 0 -47 -15l-12 -22l-18 -76q-78 -317 -344 -483q-136 -84 -301 -84q-115 0 -195 106q-76 98 -76 215l10 82q31 240 138 400l10 -7q4 -4 6 -8q-2 -2 -31 -67q-10 -23 -32 -93l-19 -77l-4 -35v-35z" />
    <glyph glyph-name="afii57431" unicode="&#x637;" horiz-adv-x="837" 
d="M705 420q0 18 -37 39q-31 12 -54 12q-34 0 -96 -39q-53 -33 -84 -65q-10 -9 -62.5 -55t-52.5 -54l5 -2l8 -2h10l80 14q141 25 246 107l18 14q19 19 19 31zM815 535l-16 -60q-23 -80 -105 -167t-159 -122l-84 -16l-185 -33l-108 -14q-31 -4 -66 -4h-49l-12 8q12 18 49 35
l123 55q39 33 110 102l33 37l27 33l16 27l12 26l11 27l8 45l10 76l6 96l2 129q0 31 6 111q0 14 5 53q8 59 57 174q24 57 24 70l15 28q14 29 22 29h4l7 -6l4 -8l-21 -86l-10 -58q-2 -57 -12 -168l-9 -92l-12 -112l-6 -43q-10 -72 -53 -211v-25l10 -2l100 72q49 34 101 55
q10 4 37 14q16 4 32 4q29 0 53.5 -21.5t24.5 -47.5z" />
    <glyph glyph-name="afii57432" unicode="&#x638;" horiz-adv-x="837" 
d="M705 420q0 18 -37 39q-31 12 -54 12q-34 0 -96 -39q-53 -33 -84 -65q-10 -9 -62.5 -55t-52.5 -54l5 -2l8 -2h10l80 14q141 25 246 107l18 14q19 19 19 31zM815 535l-16 -60q-23 -80 -105 -167t-159 -122l-84 -16l-185 -33l-108 -14q-31 -4 -66 -4h-49l-12 8q12 18 49 35
l123 55q39 33 110 102l33 37l27 33l16 27l12 26l11 27l8 45l10 76l6 96l2 129q0 31 6 111q0 14 5 53q8 59 57 174q24 57 24 70l15 28q14 29 22 29h4l7 -6l4 -8l-21 -86l-10 -58q-2 -57 -12 -168l-9 -92l-12 -112l-6 -43q-10 -72 -53 -211v-25l10 -2l100 72q49 34 101 55
q10 4 37 14q16 4 32 4q29 0 53.5 -21.5t24.5 -47.5zM774 786q0 -18 -31 -41l-71 -51l-31 35l-27 25q-26 24 -36 24v8l102 107q94 -72 94 -107z" />
    <glyph glyph-name="afii57433" unicode="&#x639;" horiz-adv-x="874" 
d="M752 584q-9 -13 -37 -23l-49 -18l-33 -17q-389 -194 -453 -546l-2 -25q-10 -117 107 -205q104 -82 225 -82q160 0 309 88q142 84 236 221l102 152h25l4 -8q0 -19 -27 -78q-88 -199 -293 -399q-106 -105 -241 -154q-13 -4 -86 -25l-23 -6l-39 -6l-37 -4h-34
q-140 0 -238 123q-94 115 -94 256q0 63 8 111q37 215 258 479l-55 37q-72 32 -72 84q0 14 72 112q59 80 90 115l96 94q70 53 137 53q31 0 60.5 -16t29.5 -43q0 -18 -12 -44t-27 -32l-61 25q-31 12 -41 12q-47 0 -106 -43q-66 -45 -66 -90q0 -33 61 -66q54 -28 93 -28
q51 0 144 40t120 77h2l8 -3l12 -8l-26 -41z" />
    <glyph glyph-name="afii57434" unicode="&#x63a;" horiz-adv-x="874" 
d="M627 1110q0 -18 -43 -57l-101 -72l-41 49l-34 37q-31 33 -54 33v10l148 137q33 -20 71 -59q54 -51 54 -78zM752 584q-9 -13 -37 -23l-49 -18l-33 -17q-389 -194 -453 -546l-2 -25q-10 -117 107 -205q104 -82 225 -82q160 0 309 88q142 84 236 221l102 152h25l4 -8
q0 -19 -27 -78q-88 -199 -293 -399q-106 -105 -241 -154q-13 -4 -86 -25l-23 -6l-39 -6l-37 -4h-34q-140 0 -238 123q-94 115 -94 256q0 63 8 111q37 215 258 479l-55 37q-72 32 -72 84q0 14 72 112q59 80 90 115l96 94q70 53 137 53q31 0 60.5 -16t29.5 -43q0 -18 -12 -44
t-27 -32l-61 25q-31 12 -41 12q-47 0 -106 -43q-66 -45 -66 -90q0 -33 61 -66q54 -28 93 -28q51 0 144 40t120 77h2l8 -3l12 -8l-26 -41z" />
    <glyph glyph-name="afii57441" unicode="&#x641;" horiz-adv-x="1685" 
d="M414 -219q-328 -10 -328 252q0 274 47 274q10 0 17 -12l4 -37l-2 -57l2 -27q12 -65 102 -123.5t367 -54.5l112 2l111 4q41 0 155 8q134 15 236 49l66 23q86 20 178 68q108 55 108 100q0 47 -47 59l-33 -10l-18 -4q-100 0 -100 104q0 13 16 66q55 182 127 182
q39 0 100 -90q43 -61 43 -143q0 -111 -82 -236q-67 -102 -170 -186q-135 -109 -381 -154l-135 -24q-18 -4 -57 -9l-82 -10q-41 -4 -147 -8zM1622 870q0 -24 -43 -55l-98 -70q-101 115 -129 115v10l145 140q125 -90 125 -140z" />
    <glyph glyph-name="afii57442" unicode="&#x642;" horiz-adv-x="1048" 
d="M578 -219q-144 -88 -265 -88q-143 0 -237 135q-60 86 -60 203q0 78 19 151l35 140q4 12 32 71l48 99q14 28 24 34q16 -2 16 -22l-26 -66q-76 -186 -76 -268q0 -125 107 -195q90 -59 223 -59q59 0 172 51q104 47 155 92q66 60 121 146q66 102 66 172q0 84 -43 84l-37 -8
q-29 -7 -41 -7q-33 0 -61 29q-19 27 -19 49q0 37 10 62l11 24l22 49l17 33q40 82 83 82q66 0 109 -86q37 -72 37 -143v-29q-4 -10 -4 -18l-8 -43l-11 -37q-16 -62 -67 -217q-103 -264 -352 -420zM1022 1049q0 -21 -45 -82q-51 -72 -90 -72l-37 20l-49 23q-8 0 -50 -52
t-67 -52q-18 0 -72.5 27.5t-54.5 39.5l59 76q58 74 74 74q4 0 49 -25t58 -29q6 0 60 60.5t65 60.5l28 -12l23 -12q49 -27 49 -45z" />
    <glyph glyph-name="afii57443" unicode="&#x643;" horiz-adv-x="1398" 
d="M385 -109q-379 0 -362 193l8 102q8 101 30 133q7 13 17 13q8 0 12 -4l4 -11l-2 -4l-2 -14v-14q0 -207 279 -207q387 0 563 61l123 43q147 51 135 226l-4 57v53l-6 125q-4 70 26 178q76 273 307 408q68 41 259 125l215 96q47 20 129 76h30l6 -17q0 -47 -192 -170
q-164 -104 -238 -137q-272 -119 -299 -135q-133 -82 -133 -184l-6 -52l-6 -86l-2 -71l-4 -268q-2 -193 -199 -334q-250 -181 -688 -181zM764 612q0 -22 -14 -32l-15 -5l-39 -20q-30 -16 -30 -47q0 -6 34.5 -20.5t34.5 -28.5q0 -39 -61.5 -92.5t-102.5 -53.5h-4l-6 4l-6 13
q16 12 51 28q51 25 51 43q0 9 -27.5 23t-27.5 29q0 18 33 65l65 94q21 29 45 29q7 0 13 -8z" />
    <glyph glyph-name="afii57444" unicode="&#x644;" horiz-adv-x="1048" 
d="M205 90q12 -6 16 -20l-22 -45q-2 -5 -21 -52q-6 -14 -20 -59l-19 -78l-4 -33l-2 -32q-6 -95 80 -168q80 -70 176 -70q103 0 215.5 63.5t171.5 149.5q101 145 107 297l8 211l16 332l8 84q15 157 76 280q17 35 31 35l8 -2q0 -14 -14 -70q-2 -6 -6 -59l-11 -117v-71
q-2 -19 -8 -72l-10 -107v-49l-8 -225q-8 -203 -84 -369l-51 -110q-43 -92 -76 -142q-180 -268 -412 -260l-55 2l-21 4q-8 0 -20 7q-25 8 -51 26q-133 97 -133 305q10 113 43 218l12 38l12 37l17 35l16 33q27 53 35 53z" />
    <glyph glyph-name="afii57445" unicode="&#x645;" horiz-adv-x="843" 
d="M303 362q19 21 119 101q72 57 102 112l41 93q25 43 72 41l41 -2l37 -9q80 -18 80 -55q0 -156 -183 -229l-182 -74q-121 -49 -180 -156q-45 -78 -72 -229l-18 -102q-6 -35 -6 -84v-54l-9 -77q-8 -78 -8 -134v-30l-2 -17l-2 -30v-25l-4 -80q-6 -110 -43 -110l-10 20l-4 23
l-2 22l2 150l6 251q2 89 10 152l10 80l11 53q47 242 194 399z" />
    <glyph glyph-name="afii57446" unicode="&#x646;" horiz-adv-x="940" 
d="M569 342q0 -18 -48 -71.5t-66 -53.5l-45 21q-48 20 -48 47q0 12 31 53q64 82 80 82q21 0 58.5 -30t37.5 -48zM719 78l53 69q21 27 37 91l8 63l4 82v31q0 71 41 168l12 28l19 29l61 100h13v-14q-23 -35 -33 -129l-23 -193l-14 -65q-10 -45 -94 -254q-27 -49 -80 -121
q-180 -242 -430 -242q-111 0 -182.5 84t-71.5 197q0 88 24 176q39 139 84 211q27 41 43 41q15 0 15 -20q-37 -66 -62 -138l-14 -43l-6 -24q-6 -25 -6 -58q0 -167 157 -225q39 -14 78 -14q101 0 205.5 47t161.5 123z" />
    <glyph glyph-name="afii57447" unicode="&#x647;" horiz-adv-x="460" 
d="M399 346q0 -76 -38.5 -168t-92.5 -151q-67 -74 -133 -74q-108 37 -108 166q0 71 16 114l41 107l2 14q0 13 4 23l49 117q33 77 74 77q80 0 135 -75q51 -68 51 -150zM299 207q0 43 -41 76.5t-86 33.5q-33 0 -63 -61q-7 -12 -23 -61q0 -64 66 -93q28 -8 36 -8q48 0 79.5 33
t31.5 80z" />
    <glyph glyph-name="afii57470" unicode="&#x6be;" horiz-adv-x="659" 
d="M606 385q0 33 -46 68.5t-81 35.5q-10 0 -14 -18l-10 -39l-6 -14l-15 -31l-22 -35l90 -18q104 0 104 51zM385 510q0 43 -78 43q-35 0 -65.5 -38t-30.5 -75q0 -24 26.5 -55t51.5 -31q43 0 71 60q25 49 25 96zM-23 262h72l47 2q23 0 48.5 16.5t25.5 38.5l-12 21l-11 25
l-4 20q0 121 43 186l21 31q16 27 18 41l4 47q7 60 27 60l59 -41l64 -39q33 -21 127 -56q82 -30 121 -61q53 -43 53 -119l-2 -16l-10 -27l-6 -14q-17 -113 -80 -144q-23 -12 -84 -16q-11 -2 -25 -2q-51 0 -84 6l-65 12l-45 -36q-136 -111 -236 -111h-66v176z" />
    <glyph glyph-name="afii57448" unicode="&#x648;" horiz-adv-x="395" 
d="M-123 -84q0 16 103 90q55 39 94 74l100 88q27 25 51 65l23 39q4 11 8 29q0 12 -16 14l-21 -2l-22 -6l-25 -4l-22 -2q-101 -8 -101 111q0 34 57.5 142t83.5 108q33 0 86 -52q66 -63 66 -155v-64q-2 -12 -4 -18q0 -17 -14 -82q-25 -115 -76 -201q-27 -45 -119 -96
q-35 -21 -63 -31l-89 -35l-81 -26l-7 -4h-4q-6 0 -10 12z" />
    <glyph glyph-name="afii57449" unicode="&#x649;" horiz-adv-x="1148" 
d="M233 582l21 41q10 26 29 26q18 0 18 -26l-8 -21l-27 -59q-24 -54 -67 -160l-27 -104q-10 -41 -10 -89q0 -151 85 -235t236 -84q97 0 219 80q134 88 134 178q0 21 -83 79t-83 101q0 27 8 62l2 20l10 43q2 4 6 35q2 8 11 31l28 78l35 73q14 31 82 107q160 180 221 180
q45 0 45 -41q0 -133 -108 -156l-82 -16q-21 -4 -88 -74q-80 -84 -80 -149q0 -17 88 -69t88 -111q0 -119 -64 -261q-59 -129 -145 -229q-106 -123 -217 -162q-59 -20 -143 -20q-123 0 -212 96t-89 219v35q0 12 4 51q26 256 163 531z" />
    <glyph glyph-name="afii57450" unicode="&#x64a;" horiz-adv-x="1148" 
d="M233 582l21 41q10 26 29 26q18 0 18 -26l-8 -21l-27 -59q-24 -54 -67 -160l-27 -104q-10 -41 -10 -89q0 -151 85 -235t236 -84q97 0 219 80q134 88 134 178q0 21 -83 79t-83 101q0 27 8 62l2 20l10 43q2 4 6 35q2 8 11 31l28 78l35 73q14 31 82 107q160 180 221 180
q45 0 45 -41q0 -133 -108 -156l-82 -16q-21 -4 -88 -74q-80 -84 -80 -149q0 -17 88 -69t88 -111q0 -119 -64 -261q-59 -129 -145 -229q-106 -123 -217 -162q-59 -20 -143 -20q-123 0 -212 96t-89 219v35q0 12 4 51q26 256 163 531zM682 -464q0 -18 -41 -73q-47 -66 -80 -66
l-35 19l-45 20q-4 0 -44 -46t-59 -46q-18 0 -65 22.5t-47 36.5l51 70q49 65 66 65q4 0 44 -23.5t52 -23.5q8 0 56 54.5t59 54.5l43 -23q45 -24 45 -41z" />
    <glyph glyph-name="uni0676" unicode="&#x676;" horiz-adv-x="395" 
d="M-123 -84q0 16 103 90q55 39 94 74l100 88q27 25 51 65l23 39q4 11 8 29q0 12 -16 14l-21 -2l-22 -6l-25 -4l-22 -2q-101 -8 -101 111q0 34 57.5 142t83.5 108q33 0 86 -52q66 -63 66 -155v-64q-2 -12 -4 -18q0 -17 -14 -82q-25 -115 -76 -201q-27 -45 -119 -96
q-35 -21 -63 -31l-89 -35l-81 -26l-7 -4h-4q-6 0 -10 12zM199 979q0 -25 -21 -45q-45 -45 -45 -66q19 -34 37 -77q-20 -58 -37 -84q-51 -84 -106 -84l-21 4q-8 2 -8 12q0 2 36 34t36 60q0 12 -15 39l-12 19l-4 14q0 31 52 112.5t79 81.5q29 0 29 -20z" />
    <glyph glyph-name="uni0695" unicode="&#x695;" horiz-adv-x="362" 
d="M246 272q-13 -30 -41 -98q-45 -100 -137 -133l-82 -29l-97 -30q-69 -23 -92 -23q-16 0 -22 14q0 21 51 54l123 77q51 33 119 95q10 8 36 34q66 68 101 146l8 18l16 41l25 70l20 80q7 24 31 74l27 53h14v-58q0 -73 -24 -168l-11 -38q-4 -19 -10 -33l-10 -39l-17 -37z
M127 -124q-41 -16 -71 -77q-22 -44 -32 -91h-12q-7 45 -35 90q-34 57 -80 72l5 52q36 -9 64 -53q23 -34 53 -119q46 153 108 174v-48z" />
    <glyph glyph-name="uniE001" unicode="&#xe001;" horiz-adv-x="790" 
d="M356 -104l-69 -76l-76 -78l-74 -66q-131 -116 -252 -170q-47 -20 -63 -22l-66 -19q-57 -16 -75 -16h-3q-6 0 -8 4l-4 8q49 37 155.5 97.5t153.5 95.5q168 123 273 237l180 199q156 172 397 172v-176q-182 0 -262 -31q-94 -37 -207 -159zM76 -638q-41 -16 -71 -77
q-22 -44 -32 -91h-12q-7 45 -35 90q-34 57 -80 72l5 52q36 -9 64 -53q23 -34 53 -119q46 153 108 174v-48z" />
    <glyph glyph-name="uni06b5" unicode="&#x6b5;" horiz-adv-x="1048" 
d="M205 90q12 -6 16 -20l-22 -45q-2 -5 -21 -52q-6 -14 -20 -59l-19 -78l-4 -33l-2 -32q-6 -95 80 -168q80 -70 176 -70q103 0 215.5 63.5t171.5 149.5q101 145 107 297l8 211l16 332l8 84q15 157 76 280q17 35 31 35l8 -2q0 -14 -14 -70q-2 -6 -6 -59l-11 -117v-71
q-2 -19 -8 -72l-10 -107v-49l-8 -225q-8 -203 -84 -369l-51 -110q-43 -92 -76 -142q-180 -268 -412 -260l-55 2l-21 4q-8 0 -20 7q-25 8 -51 26q-133 97 -133 305q10 113 43 218l12 38l12 37l17 35l16 33q27 53 35 53zM949 1101q-41 -16 -71 -77q-22 -44 -32 -91h-12
q-7 45 -35 90q-34 57 -80 72l5 52q36 -9 64 -53q23 -34 53 -119q46 153 108 174v-48z" />
    <glyph glyph-name="uniE007" unicode="&#xe007;" horiz-adv-x="985" 
d="M850 119q-16 -142 -31 -201l-26 -115l-21 -59l-24 -61q-52 -127 -107 -197l-33 -41l-37 -39q-82 -86 -215 -129q-51 -16 -84 -16q-116 0 -192 102q-66 92 -66 215l9 78q18 168 102 283l18 36q21 39 33 39q8 0 8 -22q-88 -207 -88 -289q0 -100 66.5 -160.5t169.5 -60.5
q112 0 207 53q202 156 211 344l34 719q9 184 78 285q23 32 29 35v-44q-6 -22 -14 -122l-19 -211l-8 -166q-2 -45 40 -79t89 -34h43v-176h-41q-49 0 -96 16q-8 2 -35 17zM827 1021q-41 -16 -71 -77q-22 -44 -32 -91h-12q-7 45 -35 90q-34 57 -80 72l5 52q36 -9 64 -53
q23 -34 53 -119q46 153 108 174v-48z" />
    <glyph glyph-name="uniE008" unicode="&#xe008;" horiz-adv-x="350" 
d="M45 86l-74 4v172h74q150 0 201 148q30 88 30 272q0 129 48 268q38 115 75 156l11 -8q-13 -39 -29 -166q-8 -66 -23 -217l-14 -150q-10 -114 -96 -286q-98 -199 -203 -193zM446 1291q-41 -16 -71 -77q-22 -44 -32 -91h-12q-7 45 -35 90q-34 57 -80 72l5 52q36 -9 64 -53
q23 -34 53 -119q46 153 108 174v-48z" />
    <glyph glyph-name="uniE009" unicode="&#xe009;" horiz-adv-x="544" 
d="M457 1196q-11 -6 -31 -154l-20 -141l-21 -158q-20 -157 -20 -286v-27l4 -55q2 -13 8 -21l29 -39q38 -53 129 -53h53v-176h-56q-176 0 -223 211l-8 74l-8 8l-10 4l-52 -94q-36 -64 -77 -125q-54 -78 -105 -78h-74v176h76q51 0 133 86q72 80 92 137q17 45 23 152l14 225
q4 56 9 101q6 30 18 63zM477 1360q-41 -16 -71 -77q-22 -44 -32 -91h-12q-7 45 -35 90q-34 57 -80 72l5 52q36 -9 64 -53q23 -34 53 -119q46 153 108 174v-48z" />
    <glyph glyph-name="uni06c6" unicode="&#x6c6;" horiz-adv-x="395" 
d="M-123 -84q0 16 103 90q55 39 94 74l100 88q27 25 51 65l23 39q4 11 8 29q0 12 -16 14l-21 -2l-22 -6l-25 -4l-22 -2q-101 -8 -101 111q0 34 57.5 142t83.5 108q33 0 86 -52q66 -63 66 -155v-64q-2 -12 -4 -18q0 -17 -14 -82q-25 -115 -76 -201q-27 -45 -119 -96
q-35 -21 -63 -31l-89 -35l-81 -26l-7 -4h-4q-6 0 -10 12zM296 892q-41 -16 -71 -77q-22 -44 -32 -91h-12q-7 45 -35 90q-34 57 -80 72l5 52q36 -9 64 -53q23 -34 53 -119q46 153 108 174v-48z" />
    <glyph glyph-name="uni06ce" unicode="&#x6ce;" horiz-adv-x="1148" 
d="M233 582l21 41q10 26 29 26q18 0 18 -26l-8 -21l-27 -59q-24 -54 -67 -160l-27 -104q-10 -41 -10 -89q0 -151 85 -235t236 -84q97 0 219 80q134 88 134 178q0 21 -83 79t-83 101q0 27 8 62l2 20l10 43q2 4 6 35q2 8 11 31l28 78l35 73q14 31 82 107q160 180 221 180
q45 0 45 -41q0 -133 -108 -156l-82 -16q-21 -4 -88 -74q-80 -84 -80 -149q0 -17 88 -69t88 -111q0 -119 -64 -261q-59 -129 -145 -229q-106 -123 -217 -162q-59 -20 -143 -20q-123 0 -212 96t-89 219v35q0 12 4 51q26 256 163 531zM647 861q-41 -16 -71 -77q-22 -44 -32 -91
h-12q-7 45 -35 90q-34 57 -80 72l5 52q36 -9 64 -53q23 -34 53 -119q46 153 108 174v-48z" />
    <glyph glyph-name="uniE004" unicode="&#xe004;" horiz-adv-x="1038" 
d="M1069 86h-45q-236 0 -236 -98q0 -13 77 -63t77 -101q0 -94 -49 -217q-8 -23 -39 -86q-84 -178 -168 -260q-45 -43 -131 -90q-111 -60 -193 -60q-161 0 -251 107q-84 98 -84 264q0 194 123 438q45 90 69 125l72 102l8 -6q23 -16 23 -22q-11 -21 -48 -82l-49 -82
q-4 -6 -20 -41l-19 -43q-49 -115 -49 -195l-4 -10q-10 -39 -10 -67q0 -56 33.5 -115t81.5 -94q69 -52 163 -52q250 0 400 207q53 74 53 113q0 18 -45 33q-61 20 -86 39q-45 34 -45 104q0 82 53 186q49 99 115 160q86 82 178 82h45v-176zM675 278q-41 -16 -71 -77
q-22 -44 -32 -91h-12q-7 45 -35 90q-34 57 -80 72l5 52q36 -9 64 -53q23 -34 53 -119q46 153 108 174v-48z" />
    <glyph glyph-name="uniE005" unicode="&#xe005;" horiz-adv-x="385" 
d="M367 18q0 -18 -41 -73q-47 -66 -80 -66l-35 19l-45 20q-4 0 -44 -46t-59 -46q-18 0 -65 22.5t-47 36.5l51 70q49 65 66 65q4 0 44 -23.5t52 -23.5q8 0 56 54.5t59 54.5l43 -23q45 -24 45 -41zM39 86h-59v176h94l10 2h10q8 0 21 4q43 8 61 37l8 49l9 56q6 45 59 131
q43 69 82 112l4 -8l4 -14l-33 -99q0 -34 -26 -116l-31 -94q-21 -62 -86 -144q-76 -92 -127 -92zM232 829q-41 -16 -71 -77q-22 -44 -32 -91h-12q-7 45 -35 90q-34 57 -80 72l5 52q36 -9 64 -53q23 -34 53 -119q46 153 108 174v-48z" />
    <glyph glyph-name="uniE006" unicode="&#xe006;" horiz-adv-x="456" 
d="M463 -61q0 -23 -45 -84q-51 -72 -90 -72l-37 20l-51 23q-9 0 -62 -72q-24 -33 -51 -33q-21 0 -74 26t-53 42l57 76q56 74 74 74q6 0 50 -27t57 -27q8 0 62 60.5t65 60.5q24 -8 49 -24q49 -33 49 -43zM233 172q-57 -55 -114 -68l-56 -12q-28 -6 -40 -6h-43v176h69
q94 0 119 10q33 15 76 86l35 58l32 47l25 22l8 -6q-53 -145 -53 -182v-23q0 -12 155 -12h50v-176h-47q-95 0 -148 33l-27 16l-24 17zM285 762q-41 -16 -71 -77q-22 -44 -32 -91h-12q-7 45 -35 90q-34 57 -80 72l5 52q36 -9 64 -53q23 -34 53 -119q46 153 108 174v-48z" />
    <glyph glyph-name="aekurdiFinal" unicode="&#xe000;" horiz-adv-x="436" 
d="M193 256l40 31q35 26 89 26q6 0 32.5 -18.5t31.5 -20.5t11 -6l19 -4l18 -2h35v-176h-35l-78 6q-22 10 -69 29l-29 6l-29 2q-90 6 -168 -137l-26 -49l-4 -2h-8q-7 0 -13 12l2 10l8 31l7 12l8 19l22 53l31 51q37 61 105 127z" />
    <glyph glyph-name="nonJoiner" unicode="&#x200c;" horiz-adv-x="0" 
 />
    <glyph glyph-name="glyph330" horiz-adv-x="0" 
 />
    <glyph glyph-name="uniF001" unicode="&#xf001;" horiz-adv-x="3393" 
d="M2725 2282h-11h-12h-11h-14l-95 -8v-30q72 -2 117 -42l12 -37v-209q-173 78 -303 -30q-147 -155 -76 -347q145 -273 367 -91q16 -9 15 -57h15q25 1 42 5h14h12l27 4l83 3v34q-66 -4 -95 46v30v30v30v76v11v11v118v26v22v26v23v20v22v15v69v41v15v15v15v15v65v11v45l-4 11
h-11h-12h-48q-6 -4 -12 -3zM424 2176q65 -2 102 -46v-487q5 -89 -7 -147q-47 -29 -95 -26v-39h16h14h12h75h12h67h12h117v39q-56 6 -94 30q-9 23 -12 41v19v16v64v41v15v64v12v45q20 -2 30 -11l34 -42l12 -11l11 -12l8 -7l8 -11q25 -28 37 -50l12 -7l7 -16q33 -27 45 -56
q7 -4 8 -7q18 -20 27 -34q13 -16 18 -30l8 -4l4 -8l7 -8l4 -7l7 -12q23 -30 35 -53h14h20h49h15h65h10h46v39q-55 5 -95 26q-29 23 -45 41q-26 22 -38 46l-15 18l-15 16l-7 7q-12 20 -27 35l-7 14l-12 8l-27 38l-7 7l-11 11l-5 12q-6 4 -7 7q-6 4 -7 8l-7 8l-9 11q-6 4 -7 7
l-19 23q-34 30 -48 60l14 12l19 18l11 16l34 30l12 15l7 12l12 11q15 13 22 26l12 12l11 11q13 17 26 26q4 6 8 8l4 8l4 7l7 8l11 7q23 34 49 53q57 24 106 23v37h-15h-15h-12h-67h-50h-14h-65h-11h-46v-37q50 1 83 -20q-1 -27 -10 -48l-4 -8l-7 -11l-9 -7q-21 -34 -44 -53
l-5 -12q-21 -18 -30 -34l-11 -11l-11 -8q-38 -47 -76 -71q-3 -8 -7 -8q-25 -27 -46 -42q-12 -6 -23 -7v14v20v15v68v15v15v16v63v11v46l12 34q49 24 94 23v37h-15h-15h-12h-75h-12h-67h-12h-117v-37zM2034 1896l-4 7q5 46 -7 80h-27q-12 -4 -23 -4h-19q-35 -4 -60 -3
q-29 -5 -53 -4v-38q59 1 83 -45l5 -16v-230q5 -94 -9 -155q-36 -21 -71 -18v-39h15h19h14h20h15h18h50h15h64h30h27v39q-63 -4 -102 30q-5 29 -4 53v48v16v67v16v16v14v64v12v44q49 69 122 76q-17 -96 74 -90q86 92 -18 151h-49q-80 -32 -125 -91zM1312 1979h-15h-12h-10
l-12 -3h-11l-76 -4v-38q58 -3 83 -45l4 -345l22 -63q39 -43 84 -61q137 -9 219 87l7 -4v-10q-1 -35 5 -62h41l15 5l64 4h30q14 3 27 3v34q-54 2 -80 42l-3 22v23v12v48v65v14v64v50v15v41v27v12v11q1 35 -4 60h-12l-41 -4h-15h-19l-8 -3h-30l-75 -4v-38q58 7 94 -27l7 -18
v-336q-42 -53 -94 -72q-165 -17 -136 181v15v12v75v12v67v12v117l-11 11h-22zM2711 1862v-325q-35 -37 -76 -53q-192 -29 -212 175q-24 207 125 290q116 10 163 -87zM1381 1261q65 -3 109 -33q13 -61 7 -106v-390q5 -89 -7 -147q-54 -36 -109 -30v-37h53h48h15h68h16h14h16
h64h12h44v37q-65 5 -109 34l-8 16v117v53v10v20v11v15v11v76v11v12v49v11v37v13v37q-5 90 8 147q55 31 109 26v39h-53h-48h-16h-67h-16h-14h-16h-64h-12h-44v-39zM1887 1058h-16h-11h-76v-50h12h11h76v-403l23 -60q106 -73 246 -5v38q-94 -26 -156 27l-3 7l-4 26l-4 23v18
v23v16v67v43v14v16v14v16v64v12v44h11h11h19h11h16h11h76v50h-11h-12h-18h-12h-15h-12h-75v30v11v12v117h-12h-11h-75v-170zM182 80q91 -386 491 -317q6 3 12 3l15 4l12 4l11 3l11 4l15 3l94 35l-3 30v11v50v10v46q-4 52 12 91q42 25 90 26v37h-26h-53h-11h-69h-49h-15h-64
h-12h-45v-37q74 3 125 -34l3 -12l4 -10v-140l-4 -41q-90 -56 -189 -46q-286 94 -219 476q63 325 355 223q103 -93 126 -220h41v16v22v15v16v64v19l-4 11v15v12v14v69q-48 7 -64 -34q-129 63 -253 53q-388 -96 -337 -491zM1455 0q48 -233 265 -246q230 22 261 239
q26 338 -298 336q-251 -70 -228 -329zM2900 253q-16 34 -9 64l-14 5h-19q-21 -8 -38 -5h-15q-16 -6 -31 -4l-75 -3v-38q59 1 86 -42q8 -34 5 -64v-430q5 -94 -8 -155q-42 -23 -83 -20v-37h19h64h15h20h48h15h64h30h27v37q-60 0 -101 31l-5 15l-4 16v11v14v12v20v10v16v11v76
q288 -117 382 170q58 304 -203 366h-20h-14h-12q-77 -27 -124 -76zM1179 234q-6 3 -7 8v11q3 41 -3 69h-27q-12 -5 -23 -5h-18q-36 -5 -61 -4q-29 -5 -52 -3v-38q50 -2 78 -38l5 -18v-265q5 -76 -8 -128q-38 -17 -72 -16v-37h15h19h15h19h16h18h49h16h64h10h46v37
q-58 -1 -99 27l-3 19l-4 18v118v53v11v19v11v16v11v76q50 69 125 79q-21 -96 75 -92q78 93 -18 152h-53q-77 -33 -122 -91zM2189 317h-11h-19q-36 -5 -60 -4q-31 -5 -53 -3v-38q62 0 86 -49l11 -374q48 -94 140 -91q111 6 175 88q14 -36 7 -69q14 -7 30 -7h16l14 4h42
q5 3 11 3h11l61 4v33q-51 4 -79 39q-5 21 -4 41v16v10v20v11v15v11v76v16v14v68v15v16v14v64v12v45l-19 5h-16q-14 -8 -30 -5h-18q-38 -5 -65 -4h-11q-21 -6 -46 -3v-38q55 4 91 -23l8 -15l4 -22v-322q-42 -53 -95 -67q-80 -22 -124 41v12q-11 20 -11 44v13v74v50v15v68v15
v15v16v63v11v46q-6 13 -20 16h-15q-5 -5 -11 -5zM1867 117q47 -212 -97 -313q-182 -32 -200 182q-32 227 120 301q171 3 177 -170zM3156 147q36 -141 -12 -257q-37 -86 -124 -94q-93 8 -129 87v23v14v69v41v16v14v16v14v65v11v46q47 46 103 60q133 -5 162 -125z" />
    <glyph glyph-name="uniF002" unicode="&#xf002;" horiz-adv-x="3393" 
d="M2725 2282h-11h-12h-11h-14l-95 -8v-30q72 -2 117 -42l12 -37v-209q-173 78 -303 -30q-147 -155 -76 -347q145 -273 367 -91q16 -9 15 -57h15q25 1 42 5h14h12l27 4l83 3v34q-66 -4 -95 46v30v30v30v76v11v11v118v26v22v26v23v20v22v15v69v41v15v15v15v15v65v11v45l-4 11
h-11h-12h-48q-6 -4 -12 -3zM424 2176q65 -2 102 -46v-487q5 -89 -7 -147q-47 -29 -95 -26v-39h16h14h12h75h12h67h12h117v39q-56 6 -94 30q-9 23 -12 41v19v16v64v41v15v64v12v45q20 -2 30 -11l34 -42l12 -11l11 -12l8 -7l8 -11q25 -28 37 -50l12 -7l7 -16q33 -27 45 -56
q7 -4 8 -7q18 -20 27 -34q13 -16 18 -30l8 -4l4 -8l7 -8l4 -7l7 -12q23 -30 35 -53h14h20h49h15h65h10h46v39q-55 5 -95 26q-29 23 -45 41q-26 22 -38 46l-15 18l-15 16l-7 7q-12 20 -27 35l-7 14l-12 8l-27 38l-7 7l-11 11l-5 12q-6 4 -7 7q-6 4 -7 8l-7 8l-9 11q-6 4 -7 7
l-19 23q-34 30 -48 60l14 12l19 18l11 16l34 30l12 15l7 12l12 11q15 13 22 26l12 12l11 11q13 17 26 26q4 6 8 8l4 8l4 7l7 8l11 7q23 34 49 53q57 24 106 23v37h-15h-15h-12h-67h-50h-14h-65h-11h-46v-37q50 1 83 -20q-1 -27 -10 -48l-4 -8l-7 -11l-9 -7q-21 -34 -44 -53
l-5 -12q-21 -18 -30 -34l-11 -11l-11 -8q-38 -47 -76 -71q-3 -8 -7 -8q-25 -27 -46 -42q-12 -6 -23 -7v14v20v15v68v15v15v16v63v11v46l12 34q49 24 94 23v37h-15h-15h-12h-75h-12h-67h-12h-117v-37zM2034 1896l-4 7q5 46 -7 80h-27q-12 -4 -23 -4h-19q-35 -4 -60 -3
q-29 -5 -53 -4v-38q59 1 83 -45l5 -16v-230q5 -94 -9 -155q-36 -21 -71 -18v-39h15h19h14h20h15h18h50h15h64h30h27v39q-63 -4 -102 30q-5 29 -4 53v48v16v67v16v16v14v64v12v44q49 69 122 76q-17 -96 74 -90q86 92 -18 151h-49q-80 -32 -125 -91zM1312 1979h-15h-12h-10
l-12 -3h-11l-76 -4v-38q58 -3 83 -45l4 -345l22 -63q39 -43 84 -61q137 -9 219 87l7 -4v-10q-1 -35 5 -62h41l15 5l64 4h30q14 3 27 3v34q-54 2 -80 42l-3 22v23v12v48v65v14v64v50v15v41v27v12v11q1 35 -4 60h-12l-41 -4h-15h-19l-8 -3h-30l-75 -4v-38q58 7 94 -27l7 -18
v-336q-42 -53 -94 -72q-165 -17 -136 181v15v12v75v12v67v12v117l-11 11h-22zM2711 1862v-325q-35 -37 -76 -53q-192 -29 -212 175q-24 207 125 290q116 10 163 -87zM1381 1261q65 -3 109 -33q13 -61 7 -106v-390q5 -89 -7 -147q-54 -36 -109 -30v-37h53h48h15h68h16h14h16
h64h12h44v37q-65 5 -109 34l-8 16v117v53v10v20v11v15v11v76v11v12v49v11v37v13v37q-5 90 8 147q55 31 109 26v39h-53h-48h-16h-67h-16h-14h-16h-64h-12h-44v-39zM1887 1058h-16h-11h-76v-50h12h11h76v-403l23 -60q106 -73 246 -5v38q-94 -26 -156 27l-3 7l-4 26l-4 23v18
v23v16v67v43v14v16v14v16v64v12v44h11h11h19h11h16h11h76v50h-11h-12h-18h-12h-15h-12h-75v30v11v12v117h-12h-11h-75v-170zM182 80q91 -386 491 -317q6 3 12 3l15 4l12 4l11 3l11 4l15 3l94 35l-3 30v11v50v10v46q-4 52 12 91q42 25 90 26v37h-26h-53h-11h-69h-49h-15h-64
h-12h-45v-37q74 3 125 -34l3 -12l4 -10v-140l-4 -41q-90 -56 -189 -46q-286 94 -219 476q63 325 355 223q103 -93 126 -220h41v16v22v15v16v64v19l-4 11v15v12v14v69q-48 7 -64 -34q-129 63 -253 53q-388 -96 -337 -491zM1455 0q48 -233 265 -246q230 22 261 239
q26 338 -298 336q-251 -70 -228 -329zM2900 253q-16 34 -9 64l-14 5h-19q-21 -8 -38 -5h-15q-16 -6 -31 -4l-75 -3v-38q59 1 86 -42q8 -34 5 -64v-430q5 -94 -8 -155q-42 -23 -83 -20v-37h19h64h15h20h48h15h64h30h27v37q-60 0 -101 31l-5 15l-4 16v11v14v12v20v10v16v11v76
q288 -117 382 170q58 304 -203 366h-20h-14h-12q-77 -27 -124 -76zM1179 234q-6 3 -7 8v11q3 41 -3 69h-27q-12 -5 -23 -5h-18q-36 -5 -61 -4q-29 -5 -52 -3v-38q50 -2 78 -38l5 -18v-265q5 -76 -8 -128q-38 -17 -72 -16v-37h15h19h15h19h16h18h49h16h64h10h46v37
q-58 -1 -99 27l-3 19l-4 18v118v53v11v19v11v16v11v76q50 69 125 79q-21 -96 75 -92q78 93 -18 152h-53q-77 -33 -122 -91zM2189 317h-11h-19q-36 -5 -60 -4q-31 -5 -53 -3v-38q62 0 86 -49l11 -374q48 -94 140 -91q111 6 175 88q14 -36 7 -69q14 -7 30 -7h16l14 4h42
q5 3 11 3h11l61 4v33q-51 4 -79 39q-5 21 -4 41v16v10v20v11v15v11v76v16v14v68v15v16v14v64v12v45l-19 5h-16q-14 -8 -30 -5h-18q-38 -5 -65 -4h-11q-21 -6 -46 -3v-38q55 4 91 -23l8 -15l4 -22v-322q-42 -53 -95 -67q-80 -22 -124 41v12q-11 20 -11 44v13v74v50v15v68v15
v15v16v63v11v46q-6 13 -20 16h-15q-5 -5 -11 -5zM1867 117q47 -212 -97 -313q-182 -32 -200 182q-32 227 120 301q171 3 177 -170zM3156 147q36 -141 -12 -257q-37 -86 -124 -94q-93 8 -129 87v23v14v69v41v16v14v16v14v65v11v46q47 46 103 60q133 -5 162 -125z" />
    <glyph glyph-name="uniF8FE.F8FE" unicode="&#xf8fe;" horiz-adv-x="3393" 
d="M2725 2282h-11h-12h-11h-14l-95 -8v-30q72 -2 117 -42l12 -37v-209q-173 78 -303 -30q-147 -155 -76 -347q145 -273 367 -91q16 -9 15 -57h15q25 1 42 5h14h12l27 4l83 3v34q-66 -4 -95 46v30v30v30v76v11v11v118v26v22v26v23v20v22v15v69v41v15v15v15v15v65v11v45l-4 11
h-11h-12h-48q-6 -4 -12 -3zM424 2176q65 -2 102 -46v-487q5 -89 -7 -147q-47 -29 -95 -26v-39h16h14h12h75h12h67h12h117v39q-56 6 -94 30q-9 23 -12 41v19v16v64v41v15v64v12v45q20 -2 30 -11l34 -42l12 -11l11 -12l8 -7l8 -11q25 -28 37 -50l12 -7l7 -16q33 -27 45 -56
q7 -4 8 -7q18 -20 27 -34q13 -16 18 -30l8 -4l4 -8l7 -8l4 -7l7 -12q23 -30 35 -53h14h20h49h15h65h10h46v39q-55 5 -95 26q-29 23 -45 41q-26 22 -38 46l-15 18l-15 16l-7 7q-12 20 -27 35l-7 14l-12 8l-27 38l-7 7l-11 11l-5 12q-6 4 -7 7q-6 4 -7 8l-7 8l-9 11q-6 4 -7 7
l-19 23q-34 30 -48 60l14 12l19 18l11 16l34 30l12 15l7 12l12 11q15 13 22 26l12 12l11 11q13 17 26 26q4 6 8 8l4 8l4 7l7 8l11 7q23 34 49 53q57 24 106 23v37h-15h-15h-12h-67h-50h-14h-65h-11h-46v-37q50 1 83 -20q-1 -27 -10 -48l-4 -8l-7 -11l-9 -7q-21 -34 -44 -53
l-5 -12q-21 -18 -30 -34l-11 -11l-11 -8q-38 -47 -76 -71q-3 -8 -7 -8q-25 -27 -46 -42q-12 -6 -23 -7v14v20v15v68v15v15v16v63v11v46l12 34q49 24 94 23v37h-15h-15h-12h-75h-12h-67h-12h-117v-37zM2034 1896l-4 7q5 46 -7 80h-27q-12 -4 -23 -4h-19q-35 -4 -60 -3
q-29 -5 -53 -4v-38q59 1 83 -45l5 -16v-230q5 -94 -9 -155q-36 -21 -71 -18v-39h15h19h14h20h15h18h50h15h64h30h27v39q-63 -4 -102 30q-5 29 -4 53v48v16v67v16v16v14v64v12v44q49 69 122 76q-17 -96 74 -90q86 92 -18 151h-49q-80 -32 -125 -91zM1312 1979h-15h-12h-10
l-12 -3h-11l-76 -4v-38q58 -3 83 -45l4 -345l22 -63q39 -43 84 -61q137 -9 219 87l7 -4v-10q-1 -35 5 -62h41l15 5l64 4h30q14 3 27 3v34q-54 2 -80 42l-3 22v23v12v48v65v14v64v50v15v41v27v12v11q1 35 -4 60h-12l-41 -4h-15h-19l-8 -3h-30l-75 -4v-38q58 7 94 -27l7 -18
v-336q-42 -53 -94 -72q-165 -17 -136 181v15v12v75v12v67v12v117l-11 11h-22zM2711 1862v-325q-35 -37 -76 -53q-192 -29 -212 175q-24 207 125 290q116 10 163 -87zM1381 1261q65 -3 109 -33q13 -61 7 -106v-390q5 -89 -7 -147q-54 -36 -109 -30v-37h53h48h15h68h16h14h16
h64h12h44v37q-65 5 -109 34l-8 16v117v53v10v20v11v15v11v76v11v12v49v11v37v13v37q-5 90 8 147q55 31 109 26v39h-53h-48h-16h-67h-16h-14h-16h-64h-12h-44v-39zM1887 1058h-16h-11h-76v-50h12h11h76v-403l23 -60q106 -73 246 -5v38q-94 -26 -156 27l-3 7l-4 26l-4 23v18
v23v16v67v43v14v16v14v16v64v12v44h11h11h19h11h16h11h76v50h-11h-12h-18h-12h-15h-12h-75v30v11v12v117h-12h-11h-75v-170zM182 80q91 -386 491 -317q6 3 12 3l15 4l12 4l11 3l11 4l15 3l94 35l-3 30v11v50v10v46q-4 52 12 91q42 25 90 26v37h-26h-53h-11h-69h-49h-15h-64
h-12h-45v-37q74 3 125 -34l3 -12l4 -10v-140l-4 -41q-90 -56 -189 -46q-286 94 -219 476q63 325 355 223q103 -93 126 -220h41v16v22v15v16v64v19l-4 11v15v12v14v69q-48 7 -64 -34q-129 63 -253 53q-388 -96 -337 -491zM1455 0q48 -233 265 -246q230 22 261 239
q26 338 -298 336q-251 -70 -228 -329zM2900 253q-16 34 -9 64l-14 5h-19q-21 -8 -38 -5h-15q-16 -6 -31 -4l-75 -3v-38q59 1 86 -42q8 -34 5 -64v-430q5 -94 -8 -155q-42 -23 -83 -20v-37h19h64h15h20h48h15h64h30h27v37q-60 0 -101 31l-5 15l-4 16v11v14v12v20v10v16v11v76
q288 -117 382 170q58 304 -203 366h-20h-14h-12q-77 -27 -124 -76zM1179 234q-6 3 -7 8v11q3 41 -3 69h-27q-12 -5 -23 -5h-18q-36 -5 -61 -4q-29 -5 -52 -3v-38q50 -2 78 -38l5 -18v-265q5 -76 -8 -128q-38 -17 -72 -16v-37h15h19h15h19h16h18h49h16h64h10h46v37
q-58 -1 -99 27l-3 19l-4 18v118v53v11v19v11v16v11v76q50 69 125 79q-21 -96 75 -92q78 93 -18 152h-53q-77 -33 -122 -91zM2189 317h-11h-19q-36 -5 -60 -4q-31 -5 -53 -3v-38q62 0 86 -49l11 -374q48 -94 140 -91q111 6 175 88q14 -36 7 -69q14 -7 30 -7h16l14 4h42
q5 3 11 3h11l61 4v33q-51 4 -79 39q-5 21 -4 41v16v10v20v11v15v11v76v16v14v68v15v16v14v64v12v45l-19 5h-16q-14 -8 -30 -5h-18q-38 -5 -65 -4h-11q-21 -6 -46 -3v-38q55 4 91 -23l8 -15l4 -22v-322q-42 -53 -95 -67q-80 -22 -124 41v12q-11 20 -11 44v13v74v50v15v68v15
v15v16v63v11v46q-6 13 -20 16h-15q-5 -5 -11 -5zM1867 117q47 -212 -97 -313q-182 -32 -200 182q-32 227 120 301q171 3 177 -170zM3156 147q36 -141 -12 -257q-37 -86 -124 -94q-93 8 -129 87v23v14v69v41v16v14v16v14v65v11v46q47 46 103 60q133 -5 162 -125z" />
    <glyph glyph-name="uniF8FF.F8FF" unicode="&#xf8ff;" horiz-adv-x="3393" 
d="M2725 2282h-11h-12h-11h-14l-95 -8v-30q72 -2 117 -42l12 -37v-209q-173 78 -303 -30q-147 -155 -76 -347q145 -273 367 -91q16 -9 15 -57h15q25 1 42 5h14h12l27 4l83 3v34q-66 -4 -95 46v30v30v30v76v11v11v118v26v22v26v23v20v22v15v69v41v15v15v15v15v65v11v45l-4 11
h-11h-12h-48q-6 -4 -12 -3zM424 2176q65 -2 102 -46v-487q5 -89 -7 -147q-47 -29 -95 -26v-39h16h14h12h75h12h67h12h117v39q-56 6 -94 30q-9 23 -12 41v19v16v64v41v15v64v12v45q20 -2 30 -11l34 -42l12 -11l11 -12l8 -7l8 -11q25 -28 37 -50l12 -7l7 -16q33 -27 45 -56
q7 -4 8 -7q18 -20 27 -34q13 -16 18 -30l8 -4l4 -8l7 -8l4 -7l7 -12q23 -30 35 -53h14h20h49h15h65h10h46v39q-55 5 -95 26q-29 23 -45 41q-26 22 -38 46l-15 18l-15 16l-7 7q-12 20 -27 35l-7 14l-12 8l-27 38l-7 7l-11 11l-5 12q-6 4 -7 7q-6 4 -7 8l-7 8l-9 11q-6 4 -7 7
l-19 23q-34 30 -48 60l14 12l19 18l11 16l34 30l12 15l7 12l12 11q15 13 22 26l12 12l11 11q13 17 26 26q4 6 8 8l4 8l4 7l7 8l11 7q23 34 49 53q57 24 106 23v37h-15h-15h-12h-67h-50h-14h-65h-11h-46v-37q50 1 83 -20q-1 -27 -10 -48l-4 -8l-7 -11l-9 -7q-21 -34 -44 -53
l-5 -12q-21 -18 -30 -34l-11 -11l-11 -8q-38 -47 -76 -71q-3 -8 -7 -8q-25 -27 -46 -42q-12 -6 -23 -7v14v20v15v68v15v15v16v63v11v46l12 34q49 24 94 23v37h-15h-15h-12h-75h-12h-67h-12h-117v-37zM2034 1896l-4 7q5 46 -7 80h-27q-12 -4 -23 -4h-19q-35 -4 -60 -3
q-29 -5 -53 -4v-38q59 1 83 -45l5 -16v-230q5 -94 -9 -155q-36 -21 -71 -18v-39h15h19h14h20h15h18h50h15h64h30h27v39q-63 -4 -102 30q-5 29 -4 53v48v16v67v16v16v14v64v12v44q49 69 122 76q-17 -96 74 -90q86 92 -18 151h-49q-80 -32 -125 -91zM1312 1979h-15h-12h-10
l-12 -3h-11l-76 -4v-38q58 -3 83 -45l4 -345l22 -63q39 -43 84 -61q137 -9 219 87l7 -4v-10q-1 -35 5 -62h41l15 5l64 4h30q14 3 27 3v34q-54 2 -80 42l-3 22v23v12v48v65v14v64v50v15v41v27v12v11q1 35 -4 60h-12l-41 -4h-15h-19l-8 -3h-30l-75 -4v-38q58 7 94 -27l7 -18
v-336q-42 -53 -94 -72q-165 -17 -136 181v15v12v75v12v67v12v117l-11 11h-22zM2711 1862v-325q-35 -37 -76 -53q-192 -29 -212 175q-24 207 125 290q116 10 163 -87zM1381 1261q65 -3 109 -33q13 -61 7 -106v-390q5 -89 -7 -147q-54 -36 -109 -30v-37h53h48h15h68h16h14h16
h64h12h44v37q-65 5 -109 34l-8 16v117v53v10v20v11v15v11v76v11v12v49v11v37v13v37q-5 90 8 147q55 31 109 26v39h-53h-48h-16h-67h-16h-14h-16h-64h-12h-44v-39zM1887 1058h-16h-11h-76v-50h12h11h76v-403l23 -60q106 -73 246 -5v38q-94 -26 -156 27l-3 7l-4 26l-4 23v18
v23v16v67v43v14v16v14v16v64v12v44h11h11h19h11h16h11h76v50h-11h-12h-18h-12h-15h-12h-75v30v11v12v117h-12h-11h-75v-170zM182 80q91 -386 491 -317q6 3 12 3l15 4l12 4l11 3l11 4l15 3l94 35l-3 30v11v50v10v46q-4 52 12 91q42 25 90 26v37h-26h-53h-11h-69h-49h-15h-64
h-12h-45v-37q74 3 125 -34l3 -12l4 -10v-140l-4 -41q-90 -56 -189 -46q-286 94 -219 476q63 325 355 223q103 -93 126 -220h41v16v22v15v16v64v19l-4 11v15v12v14v69q-48 7 -64 -34q-129 63 -253 53q-388 -96 -337 -491zM1455 0q48 -233 265 -246q230 22 261 239
q26 338 -298 336q-251 -70 -228 -329zM2900 253q-16 34 -9 64l-14 5h-19q-21 -8 -38 -5h-15q-16 -6 -31 -4l-75 -3v-38q59 1 86 -42q8 -34 5 -64v-430q5 -94 -8 -155q-42 -23 -83 -20v-37h19h64h15h20h48h15h64h30h27v37q-60 0 -101 31l-5 15l-4 16v11v14v12v20v10v16v11v76
q288 -117 382 170q58 304 -203 366h-20h-14h-12q-77 -27 -124 -76zM1179 234q-6 3 -7 8v11q3 41 -3 69h-27q-12 -5 -23 -5h-18q-36 -5 -61 -4q-29 -5 -52 -3v-38q50 -2 78 -38l5 -18v-265q5 -76 -8 -128q-38 -17 -72 -16v-37h15h19h15h19h16h18h49h16h64h10h46v37
q-58 -1 -99 27l-3 19l-4 18v118v53v11v19v11v16v11v76q50 69 125 79q-21 -96 75 -92q78 93 -18 152h-53q-77 -33 -122 -91zM2189 317h-11h-19q-36 -5 -60 -4q-31 -5 -53 -3v-38q62 0 86 -49l11 -374q48 -94 140 -91q111 6 175 88q14 -36 7 -69q14 -7 30 -7h16l14 4h42
q5 3 11 3h11l61 4v33q-51 4 -79 39q-5 21 -4 41v16v10v20v11v15v11v76v16v14v68v15v16v14v64v12v45l-19 5h-16q-14 -8 -30 -5h-18q-38 -5 -65 -4h-11q-21 -6 -46 -3v-38q55 4 91 -23l8 -15l4 -22v-322q-42 -53 -95 -67q-80 -22 -124 41v12q-11 20 -11 44v13v74v50v15v68v15
v15v16v63v11v46q-6 13 -20 16h-15q-5 -5 -11 -5zM1867 117q47 -212 -97 -313q-182 -32 -200 182q-32 227 120 301q171 3 177 -170zM3156 147q36 -141 -12 -257q-37 -86 -124 -94q-93 8 -129 87v23v14v69v41v16v14v16v14v65v11v46q47 46 103 60q133 -5 162 -125z" />
    </font>
</defs>
</svg>
